<?xml version="1.0" encoding="UTF-8"?>
<!DOCTYPE svg PUBLIC "-//W3C//DTD SVG 1.1//EN" "http://www.w3.org/Graphics/SVG/1.1/DTD/svg11.dtd">
<svg xmlns="http://www.w3.org/2000/svg" version="1.1" width="540px" height="180px" style="shape-rendering:geometricPrecision; text-rendering:geometricPrecision; image-rendering:optimizeQuality; fill-rule:evenodd; clip-rule:evenodd" xmlns:xlink="http://www.w3.org/1999/xlink">
<g><path style="opacity:0.573" fill="#000000" d="M 137.5,41.5 C 141.138,40.7366 142.638,42.0699 142,45.5C 136.073,49.2147 129.906,52.5481 123.5,55.5C 122.692,55.1924 122.025,54.6924 121.5,54C 125.172,51.162 129.172,48.8287 133.5,47C 122.067,46.9222 111.733,50.2555 102.5,57C 103.167,57.6667 103.833,58.3333 104.5,59C 110.171,59.5307 115.838,60.0307 121.5,60.5C 121.5,61.8333 121.5,63.1667 121.5,64.5C 94.3437,73.169 70.8437,87.8357 51,108.5C 47.8604,112.417 46.1937,116.75 46,121.5C 46.5,122 47,122.5 47.5,123C 60.0966,124.222 72.43,122.555 84.5,118C 97.8985,112.467 110.899,106.134 123.5,99C 129.035,90.8169 136.868,86.9836 147,87.5C 149.375,87.4037 151.541,87.9037 153.5,89C 144.29,88.792 136.29,91.6254 129.5,97.5C 130.167,98.8333 131.167,99.8333 132.5,100.5C 139.312,98.5628 145.978,96.2295 152.5,93.5C 165.44,78.6117 178.607,63.9451 192,49.5C 193.543,50.5772 193.543,51.9106 192,53.5C 177.833,67.6864 164.833,82.6864 153,98.5C 157.759,96.2046 162.592,94.0379 167.5,92C 169.679,90.7433 171.679,89.2433 173.5,87.5C 174.747,89.0064 174.747,90.5064 173.5,92C 166.833,95 160.167,98 153.5,101C 159.502,102.303 165.502,102.469 171.5,101.5C 175.797,93.8639 182.131,88.8639 190.5,86.5C 194.35,87.6957 194.35,88.8624 190.5,90C 192.984,92.2838 193.151,94.7838 191,97.5C 186.212,102.391 180.546,105.725 174,107.5C 172.745,106.789 171.579,105.956 170.5,105C 162.5,104.333 154.5,104.333 146.5,105C 144.772,106.973 142.939,108.806 141,110.5C 139.77,109.725 139.437,108.725 140,107.5C 142.951,104.428 145.784,101.261 148.5,98C 143.621,99.6262 138.621,101.293 133.5,103C 131.108,107.2 127.441,109.367 122.5,109.5C 118.338,109.351 117.672,107.851 120.5,105C 123.218,103.928 125.885,102.762 128.5,101.5C 128,100.5 127.5,99.5 127,98.5C 107.893,112.471 86.7268,121.638 63.5,126C 57.8333,126.667 52.1667,126.667 46.5,126C 41.8848,124.923 40.3848,122.09 42,117.5C 45.3402,110.492 49.8402,104.326 55.5,99C 71.5608,84.9462 89.2274,73.2795 108.5,64C 105.457,63.2018 102.624,62.0352 100,60.5C 98.9595,57.3637 99.7928,54.8637 102.5,53C 113.68,47.4601 125.347,43.6268 137.5,41.5 Z M 182.5,93.5 C 184.924,93.1924 187.257,93.5258 189.5,94.5C 185.331,100.534 179.664,103.701 172.5,104C 174.937,100.375 178.27,96.8755 182.5,93.5 Z"/></g>
<g><path style="opacity:0.597" fill="#000000" d="M 268.5,41.5 C 270.346,41.2222 271.68,41.8888 272.5,43.5C 271.806,46.0876 270.64,48.421 269,50.5C 254.096,65.4008 239.929,80.9008 226.5,97C 234.432,96.1471 242.432,95.4804 250.5,95C 256.179,91.9404 262.179,89.7738 268.5,88.5C 269.583,89.365 269.749,90.365 269,91.5C 267,94.1667 265,96.8333 263,99.5C 262.517,100.448 262.351,101.448 262.5,102.5C 267.067,102.256 271.401,101.09 275.5,99C 278.5,96 281.5,93 284.5,90C 286.135,89.4604 287.468,89.9604 288.5,91.5C 290.071,90.6906 291.738,90.3573 293.5,90.5C 293.589,93.7086 293.256,96.8752 292.5,100C 292.709,101.871 293.709,103.038 295.5,103.5C 298.228,102.855 300.895,102.021 303.5,101C 310.966,94.4342 319.633,90.2675 329.5,88.5C 330.583,89.365 330.749,90.365 330,91.5C 328,94.1667 326,96.8333 324,99.5C 323.517,100.448 323.351,101.448 323.5,102.5C 328.067,102.256 332.401,101.09 336.5,99C 338.963,95.5354 341.796,92.3688 345,89.5C 345.167,86.6667 346.667,85.1667 349.5,85C 346.821,84.5658 344.154,84.7325 341.5,85.5C 339.681,85.6578 338.348,84.9911 337.5,83.5C 342.729,82.0764 348.063,81.2431 353.5,81C 359.5,75.6667 365.5,70.3333 371.5,65C 373.806,62.861 376.473,61.361 379.5,60.5C 380.167,60.8333 380.833,61.1667 381.5,61.5C 376.69,69.4767 370.357,75.9767 362.5,81C 368.01,81.0505 373.343,81.7172 378.5,83C 370.933,83.5836 363.266,84.2502 355.5,85C 348.708,89.4578 342.875,94.9578 338,101.5C 337.51,102.793 337.343,104.127 337.5,105.5C 344.042,104.041 350.375,101.875 356.5,99C 359.834,95.3504 363.501,92.1838 367.5,89.5C 368.583,90.365 368.749,91.365 368,92.5C 365.037,94.4606 362.371,96.794 360,99.5C 359.333,100.167 359.333,100.833 360,101.5C 365.692,96.974 371.526,92.6406 377.5,88.5C 378.308,88.8076 378.975,89.3076 379.5,90C 376.482,94.2035 374.149,98.7035 372.5,103.5C 376.669,102.777 380.669,101.444 384.5,99.5C 388.686,93.9639 393.686,89.6305 399.5,86.5C 399.649,87.552 399.483,88.552 399,89.5C 393.973,93.4387 389.473,97.9387 385.5,103C 386,103.167 386.5,103.333 387,103.5C 393.595,101.114 400.095,98.6139 406.5,96C 408.5,94 410.5,92 412.5,90C 414.135,89.4604 415.468,89.9604 416.5,91.5C 418.071,90.6906 419.738,90.3573 421.5,90.5C 421.589,93.7086 421.256,96.8752 420.5,100C 420.709,101.871 421.709,103.038 423.5,103.5C 425.833,102.833 428.167,102.167 430.5,101.5C 436.56,91.8034 445.226,87.4701 456.5,88.5C 455.573,91.4695 453.573,93.3028 450.5,94C 446.104,96.2995 441.438,97.4661 436.5,97.5C 436.528,99.5824 435.861,101.416 434.5,103C 437.207,103.328 439.874,102.995 442.5,102C 451.114,98.4439 459.281,94.2773 467,89.5C 467.5,89.6667 468,89.8333 468.5,90C 467.549,90.7175 467.383,91.5509 468,92.5C 470.413,89.6857 472.579,89.8523 474.5,93C 470.232,101.389 472.565,104.389 481.5,102C 483.955,100.688 486.455,99.5218 489,98.5C 489.688,99.3317 489.521,99.9984 488.5,100.5C 483.999,104.833 478.666,106.667 472.5,106C 470.99,104.649 469.99,102.982 469.5,101C 470.645,98.8014 470.645,96.6348 469.5,94.5C 465.022,97.8104 460.689,101.31 456.5,105C 454.975,106.009 453.308,106.509 451.5,106.5C 452.436,103.041 454.436,100.207 457.5,98C 452.523,99.9831 447.523,102.316 442.5,105C 438.205,107.353 434.371,106.853 431,103.5C 419.747,109.25 415.414,105.917 418,93.5C 412.742,97.5467 407.575,101.713 402.5,106C 401.056,106.781 399.723,106.614 398.5,105.5C 399.5,104.167 400.5,102.833 401.5,101.5C 401.167,101.167 400.833,100.833 400.5,100.5C 394.953,103.905 388.953,105.905 382.5,106.5C 382.719,105.325 382.386,104.325 381.5,103.5C 377.747,106.063 373.747,106.73 369.5,105.5C 368.966,102.893 369.633,100.393 371.5,98C 371.167,97.8333 370.833,97.6667 370.5,97.5C 365.745,102.376 360.079,105.376 353.5,106.5C 353.906,104.891 353.906,103.557 353.5,102.5C 348.813,105.284 343.813,107.284 338.5,108.5C 335.302,108.239 333.302,106.572 332.5,103.5C 328.899,105.326 325.233,105.993 321.5,105.5C 320.692,103.577 320.192,101.577 320,99.5C 315.398,103.05 310.231,105.384 304.5,106.5C 303.328,106.081 302.328,105.415 301.5,104.5C 298.656,106.103 295.656,106.603 292.5,106C 291.333,105.5 290.5,104.667 290,103.5C 289.518,100.093 289.518,96.76 290,93.5C 284.742,97.5467 279.575,101.713 274.5,106C 272.438,106.564 270.605,106.064 269,104.5C 262.75,108.375 259.417,106.709 259,99.5C 253.887,103.64 248.053,105.974 241.5,106.5C 240.846,102.317 242.512,99.484 246.5,98C 237.628,97.6345 229.294,99.6345 221.5,104C 207.667,119.833 193.833,135.667 180,151.5C 177.371,149.28 177.037,146.614 179,143.5C 187.163,124.17 200.663,109.836 219.5,100.5C 234.501,82.1062 250.167,64.4395 266.5,47.5C 250.771,50.3127 235.271,54.646 220,60.5C 218.635,59.4071 218.301,58.0738 219,56.5C 235.735,52.0283 252.235,47.0283 268.5,41.5 Z M 257.5,96.5 C 257.389,95.8826 257.056,95.3826 256.5,95C 262.554,93.0145 262.888,93.5145 257.5,96.5 Z M 306.5,102.5 C 310.873,97.8139 316.207,94.9806 322.5,94C 317.831,98.1666 312.498,101 306.5,102.5 Z M 257.5,96.5 C 254.195,99.7849 250.195,101.785 245.5,102.5C 248.701,98.8993 252.701,96.8993 257.5,96.5 Z M 210.5,110.5 C 202.963,120.246 194.963,129.579 186.5,138.5C 191.277,126.391 199.277,117.057 210.5,110.5 Z"/></g>
<g><path style="opacity:0.42" fill="#000000" d="M 406.5,78.5 C 407.5,78.5 408.5,78.5 409.5,78.5C 409.5,79.5 409.5,80.5 409.5,81.5C 408.5,81.5 407.5,81.5 406.5,81.5C 406.5,80.5 406.5,79.5 406.5,78.5 Z"/></g>
<g><path style="opacity:0.063" fill="#000000" d="M 209.5,138.5 C 210.525,138.897 210.692,139.563 210,140.5C 209.536,139.906 209.369,139.239 209.5,138.5 Z"/></g>
</svg>
