<?xml version="1.0" encoding="UTF-8"?>
<!DOCTYPE svg PUBLIC "-//W3C//DTD SVG 1.1//EN" "http://www.w3.org/Graphics/SVG/1.1/DTD/svg11.dtd">
<svg xmlns="http://www.w3.org/2000/svg" version="1.1" width="600px" height="564px" style="shape-rendering:geometricPrecision; text-rendering:geometricPrecision; image-rendering:optimizeQuality; fill-rule:evenodd; clip-rule:evenodd" xmlns:xlink="http://www.w3.org/1999/xlink">
<g><path style="opacity:0.857" fill="#000000" d="M 486.5,29.5 C 497.216,29.1557 507.882,29.6557 518.5,31C 526.27,32.248 532.77,35.748 538,41.5C 538.667,61.1667 538.667,80.8333 538,100.5C 532.556,107.309 525.389,111.142 516.5,112C 501.25,114.579 486.25,113.579 471.5,109C 468.059,107.224 464.892,105.057 462,102.5C 460.357,82.2561 460.024,61.9227 461,41.5C 468.207,34.6454 476.707,30.6454 486.5,29.5 Z M 491.5,35.5 C 503.919,34.7738 515.919,36.6072 527.5,41C 532.557,43.355 533.224,46.355 529.5,50C 523.905,53.1983 517.905,55.1983 511.5,56C 500.376,57.0785 489.376,56.4118 478.5,54C 473.655,52.7496 469.655,50.2496 466.5,46.5C 468.792,42.7205 472.125,40.2205 476.5,39C 481.586,37.6203 486.586,36.4536 491.5,35.5 Z M 466.5,56.5 C 488.168,65.7858 509.834,65.7858 531.5,56.5C 533.671,62.6584 531.671,66.8251 525.5,69C 507.361,75.2509 489.361,74.9176 471.5,68C 467.093,65.4683 465.426,61.635 466.5,56.5 Z M 466.5,72.5 C 476.797,77.6963 487.797,80.3629 499.5,80.5C 505.853,79.8316 512.186,78.9983 518.5,78C 523.442,77.1336 527.942,75.3002 532,72.5C 533.839,79.3431 531.339,83.8431 524.5,86C 506.216,92.4198 488.216,91.7532 470.5,84C 466.886,81.0558 465.553,77.2225 466.5,72.5 Z M 466.5,89.5 C 480.783,96.0614 495.783,98.2281 511.5,96C 518.8,95.2329 525.634,93.0662 532,89.5C 533.443,94.212 532.277,98.0453 528.5,101C 515.312,106.178 501.645,107.845 487.5,106C 479.702,105.295 472.869,102.462 467,97.5C 466.503,94.854 466.336,92.1873 466.5,89.5 Z"/></g>
<g><path style="opacity:0.879" fill="#000000" d="M 244.5,34.5 C 275.835,34.3334 307.168,34.5 338.5,35C 342.275,36.4421 345.108,38.9421 347,42.5C 347.667,55.8333 347.667,69.1667 347,82.5C 345.062,83.8602 343.396,83.5268 342,81.5C 341.5,74.8417 341.334,68.175 341.5,61.5C 308.167,61.5 274.833,61.5 241.5,61.5C 241.333,88.1687 241.5,114.835 242,141.5C 243.109,143.815 244.943,145.315 247.5,146C 276.833,146.667 306.167,146.667 335.5,146C 338.057,145.315 339.891,143.815 341,141.5C 341.333,134.833 341.667,128.167 342,121.5C 343.396,119.473 345.062,119.14 347,120.5C 347.667,128.5 347.667,136.5 347,144.5C 345.108,148.058 342.275,150.558 338.5,152C 307.167,152.667 275.833,152.667 244.5,152C 240.725,150.558 237.892,148.058 236,144.5C 235.333,110.5 235.333,76.5 236,42.5C 238.074,38.9231 240.907,36.2565 244.5,34.5 Z M 247.5,40.5 C 276.835,40.3334 306.169,40.5 335.5,41C 338.057,41.6853 339.891,43.1853 341,45.5C 341.498,48.8168 341.665,52.1501 341.5,55.5C 308.167,55.5 274.833,55.5 241.5,55.5C 241.335,52.1501 241.502,48.8168 242,45.5C 243.352,43.251 245.185,41.5844 247.5,40.5 Z"/></g>
<g><path style="opacity:0.651" fill="#000000" d="M 246.5,45.5 C 248.167,45.5 249.833,45.5 251.5,45.5C 252.322,51.2093 250.489,52.5427 246,49.5C 245.421,48.0715 245.588,46.7382 246.5,45.5 Z"/></g>
<g><path style="opacity:0.669" fill="#000000" d="M 257.5,45.5 C 261.909,44.899 263.242,46.5657 261.5,50.5C 260.167,51.8333 258.833,51.8333 257.5,50.5C 256.334,48.8327 256.334,47.166 257.5,45.5 Z"/></g>
<g><path style="opacity:0.651" fill="#000000" d="M 267.5,45.5 C 269.199,45.3398 270.866,45.5065 272.5,46C 273.813,49.692 272.48,51.3587 268.5,51C 267.594,49.3005 267.261,47.4672 267.5,45.5 Z"/></g>
<g><path style="opacity:0.845" fill="#000000" d="M 60.5,50.5 C 70.6051,50.0505 80.6051,50.5505 90.5,52C 91.1078,53.231 91.4411,54.5643 91.5,56C 90.2037,59.4098 89.7037,62.9098 90,66.5C 96.3333,73.1667 102.667,73.1667 109,66.5C 109.296,62.9098 108.796,59.4098 107.5,56C 107.559,54.5643 107.892,53.231 108.5,52C 113.726,50.8819 119.059,50.3819 124.5,50.5C 129.413,50.5128 134.247,50.8462 139,51.5C 139,60.8333 139,70.1667 139,79.5C 139.414,79.9574 139.914,80.2907 140.5,80.5C 145.075,77.6087 150.075,76.7754 155.5,78C 161.409,81.4294 164.076,86.596 163.5,93.5C 163.296,106.205 156.963,111.372 144.5,109C 143.034,108.365 141.7,107.531 140.5,106.5C 139.914,106.709 139.414,107.043 139,107.5C 139.201,117.072 139.035,126.572 138.5,136C 128.4,136.949 118.4,136.615 108.5,135C 107.892,133.769 107.559,132.436 107.5,131C 108.796,127.59 109.296,124.09 109,120.5C 102.667,113.833 96.3333,113.833 90,120.5C 89.7037,124.09 90.2037,127.59 91.5,131C 91.4411,132.436 91.1078,133.769 90.5,135C 85.2742,136.118 79.9409,136.618 74.5,136.5C 69.5865,136.487 64.7532,136.154 60,135.5C 60,126.167 60,116.833 60,107.5C 59.586,107.043 59.086,106.709 58.5,106.5C 53.9254,109.391 48.9254,110.225 43.5,109C 37.5909,105.571 34.9242,100.404 35.5,93.5C 35.704,80.7947 42.0373,75.628 54.5,78C 55.9663,78.6355 57.2997,79.4688 58.5,80.5C 59.086,80.2907 59.586,79.9574 60,79.5C 59.7749,69.7619 59.9415,60.0952 60.5,50.5 Z M 65.5,56.5 C 71.8682,56.1703 78.2015,56.5037 84.5,57.5C 81.2504,70.3298 86.2504,76.9965 99.5,77.5C 112.75,76.9965 117.75,70.3298 114.5,57.5C 120.798,56.5037 127.132,56.1703 133.5,56.5C 132.916,63.3344 132.25,70.1678 131.5,77C 131.206,83.0367 134.039,86.2034 140,86.5C 144.055,84.876 148.222,84.0426 152.5,84C 159.167,90.3333 159.167,96.6667 152.5,103C 148.222,102.957 144.055,102.124 140,100.5C 134.324,100.971 131.491,104.138 131.5,110C 132.25,116.832 132.916,123.666 133.5,130.5C 127.132,130.83 120.798,130.496 114.5,129.5C 117.75,116.67 112.75,110.003 99.5,109.5C 86.2504,110.003 81.2504,116.67 84.5,129.5C 78.2015,130.496 71.8682,130.83 65.5,130.5C 66.0835,123.666 66.7502,116.832 67.5,110C 67.5093,104.138 64.6759,100.971 59,100.5C 54.945,102.124 50.7783,102.957 46.5,103C 39.8333,96.6667 39.8333,90.3333 46.5,84C 50.7783,84.0426 54.945,84.876 59,86.5C 64.9606,86.2034 67.7939,83.0367 67.5,77C 66.7502,70.1678 66.0835,63.3344 65.5,56.5 Z"/></g>
<g><path style="opacity:0.856" fill="#000000" d="M 247.5,87.5 C 248.822,87.33 249.989,87.6634 251,88.5C 251.498,91.8168 251.665,95.1501 251.5,98.5C 254.833,98.5 258.167,98.5 261.5,98.5C 261.335,95.4816 261.502,92.4816 262,89.5C 263.133,87.7888 264.633,87.2888 266.5,88C 267.833,97 267.833,106 266.5,115C 264.633,115.711 263.133,115.211 262,113.5C 261.502,110.518 261.335,107.518 261.5,104.5C 258.167,104.5 254.833,104.5 251.5,104.5C 251.665,107.85 251.498,111.183 251,114.5C 249.062,115.86 247.396,115.527 246,113.5C 245.333,105.5 245.333,97.5 246,89.5C 246.717,88.9558 247.217,88.2891 247.5,87.5 Z"/></g>
<g><path style="opacity:0.839" fill="#000000" d="M 274.5,87.5 C 278.846,87.3343 283.179,87.501 287.5,88C 290.543,92.4888 289.209,94.3221 283.5,93.5C 283.666,100.508 283.5,107.508 283,114.5C 281.062,115.86 279.396,115.527 278,113.5C 277.5,106.842 277.334,100.175 277.5,93.5C 272.331,93.4576 271.331,91.4576 274.5,87.5 Z"/></g>
<g><path style="opacity:0.839" fill="#000000" d="M 295.5,87.5 C 300.233,87.2232 304.9,87.5565 309.5,88.5C 311.242,92.4343 309.909,94.101 305.5,93.5C 305.666,100.175 305.5,106.842 305,113.5C 303.604,115.527 301.938,115.86 300,114.5C 299.5,107.508 299.334,100.508 299.5,93.5C 293.541,94.2222 292.207,92.2222 295.5,87.5 Z"/></g>
<g><path style="opacity:0.859" fill="#000000" d="M 316.5,87.5 C 327.672,85.1811 332.505,89.5145 331,100.5C 328.761,103.962 325.594,105.295 321.5,104.5C 321.665,107.518 321.498,110.518 321,113.5C 319.604,115.527 317.938,115.86 316,114.5C 315.196,105.422 315.363,96.4221 316.5,87.5 Z M 321.5,93.5 C 326.12,94.5559 326.454,96.2226 322.5,98.5C 321.548,96.9547 321.215,95.288 321.5,93.5 Z"/></g>
<g><path style="opacity:0.779" fill="#000000" d="M 348.5,87.5 C 351.127,87.2933 352.793,88.46 353.5,91C 351.589,98.1453 349.755,105.312 348,112.5C 346.522,115.993 344.522,116.326 342,113.5C 341.805,111.793 341.805,110.126 342,108.5C 339.214,110.184 337.38,109.517 336.5,106.5C 338.553,102.588 340.72,102.588 343,106.5C 344.377,99.9852 346.21,93.6518 348.5,87.5 Z"/></g>
<g><path style="opacity:0.786" fill="#000000" d="M 359.5,87.5 C 362.734,87.2366 364.068,88.7366 363.5,92C 362.149,99.0721 360.482,106.072 358.5,113C 355.648,116.418 353.648,115.918 352.5,111.5C 353.919,103.143 356.253,95.1427 359.5,87.5 Z"/></g>
<g><path style="opacity:0.669" fill="#000000" d="M 337.5,93.5 C 341.909,92.899 343.242,94.5657 341.5,98.5C 340.167,99.8333 338.833,99.8333 337.5,98.5C 336.334,96.8327 336.334,95.166 337.5,93.5 Z"/></g>
<g><path style="opacity:0.803" fill="#000000" d="M 438.5,118.5 C 440.199,118.34 441.866,118.506 443.5,119C 445.333,121.5 447.167,124 449,126.5C 451.285,124.093 453.451,121.593 455.5,119C 457.259,118.202 458.926,118.369 460.5,119.5C 461.833,128.167 461.833,136.833 460.5,145.5C 458.647,146.76 456.814,146.76 455,145.5C 454.667,141.167 454.333,136.833 454,132.5C 451,136.5 448,136.5 445,132.5C 444.667,136.5 444.333,140.5 444,144.5C 442.507,146.56 440.674,146.893 438.5,145.5C 437.194,136.5 437.194,127.5 438.5,118.5 Z"/></g>
<g><path style="opacity:0.812" fill="#000000" d="M 494.5,118.5 C 500.324,117.588 505.49,118.922 510,122.5C 512.488,125.837 511.821,128.171 508,129.5C 505.565,127.248 502.732,125.581 499.5,124.5C 497.559,124.804 495.893,125.637 494.5,127C 499.439,128.608 504.273,130.441 509,132.5C 512.518,138.578 511.018,143.078 504.5,146C 498.684,147.409 493.517,146.242 489,142.5C 486.512,139.163 487.179,136.829 491,135.5C 493.449,137.598 496.283,139.265 499.5,140.5C 501.441,140.196 503.107,139.363 504.5,138C 500.654,136.368 496.654,135.034 492.5,134C 486.098,128.071 486.764,122.905 494.5,118.5 Z"/></g>
<g><path style="opacity:0.859" fill="#000000" d="M 520.5,118.5 C 525.179,118.334 529.845,118.501 534.5,119C 535.667,120.167 536.833,121.333 538,122.5C 538.5,130.493 538.666,138.493 538.5,146.5C 519.882,151.135 512.382,144.135 516,125.5C 516.53,122.415 518.03,120.082 520.5,118.5 Z M 523.5,124.5 C 532.008,123.523 534.842,127.19 532,135.5C 530.887,134.289 529.72,134.289 528.5,135.5C 526.962,137.119 526.128,138.786 526,140.5C 525.127,140.265 524.293,139.931 523.5,139.5C 522.221,134.449 522.221,129.449 523.5,124.5 Z"/></g>
<g><path style="opacity:0.812" fill="#000000" d="M 544.5,118.5 C 546.766,118.141 548.599,118.808 550,120.5C 550.5,127.158 550.666,133.825 550.5,140.5C 553.518,140.335 556.518,140.502 559.5,141C 561.525,142.194 561.859,143.694 560.5,145.5C 554.946,146.806 549.446,146.806 544,145.5C 543.196,136.422 543.363,127.422 544.5,118.5 Z"/></g>
<g><path style="opacity:0.779" fill="#000000" d="M 466.5,129.5 C 470.575,129.399 473.075,131.399 474,135.5C 475.292,133.751 476.458,131.918 477.5,130C 479.167,129.333 480.833,129.333 482.5,130C 483.022,130.561 483.355,131.228 483.5,132C 480.076,140.348 476.243,148.514 472,156.5C 470.274,157.576 468.441,157.743 466.5,157C 465.941,156.275 465.608,155.442 465.5,154.5C 466.89,150.719 468.557,147.053 470.5,143.5C 469,140.5 467.5,137.5 466,134.5C 465.36,132.735 465.527,131.068 466.5,129.5 Z"/></g>
<g><path style="opacity:0.876" fill="#000000" d="M 67.5,217.5 C 88.8333,217.5 110.167,217.5 131.5,217.5C 131.667,240.502 131.5,263.502 131,286.5C 129.062,287.86 127.396,287.527 126,285.5C 125.5,264.836 125.333,244.169 125.5,223.5C 108.167,223.5 90.8333,223.5 73.5,223.5C 73.6665,233.506 73.4998,243.506 73,253.5C 72.5,254 72,254.5 71.5,255C 61.5056,255.5 51.5056,255.666 41.5,255.5C 41.5,283.5 41.5,311.5 41.5,339.5C 69.5,339.5 97.5,339.5 125.5,339.5C 125.334,334.821 125.501,330.155 126,325.5C 127.133,323.789 128.633,323.289 130.5,324C 131.48,331.079 131.813,338.245 131.5,345.5C 99.5,345.5 67.5,345.5 35.5,345.5C 35.3334,313.498 35.5,281.498 36,249.5C 46.7021,238.965 57.2021,228.298 67.5,217.5 Z M 66.5,228.5 C 67.4912,235.313 67.8245,242.313 67.5,249.5C 60.4921,249.666 53.4921,249.5 46.5,249C 53.3693,242.298 60.036,235.465 66.5,228.5 Z"/></g>
<g><path style="opacity:0.876" fill="#000000" d="M 267.5,217.5 C 288.833,217.5 310.167,217.5 331.5,217.5C 331.667,240.502 331.5,263.502 331,286.5C 329.062,287.86 327.396,287.527 326,285.5C 325.5,264.836 325.333,244.169 325.5,223.5C 308.167,223.5 290.833,223.5 273.5,223.5C 273.666,233.506 273.5,243.506 273,253.5C 272.5,254 272,254.5 271.5,255C 261.506,255.5 251.506,255.666 241.5,255.5C 241.5,283.5 241.5,311.5 241.5,339.5C 269.5,339.5 297.5,339.5 325.5,339.5C 325.334,334.821 325.501,330.155 326,325.5C 327.133,323.789 328.633,323.289 330.5,324C 331.48,331.079 331.813,338.245 331.5,345.5C 299.5,345.5 267.5,345.5 235.5,345.5C 235.333,313.498 235.5,281.498 236,249.5C 246.702,238.965 257.202,228.298 267.5,217.5 Z M 266.5,228.5 C 267.491,235.313 267.825,242.313 267.5,249.5C 260.492,249.666 253.492,249.5 246.5,249C 253.369,242.298 260.036,235.465 266.5,228.5 Z"/></g>
<g><path style="opacity:0.85" fill="#000000" d="M 441.5,217.5 C 480.406,217.17 519.239,217.504 558,218.5C 555.265,254.857 551.931,291.19 548,327.5C 547.692,328.308 547.192,328.975 546.5,329.5C 531.901,335.533 517.067,340.866 502,345.5C 484.833,340.722 467.999,335.055 451.5,328.5C 447.605,293.381 443.938,258.214 440.5,223C 440.581,221.076 440.914,219.243 441.5,217.5 Z M 447.5,223.5 C 482.167,223.5 516.833,223.5 551.5,223.5C 548.664,256.858 545.498,290.191 542,323.5C 528.877,329.211 515.543,334.544 502,339.5C 486.723,334.742 471.723,329.409 457,323.5C 453.502,290.191 450.336,256.857 447.5,223.5 Z"/></g>
<g><path style="opacity:0.855" fill="#000000" d="M 469.5,243.5 C 491.503,243.333 513.503,243.5 535.5,244C 537.527,245.396 537.86,247.062 536.5,249C 515.503,249.5 494.503,249.667 473.5,249.5C 474.364,256.477 475.031,263.477 475.5,270.5C 494.076,270.174 512.576,270.507 531,271.5C 530.566,284.87 528.733,298.037 525.5,311C 517.667,313.833 509.833,316.667 502,319.5C 493.5,316.667 485,313.833 476.5,311C 474.476,306.059 473.143,300.892 472.5,295.5C 473.313,291.5 475.147,290.833 478,293.5C 479.044,297.73 480.211,301.897 481.5,306C 488.692,308.847 496.025,310.847 503.5,312C 508.833,310 514.167,308 519.5,306C 521.927,296.447 523.927,286.78 525.5,277C 507.158,276.833 488.824,276.333 470.5,275.5C 468.942,267.422 467.942,259.255 467.5,251C 467.631,248.223 468.298,245.723 469.5,243.5 Z"/></g>
<g><path style="opacity:0.819" fill="#000000" d="M 58.5,291.5 C 60.3109,291.572 61.6443,292.405 62.5,294C 63.4363,297.914 64.603,301.747 66,305.5C 70.3666,290.912 75.0332,290.912 80,305.5C 81.1805,301.109 82.5139,296.776 84,292.5C 85.9376,291.14 87.6043,291.473 89,293.5C 87.8601,302.225 85.6935,310.725 82.5,319C 80.6332,319.711 79.1332,319.211 78,317.5C 76.3333,313.833 74.6667,310.167 73,306.5C 71.076,310.017 69.4094,313.684 68,317.5C 66,320.167 64,320.167 62,317.5C 59.8529,310.245 58.0196,302.912 56.5,295.5C 56.8029,293.886 57.4695,292.552 58.5,291.5 Z"/></g>
<g><path style="opacity:0.818" fill="#000000" d="M 95.5,291.5 C 96.8221,291.33 97.9887,291.663 99,292.5C 100.486,296.776 101.819,301.109 103,305.5C 107.967,290.912 112.633,290.912 117,305.5C 118.397,301.747 119.564,297.914 120.5,294C 121.711,291.718 123.378,291.218 125.5,292.5C 126.641,294.421 126.808,296.421 126,298.5C 124.667,303.833 123.333,309.167 122,314.5C 121.096,319.461 118.763,320.461 115,317.5C 113.591,313.684 111.924,310.017 110,306.5C 108.333,310.167 106.667,313.833 105,317.5C 103.604,319.527 101.938,319.86 100,318.5C 97.6024,310.744 95.4357,302.911 93.5,295C 93.9783,293.697 94.645,292.531 95.5,291.5 Z"/></g>
<g><path style="opacity:0.82" fill="#000000" d="M 132.5,291.5 C 134.39,291.297 135.89,291.963 137,293.5C 138.014,297.225 139.181,300.892 140.5,304.5C 142.089,301.579 143.589,298.579 145,295.5C 146.667,294.167 148.333,294.167 150,295.5C 151.411,298.579 152.911,301.579 154.5,304.5C 155.819,300.892 156.986,297.225 158,293.5C 159.396,291.473 161.062,291.14 163,292.5C 162.757,301.475 160.924,310.142 157.5,318.5C 155.602,319.734 153.935,319.401 152.5,317.5C 151.025,313.739 149.358,310.073 147.5,306.5C 145.398,310.372 143.564,314.372 142,318.5C 140.542,319.747 139.042,319.747 137.5,318.5C 133.728,309.776 132.062,300.776 132.5,291.5 Z"/></g>
<g><path style="opacity:0.852" fill="#000000" d="M 274.5,291.5 C 275.583,291.539 276.583,291.873 277.5,292.5C 278.487,295.768 278.82,299.102 278.5,302.5C 281.833,302.5 285.167,302.5 288.5,302.5C 288.18,299.102 288.513,295.768 289.5,292.5C 290.833,291.167 292.167,291.167 293.5,292.5C 294.833,301.167 294.833,309.833 293.5,318.5C 292.167,319.833 290.833,319.833 289.5,318.5C 288.513,315.232 288.18,311.898 288.5,308.5C 285.167,308.5 281.833,308.5 278.5,308.5C 278.82,311.898 278.487,315.232 277.5,318.5C 276.167,319.833 274.833,319.833 273.5,318.5C 271.91,309.258 272.243,300.258 274.5,291.5 Z"/></g>
<g><path style="opacity:0.84" fill="#000000" d="M 300.5,291.5 C 305.179,291.334 309.845,291.501 314.5,292C 315.406,293.699 315.739,295.533 315.5,297.5C 313.833,297.5 312.167,297.5 310.5,297.5C 310.83,304.532 310.497,311.532 309.5,318.5C 308.167,319.833 306.833,319.833 305.5,318.5C 304.503,311.532 304.17,304.532 304.5,297.5C 302.833,297.5 301.167,297.5 299.5,297.5C 299.325,295.379 299.659,293.379 300.5,291.5 Z"/></g>
<g><path style="opacity:0.834" fill="#000000" d="M 321.5,291.5 C 323.308,291.491 324.975,291.991 326.5,293C 328.017,294.685 329.684,296.185 331.5,297.5C 333.69,295.476 336.023,293.643 338.5,292C 339.784,291.316 340.951,291.483 342,292.5C 342.832,301.186 342.665,309.853 341.5,318.5C 340.167,319.833 338.833,319.833 337.5,318.5C 336.671,313.533 336.171,308.533 336,303.5C 333,306.167 330,306.167 327,303.5C 326.829,308.533 326.329,313.533 325.5,318.5C 324.167,319.833 322.833,319.833 321.5,318.5C 320.197,309.441 320.197,300.441 321.5,291.5 Z"/></g>
<g><path style="opacity:0.852" fill="#000000" d="M 348.5,291.5 C 350.39,291.297 351.89,291.963 353,293.5C 353.5,300.158 353.666,306.825 353.5,313.5C 356.833,313.5 360.167,313.5 363.5,313.5C 363.739,315.467 363.406,317.301 362.5,319C 357.581,319.802 352.748,319.635 348,318.5C 347.196,309.422 347.363,300.422 348.5,291.5 Z"/></g>
<g><path style="opacity:0.889" fill="#000000" d="M 43.5,405.5 C 80.8348,405.333 118.168,405.5 155.5,406C 157.96,407.458 160.127,409.291 162,411.5C 163.152,426.911 163.652,442.411 163.5,458C 163.333,472.833 163.167,487.667 163,502.5C 161.5,506.667 158.667,509.5 154.5,511C 139.17,511.5 123.837,511.667 108.5,511.5C 108.5,513.167 108.5,514.833 108.5,516.5C 117.25,516.09 125.916,516.59 134.5,518C 139.942,521.316 142.109,526.149 141,532.5C 127.24,533.162 113.406,533.496 99.5,533.5C 85.5937,533.496 71.7603,533.162 58,532.5C 56.8909,526.149 59.0576,521.316 64.5,518C 73.0836,516.59 81.7502,516.09 90.5,516.5C 90.5,514.833 90.5,513.167 90.5,511.5C 75.163,511.667 59.8297,511.5 44.5,511C 40.3333,509.5 37.5,506.667 36,502.5C 35.3333,472.833 35.3333,443.167 36,413.5C 38.0282,410.308 40.5282,407.641 43.5,405.5 Z M 47.5,411.5 C 82.1683,411.333 116.835,411.5 151.5,412C 154.333,412.833 156.167,414.667 157,417.5C 157.5,441.164 157.667,464.831 157.5,488.5C 118.833,488.5 80.1667,488.5 41.5,488.5C 41.3334,464.831 41.5,441.164 42,417.5C 43.0209,414.65 44.8542,412.65 47.5,411.5 Z M 58.5,428.5 C 59.8333,428.5 61.1667,428.5 62.5,428.5C 62.5,431.833 62.5,435.167 62.5,438.5C 61.1667,438.5 59.8333,438.5 58.5,438.5C 58.5,435.167 58.5,431.833 58.5,428.5 Z M 80.5,428.5 C 82.1667,428.5 83.8333,428.5 85.5,428.5C 85.5,431.833 85.5,435.167 85.5,438.5C 83.8333,438.5 82.1667,438.5 80.5,438.5C 80.5,435.167 80.5,431.833 80.5,428.5 Z M 136.5,428.5 C 137.833,428.5 139.167,428.5 140.5,428.5C 140.5,431.833 140.5,435.167 140.5,438.5C 139.167,438.5 137.833,438.5 136.5,438.5C 136.5,435.167 136.5,431.833 136.5,428.5 Z M 58.5,461.5 C 59.8333,461.5 61.1667,461.5 62.5,461.5C 62.5,464.833 62.5,468.167 62.5,471.5C 61.1667,471.5 59.8333,471.5 58.5,471.5C 58.5,468.167 58.5,464.833 58.5,461.5 Z M 97.5,461.5 C 98.8333,461.5 100.167,461.5 101.5,461.5C 101.5,464.833 101.5,468.167 101.5,471.5C 100.167,471.5 98.8333,471.5 97.5,471.5C 97.5,468.167 97.5,464.833 97.5,461.5 Z M 136.5,461.5 C 137.833,461.5 139.167,461.5 140.5,461.5C 140.5,464.833 140.5,468.167 140.5,471.5C 139.167,471.5 137.833,471.5 136.5,471.5C 136.5,468.167 136.5,464.833 136.5,461.5 Z M 41.5,495.5 C 80.1667,495.5 118.833,495.5 157.5,495.5C 157.651,500.514 155.317,503.68 150.5,505C 116.5,505.667 82.5,505.667 48.5,505C 43.6826,503.68 41.3492,500.514 41.5,495.5 Z M 97.5,511.5 C 98.8333,511.5 100.167,511.5 101.5,511.5C 101.5,513.167 101.5,514.833 101.5,516.5C 100.167,516.5 98.8333,516.5 97.5,516.5C 97.5,514.833 97.5,513.167 97.5,511.5 Z M 71.5,522.5 C 90.1696,522.333 108.836,522.5 127.5,523C 129.997,523.412 131.997,524.578 133.5,526.5C 110.833,527.833 88.1667,527.833 65.5,526.5C 67.2187,524.648 69.2187,523.314 71.5,522.5 Z"/></g>
<g><path style="opacity:0.85" fill="#000000" d="M 241.5,405.5 C 280.406,405.17 319.239,405.504 358,406.5C 355.265,442.857 351.931,479.19 348,515.5C 347.692,516.308 347.192,516.975 346.5,517.5C 331.901,523.533 317.067,528.866 302,533.5C 284.833,528.722 267.999,523.055 251.5,516.5C 247.605,481.381 243.938,446.214 240.5,411C 240.581,409.076 240.914,407.243 241.5,405.5 Z M 247.5,411.5 C 282.167,411.5 316.833,411.5 351.5,411.5C 348.664,444.858 345.498,478.191 342,511.5C 328.877,517.211 315.543,522.544 302,527.5C 286.723,522.742 271.723,517.409 257,511.5C 253.502,478.191 250.336,444.857 247.5,411.5 Z"/></g>
<g><path style="opacity:0.884" fill="#000000" d="M 443.5,405.5 C 480.835,405.333 518.168,405.5 555.5,406C 559,407.5 561.5,410 563,413.5C 563.667,450.833 563.667,488.167 563,525.5C 561.5,529 559,531.5 555.5,533C 518.167,533.667 480.833,533.667 443.5,533C 440,531.5 437.5,529 436,525.5C 435.333,488.167 435.333,450.833 436,413.5C 437.69,409.979 440.19,407.312 443.5,405.5 Z M 446.5,411.5 C 481.835,411.333 517.168,411.5 552.5,412C 554.667,412.833 556.167,414.333 557,416.5C 557.498,419.817 557.665,423.15 557.5,426.5C 518.833,426.5 480.167,426.5 441.5,426.5C 441.335,423.15 441.502,419.817 442,416.5C 443.025,414.313 444.525,412.646 446.5,411.5 Z M 441.5,432.5 C 480.167,432.5 518.833,432.5 557.5,432.5C 557.985,463.254 557.485,493.921 556,524.5C 555.097,525.701 553.931,526.535 552.5,527C 517.167,527.667 481.833,527.667 446.5,527C 445.069,526.535 443.903,525.701 443,524.5C 441.515,493.921 441.015,463.254 441.5,432.5 Z"/></g>
<g><path style="opacity:0.651" fill="#000000" d="M 447.5,415.5 C 451.068,415.759 452.401,417.759 451.5,421.5C 445.541,422.222 444.207,420.222 447.5,415.5 Z"/></g>
<g><path style="opacity:0.669" fill="#000000" d="M 458.5,415.5 C 462.013,416.028 463.013,417.862 461.5,421C 458.763,422.08 457.096,421.246 456.5,418.5C 456.942,417.261 457.609,416.261 458.5,415.5 Z"/></g>
<g><path style="opacity:0.651" fill="#000000" d="M 468.5,415.5 C 472.485,415.629 473.818,417.463 472.5,421C 470.866,421.494 469.199,421.66 467.5,421.5C 467.325,419.379 467.659,417.379 468.5,415.5 Z"/></g>
<g><path style="opacity:0.826" fill="#000000" d="M 53.5,421.5 C 58.1785,421.334 62.8452,421.501 67.5,422C 68,422.5 68.5,423 69,423.5C 69.8112,430.414 69.6445,437.248 68.5,444C 63.1357,444.829 57.8023,444.663 52.5,443.5C 51.3718,436.884 51.2052,430.218 52,423.5C 52.7172,422.956 53.2172,422.289 53.5,421.5 Z M 58.5,428.5 C 58.5,431.833 58.5,435.167 58.5,438.5C 59.8333,438.5 61.1667,438.5 62.5,438.5C 62.5,435.167 62.5,431.833 62.5,428.5C 61.1667,428.5 59.8333,428.5 58.5,428.5 Z"/></g>
<g><path style="opacity:0.852" fill="#000000" d="M 76.5,421.5 C 80.8461,421.334 85.1794,421.501 89.5,422C 90,422.5 90.5,423 91,423.5C 91.8112,430.414 91.6445,437.248 90.5,444C 85.1357,444.829 79.8023,444.663 74.5,443.5C 73.374,437.218 73.2073,430.885 74,424.5C 74.6979,423.309 75.5313,422.309 76.5,421.5 Z M 80.5,428.5 C 80.5,431.833 80.5,435.167 80.5,438.5C 82.1667,438.5 83.8333,438.5 85.5,438.5C 85.5,435.167 85.5,431.833 85.5,428.5C 83.8333,428.5 82.1667,428.5 80.5,428.5 Z"/></g>
<g><path style="opacity:0.803" fill="#000000" d="M 103.5,421.5 C 105.39,421.297 106.89,421.963 108,423.5C 108.667,429.833 108.667,436.167 108,442.5C 106.507,444.56 104.674,444.893 102.5,443.5C 101.583,440.242 101.249,436.909 101.5,433.5C 98.7395,434.085 97.0728,433.085 96.5,430.5C 98.4425,427.221 100.776,424.221 103.5,421.5 Z"/></g>
<g><path style="opacity:0.766" fill="#000000" d="M 120.5,421.5 C 122.911,421.137 124.411,422.137 125,424.5C 125.667,430.5 125.667,436.5 125,442.5C 123.33,444.698 121.33,445.032 119,443.5C 118.502,440.183 118.335,436.85 118.5,433.5C 115.712,433.923 113.712,432.923 112.5,430.5C 114.504,426.834 117.171,423.834 120.5,421.5 Z"/></g>
<g><path style="opacity:0.826" fill="#000000" d="M 131.5,421.5 C 136.179,421.334 140.845,421.501 145.5,422C 146,422.5 146.5,423 147,423.5C 147.795,430.218 147.628,436.884 146.5,443.5C 140.946,444.806 135.446,444.806 130,443.5C 129.333,436.833 129.333,430.167 130,423.5C 130.717,422.956 131.217,422.289 131.5,421.5 Z M 136.5,428.5 C 136.5,431.833 136.5,435.167 136.5,438.5C 137.833,438.5 139.167,438.5 140.5,438.5C 140.5,435.167 140.5,431.833 140.5,428.5C 139.167,428.5 137.833,428.5 136.5,428.5 Z"/></g>
<g><path style="opacity:0.866" fill="#000000" d="M 263.5,431.5 C 275.414,431.179 287.247,431.512 299,432.5C 299.667,456.167 299.667,479.833 299,503.5C 298.107,504.081 297.107,504.415 296,504.5C 289.444,502.87 282.944,501.037 276.5,499C 273.747,493.075 272.747,486.908 273.5,480.5C 274.451,479.674 275.451,479.508 276.5,480C 278.845,484.19 280.512,488.69 281.5,493.5C 285.381,494.76 289.214,496.093 293,497.5C 293.5,477.503 293.667,457.503 293.5,437.5C 283.161,437.666 272.828,437.5 262.5,437C 261.243,434.924 261.576,433.09 263.5,431.5 Z"/></g>
<g><path style="opacity:0.848" fill="#000000" d="M 306.5,431.5 C 316.172,431.334 325.839,431.5 335.5,432C 336,432.5 336.5,433 337,433.5C 336.652,438.235 335.652,442.901 334,447.5C 330.889,449.272 329.056,448.439 328.5,445C 328.861,442.551 329.528,440.218 330.5,438C 323.842,437.5 317.175,437.334 310.5,437.5C 310.5,446.167 310.5,454.833 310.5,463.5C 317.175,463.334 323.842,463.5 330.5,464C 330.592,475.584 329.092,487.084 326,498.5C 319.442,501.578 312.609,503.412 305.5,504C 304.167,502.333 304.167,500.667 305.5,499C 310.35,497.162 315.183,495.328 320,493.5C 322.253,485.653 323.753,477.653 324.5,469.5C 317.91,469.811 311.41,469.478 305,468.5C 304.833,462.5 304.667,456.5 304.5,450.5C 304.542,443.927 305.208,437.594 306.5,431.5 Z"/></g>
<g><path style="opacity:0.827" fill="#000000" d="M 52.5,455.5 C 57.8746,455.172 63.2079,455.505 68.5,456.5C 69.6282,463.116 69.7948,469.782 69,476.5C 68.5,477 68,477.5 67.5,478C 62.8333,478.667 58.1667,478.667 53.5,478C 53,477.5 52.5,477 52,476.5C 51.2402,469.45 51.4069,462.45 52.5,455.5 Z M 58.5,461.5 C 58.5,464.833 58.5,468.167 58.5,471.5C 59.8333,471.5 61.1667,471.5 62.5,471.5C 62.5,468.167 62.5,464.833 62.5,461.5C 61.1667,461.5 59.8333,461.5 58.5,461.5 Z"/></g>
<g><path style="opacity:0.79" fill="#000000" d="M 80.5,455.5 C 82.7659,455.141 84.5993,455.808 86,457.5C 86.6667,463.5 86.6667,469.5 86,475.5C 84.5219,478.993 82.5219,479.326 80,476.5C 79.6667,473.167 79.3333,469.833 79,466.5C 76.5676,467.698 75.0676,466.864 74.5,464C 75.8857,460.773 77.8857,457.94 80.5,455.5 Z"/></g>
<g><path style="opacity:0.826" fill="#000000" d="M 91.5,455.5 C 96.8746,455.172 102.208,455.505 107.5,456.5C 108.628,463.116 108.795,469.782 108,476.5C 107.5,477 107,477.5 106.5,478C 101.833,478.667 97.1667,478.667 92.5,478C 92,477.5 91.5,477 91,476.5C 90.2402,469.45 90.4069,462.45 91.5,455.5 Z M 97.5,461.5 C 97.5,464.833 97.5,468.167 97.5,471.5C 98.8333,471.5 100.167,471.5 101.5,471.5C 101.5,468.167 101.5,464.833 101.5,461.5C 100.167,461.5 98.8333,461.5 97.5,461.5 Z"/></g>
<g><path style="opacity:0.79" fill="#000000" d="M 119.5,455.5 C 121.766,455.141 123.599,455.808 125,457.5C 125.667,463.5 125.667,469.5 125,475.5C 123.321,478.699 121.321,479.033 119,476.5C 118.667,473.167 118.333,469.833 118,466.5C 115.536,467.526 113.702,466.692 112.5,464C 114.668,461.002 117.001,458.169 119.5,455.5 Z"/></g>
<g><path style="opacity:0.827" fill="#000000" d="M 130.5,455.5 C 135.875,455.172 141.208,455.505 146.5,456.5C 147.628,463.116 147.795,469.782 147,476.5C 146.5,477 146,477.5 145.5,478C 140.833,478.667 136.167,478.667 131.5,478C 131,477.5 130.5,477 130,476.5C 129.24,469.45 129.407,462.45 130.5,455.5 Z M 136.5,461.5 C 136.5,464.833 136.5,468.167 136.5,471.5C 137.833,471.5 139.167,471.5 140.5,471.5C 140.5,468.167 140.5,464.833 140.5,461.5C 139.167,461.5 137.833,461.5 136.5,461.5 Z"/></g>
<g><path style="opacity:0.815" fill="#000000" d="M 457.5,458.5 C 458.873,458.343 460.207,458.51 461.5,459C 467.749,464.744 473.416,470.911 478.5,477.5C 473.167,484.833 466.833,491.167 459.5,496.5C 456.754,495.904 455.92,494.237 457,491.5C 461.682,486.985 466.182,482.319 470.5,477.5C 466.182,472.681 461.682,468.015 457,463.5C 456.36,461.735 456.527,460.068 457.5,458.5 Z"/></g>
<g><path style="opacity:0.856" fill="#000000" d="M 483.5,485.5 C 494.167,485.5 504.833,485.5 515.5,485.5C 515.739,487.467 515.406,489.301 514.5,491C 504.5,491.667 494.5,491.667 484.5,491C 483.594,489.301 483.261,487.467 483.5,485.5 Z"/></g>
</svg>
