<?xml version="1.0" encoding="UTF-8"?>
<!DOCTYPE svg PUBLIC "-//W3C//DTD SVG 1.1//EN" "http://www.w3.org/Graphics/SVG/1.1/DTD/svg11.dtd">
<svg xmlns="http://www.w3.org/2000/svg" version="1.1" width="756px" height="756px" style="shape-rendering:geometricPrecision; text-rendering:geometricPrecision; image-rendering:optimizeQuality; fill-rule:evenodd; clip-rule:evenodd" xmlns:xlink="http://www.w3.org/1999/xlink">
<g><path style="opacity:0.856" fill="#0071bc" d="M 755.5,350.5 C 755.5,368.833 755.5,387.167 755.5,405.5C 742.52,534.022 681.853,632.855 573.5,702C 521.482,732.618 465.482,750.451 405.5,755.5C 387.167,755.5 368.833,755.5 350.5,755.5C 221.978,742.52 123.144,681.853 54,573.5C -1.54619,477.26 -14.2129,375.594 16,268.5C 52.0529,157.557 123.22,78.0569 229.5,30C 304.297,-0.872225 381.297,-7.87222 460.5,9C 570.693,35.8992 653.86,98.3992 710,196.5C 736.033,244.754 751.2,296.087 755.5,350.5 Z M 368.5,7.5 C 502.994,8.65403 608.827,63.654 686,172.5C 748.885,271.232 763.885,376.898 731,489.5C 689.339,610.494 607.839,691.327 486.5,732C 359.027,767.039 243.693,743.706 140.5,662C 54.4942,587.301 10.1609,492.634 7.5,378C 11.4835,247.333 66.4835,144.666 172.5,70C 232.049,30.9834 297.383,10.15 368.5,7.5 Z M 408.5,153.5 C 437.965,182.465 467.299,211.632 496.5,241C 467.169,241.5 437.835,241.667 408.5,241.5C 408.5,212.167 408.5,182.833 408.5,153.5 Z M 498.5,430.5 C 531.403,428.201 556.57,440.868 574,468.5C 590.9,504.543 584.733,536.043 555.5,563C 524.5,585 493.5,585 462.5,563C 432.68,535.249 426.846,503.083 445,466.5C 457.733,446.886 475.566,434.886 498.5,430.5 Z"/></g>
<g><path style="opacity:0.948" fill="#0071bc" d="M 126.5,122.5 C 219.167,122.333 311.834,122.5 404.5,123C 445.667,164.167 486.833,205.333 528,246.5C 528.5,293.499 528.667,340.499 528.5,387.5C 522.5,387.5 516.5,387.5 510.5,387.5C 510.5,344.833 510.5,302.167 510.5,259.5C 470.5,259.5 430.5,259.5 390.5,259.5C 390.5,219.833 390.5,180.167 390.5,140.5C 308.5,140.5 226.5,140.5 144.5,140.5C 144.5,299.167 144.5,457.833 144.5,616.5C 243.833,616.5 343.167,616.5 442.5,616.5C 442.5,622.5 442.5,628.5 442.5,634.5C 337.167,634.5 231.833,634.5 126.5,634.5C 126.5,463.833 126.5,293.167 126.5,122.5 Z M 408.5,153.5 C 408.5,182.833 408.5,212.167 408.5,241.5C 437.835,241.667 467.169,241.5 496.5,241C 467.299,211.632 437.965,182.465 408.5,153.5 Z"/></g>
<g><path style="opacity:0.937" fill="#0071bc" d="M 217.5,241.5 C 247.835,241.333 278.168,241.5 308.5,242C 312.833,243.161 314.833,245.995 314.5,250.5C 314.833,255.005 312.833,257.839 308.5,259C 278.167,259.667 247.833,259.667 217.5,259C 209.555,253.17 209.555,247.336 217.5,241.5 Z"/></g>
<g><path style="opacity:0.945" fill="#0071bc" d="M 218.5,309.5 C 290.834,309.333 363.167,309.5 435.5,310C 442.548,312.649 444.381,317.483 441,324.5C 440.097,325.701 438.931,326.535 437.5,327C 363.833,327.667 290.167,327.667 216.5,327C 211.535,323.517 210.369,319.017 213,313.5C 214.5,311.531 216.333,310.198 218.5,309.5 Z"/></g>
<g><path style="opacity:0.944" fill="#0071bc" d="M 216.5,378.5 C 290.501,378.333 364.501,378.5 438.5,379C 443.833,384.333 443.833,389.667 438.5,395C 437.167,395.333 435.833,395.667 434.5,396C 362.833,396.667 291.167,396.667 219.5,396C 211.619,393.059 209.785,387.892 214,380.5C 214.995,379.934 215.828,379.267 216.5,378.5 Z"/></g>
<g><path style="opacity:0.934" fill="#0071bc" d="M 496.5,412.5 C 537.324,409.494 568.49,425.161 590,459.5C 608.433,497.624 604.599,533.291 578.5,566.5C 595.85,584.683 613.017,603.016 630,621.5C 631.833,631.667 627.667,635.833 617.5,634C 600.167,616 582.833,598 565.5,580C 561.757,580.538 558.424,582.204 555.5,585C 518.829,603.688 483.829,601.021 450.5,577C 414.097,542.532 406.93,502.699 429,457.5C 444.74,432.379 467.24,417.379 496.5,412.5 Z M 498.5,430.5 C 475.566,434.886 457.733,446.886 445,466.5C 426.846,503.083 432.68,535.249 462.5,563C 493.5,585 524.5,585 555.5,563C 584.733,536.043 590.9,504.543 574,468.5C 556.57,440.868 531.403,428.201 498.5,430.5 Z"/></g>
<g><path style="opacity:0.941" fill="#0071bc" d="M 216.5,446.5 C 267.501,446.333 318.501,446.5 369.5,447C 374.612,450.411 375.778,454.911 373,460.5C 371.681,462.487 369.848,463.654 367.5,464C 317.833,464.667 268.167,464.667 218.5,464C 211.778,461.003 210.111,456.17 213.5,449.5C 214.77,448.712 215.77,447.712 216.5,446.5 Z"/></g>
<g><path style="opacity:0.939" fill="#0071bc" d="M 217.5,514.5 C 259.168,514.333 300.835,514.5 342.5,515C 349.042,518.292 350.542,523.125 347,529.5C 346.097,530.701 344.931,531.535 343.5,532C 301.5,532.667 259.5,532.667 217.5,532C 209.555,526.17 209.555,520.336 217.5,514.5 Z"/></g>
</svg>
