<?xml version="1.0" encoding="UTF-8"?>
<!DOCTYPE svg PUBLIC "-//W3C//DTD SVG 1.1//EN" "http://www.w3.org/Graphics/SVG/1.1/DTD/svg11.dtd">
<svg xmlns="http://www.w3.org/2000/svg" version="1.1" width="1182px" height="722px" style="shape-rendering:geometricPrecision; text-rendering:geometricPrecision; image-rendering:optimizeQuality; fill-rule:evenodd; clip-rule:evenodd" xmlns:xlink="http://www.w3.org/1999/xlink">
<g><path style="opacity:0.878" fill="#000000" d="M 227.5,0.5 C 228.5,0.5 229.5,0.5 230.5,0.5C 230.5,10.5 230.5,20.5 230.5,30.5C 229.325,30.719 228.325,30.3857 227.5,29.5C 224.166,11.525 213.832,4.69168 196.5,9C 189.357,14.6662 188.69,20.9996 194.5,28C 203.674,34.4233 213.34,40.09 223.5,45C 239.496,57.2819 240.496,70.6152 226.5,85C 218.347,89.2887 209.681,90.6221 200.5,89C 196.291,87.3646 191.958,86.1979 187.5,85.5C 185.159,86.8978 182.825,88.2311 180.5,89.5C 180.5,79.8333 180.5,70.1667 180.5,60.5C 181.675,60.281 182.675,60.6143 183.5,61.5C 186.863,78.5268 197.197,85.6935 214.5,83C 227.635,74.5658 227.635,65.8991 214.5,57C 204.834,51.8357 195.5,46.1691 186.5,40C 177.167,29 177.167,18 186.5,7C 194.4,1.78806 203.067,0.121393 212.5,2C 216.013,3.17111 219.513,4.33778 223,5.5C 225.859,5.1436 227.359,3.47694 227.5,0.5 Z"/></g>
<g><path style="opacity:0.86" fill="#000000" d="M 474.5,1.5 C 481.692,0.944779 488.692,1.77811 495.5,4C 506.537,11.9826 508.037,21.4826 500,32.5C 496.434,35.6993 492.6,38.5326 488.5,41C 493.687,45.189 498.52,49.689 503,54.5C 509.391,65.217 508.224,75.0503 499.5,84C 489.228,90.4482 478.561,91.1148 467.5,86C 457.856,78.7398 455.356,69.5731 460,58.5C 463.833,53.3333 468.333,48.8333 473.5,45C 466.628,40.4174 461.794,34.2507 459,26.5C 457.457,13.8984 462.624,5.56509 474.5,1.5 Z M 479.5,5.5 C 492.711,6.56221 497.544,13.5622 494,26.5C 491.739,30.9295 488.572,34.5961 484.5,37.5C 479.554,34.057 475.054,30.057 471,25.5C 466.449,15.6089 469.282,8.94228 479.5,5.5 Z M 476.5,48.5 C 484.063,53.2245 490.563,59.2245 496,66.5C 498.827,77.8606 494.327,84.1939 482.5,85.5C 470.52,81.8854 466.02,73.8854 469,61.5C 470.497,56.5231 472.997,52.1897 476.5,48.5 Z"/></g>
<g><path style="opacity:0.906" fill="#000000" d="M 546.5,1.5 C 548.167,1.5 549.833,1.5 551.5,1.5C 551.333,27.8354 551.5,54.1688 552,80.5C 552.5,82.3333 553.667,83.5 555.5,84C 557.81,84.4966 560.143,84.6633 562.5,84.5C 562.5,85.5 562.5,86.5 562.5,87.5C 551.5,87.5 540.5,87.5 529.5,87.5C 529.5,86.5 529.5,85.5 529.5,84.5C 531.857,84.6633 534.19,84.4966 536.5,84C 538.333,83.5 539.5,82.3333 540,80.5C 540.167,70 540.333,59.5 540.5,49C 540.624,37.1126 540.124,25.2792 539,13.5C 535.565,12.5342 532.065,12.5342 528.5,13.5C 528.281,12.325 528.614,11.325 529.5,10.5C 535.387,7.72573 541.053,4.72573 546.5,1.5 Z"/></g>
<g><path style="opacity:0.874" fill="#000000" d="M 726.5,1.5 C 744.39,-1.08149 754.723,6.41851 757.5,24C 756.979,33.2054 753.813,41.3721 748,48.5C 739.901,58.6019 731.068,68.1019 721.5,77C 731.5,77.6667 741.5,77.6667 751.5,77C 754.925,75.96 757.592,73.96 759.5,71C 760.448,70.5172 761.448,70.3505 762.5,70.5C 761.032,76.2368 759.365,81.9034 757.5,87.5C 740.5,87.5 723.5,87.5 706.5,87.5C 706.238,86.0222 706.571,84.6888 707.5,83.5C 719.258,73.245 729.758,61.9117 739,49.5C 745.424,40.6239 747.091,30.9573 744,20.5C 734.874,8.93524 725.207,8.60191 715,19.5C 714.167,21.1667 713.333,22.8333 712.5,24.5C 711.167,25.8333 709.833,25.8333 708.5,24.5C 710.088,13.2592 716.088,5.59255 726.5,1.5 Z"/></g>
<g><path style="opacity:0.866" fill="#000000" d="M 939.5,1.5 C 943.5,1.5 947.5,1.5 951.5,1.5C 951.5,2.5 951.5,3.5 951.5,4.5C 935.691,6.45912 924.525,14.7925 918,29.5C 916.682,32.4302 916.015,35.4302 916,38.5C 930.306,30.1613 941.972,32.828 951,46.5C 955.813,60.7464 952.98,73.2464 942.5,84C 924.173,94.2065 910.673,89.7065 902,70.5C 895.181,36.7942 907.681,13.7942 939.5,1.5 Z M 922.5,40.5 C 932.277,40.1004 938.11,44.7671 940,54.5C 942.685,63.6587 941.685,72.3254 937,80.5C 928.002,87.0857 921.002,85.419 916,75.5C 912.717,66.4332 911.717,57.0999 913,47.5C 913.465,46.0692 914.299,44.9025 915.5,44C 917.925,42.7874 920.259,41.6207 922.5,40.5 Z"/></g>
<g><path style="opacity:0.87" fill="#000000" d="M 1003.5,1.5 C 1007.5,1.5 1011.5,1.5 1015.5,1.5C 1015.5,2.5 1015.5,3.5 1015.5,4.5C 996.015,7.31027 983.682,18.3103 978.5,37.5C 978.833,37.8333 979.167,38.1667 979.5,38.5C 996.57,29.4674 1008.74,33.8007 1016,51.5C 1018.85,67.9684 1013.01,80.135 998.5,88C 983.011,91.6723 972.178,86.1723 966,71.5C 958.463,44.4061 966.296,22.9061 989.5,7C 994.159,4.84209 998.825,3.00876 1003.5,1.5 Z M 985.5,40.5 C 996.477,40.6341 1002.64,46.3008 1004,57.5C 1005.33,65.1999 1004.33,72.5332 1001,79.5C 994.029,86.3813 987.362,86.048 981,78.5C 975.542,68.0101 974.209,57.0101 977,45.5C 979.682,43.415 982.516,41.7483 985.5,40.5 Z"/></g>
<g><path style="opacity:0.883" fill="#000000" d="M 1100.5,1.5 C 1111.76,0.381506 1120.26,4.71484 1126,14.5C 1128.99,19.8109 1130.99,25.4775 1132,31.5C 1133.35,44.385 1132.35,57.0516 1129,69.5C 1124.94,81.2719 1116.77,87.9385 1104.5,89.5C 1095.75,88.5955 1089.25,84.2622 1085,76.5C 1075,55.8333 1075,35.1667 1085,14.5C 1088.87,8.45181 1094.04,4.11848 1100.5,1.5 Z M 1102.5,6.5 C 1109.2,6.00564 1113.7,9.00564 1116,15.5C 1118.88,24.7741 1120.05,34.2741 1119.5,44C 1120.01,54.3709 1118.84,64.5376 1116,74.5C 1113.32,82.2354 1108.15,85.0688 1100.5,83C 1095.35,77.5744 1092.52,71.0744 1092,63.5C 1089.95,48.3921 1090.62,33.3921 1094,18.5C 1095.15,13.2041 1097.98,9.20411 1102.5,6.5 Z"/></g>
<g><path style="opacity:0.885" fill="#000000" d="M 132.5,2.5 C 144.833,2.5 157.167,2.5 169.5,2.5C 169.5,3.83333 169.5,5.16667 169.5,6.5C 166.813,6.33591 164.146,6.50258 161.5,7C 159.667,7.5 158.5,8.66667 158,10.5C 157.333,33.8333 157.333,57.1667 158,80.5C 160.997,83.967 164.831,85.3003 169.5,84.5C 169.5,85.5 169.5,86.5 169.5,87.5C 157.167,87.5 144.833,87.5 132.5,87.5C 132.5,86.5 132.5,85.5 132.5,84.5C 136.516,85.1001 140.016,84.1001 143,81.5C 144.126,69.3871 144.626,57.2204 144.5,45C 144.333,34.1667 144.167,23.3333 144,12.5C 142.026,7.2601 138.192,5.2601 132.5,6.5C 132.5,5.16667 132.5,3.83333 132.5,2.5 Z"/></g>
<g><path style="opacity:0.89" fill="#000000" d="M 244.5,2.5 C 258.504,2.33343 272.504,2.50009 286.5,3C 294.352,3.12959 301.686,5.12959 308.5,9C 317.23,17.3797 318.73,26.8797 313,37.5C 310.603,40.4 307.77,42.7333 304.5,44.5C 319.947,50.6638 324.113,61.3304 317,76.5C 313.586,81.2525 309.086,84.4191 303.5,86C 283.88,87.4376 264.213,87.9376 244.5,87.5C 244.5,86.5 244.5,85.5 244.5,84.5C 246.857,84.6633 249.19,84.4966 251.5,84C 253.333,83.5 254.5,82.3333 255,80.5C 256.124,68.8876 256.624,57.2209 256.5,45.5C 256.613,33.4544 256.113,21.4544 255,9.5C 252.016,6.89995 248.516,5.89995 244.5,6.5C 244.5,5.16667 244.5,3.83333 244.5,2.5 Z M 270.5,8.5 C 276.509,8.33385 282.509,8.50051 288.5,9C 301.461,13.4194 305.294,21.9194 300,34.5C 296.984,38.0917 293.151,40.2584 288.5,41C 282.5,41.6667 276.5,41.6667 270.5,41C 269.177,30.1668 269.177,19.3334 270.5,8.5 Z M 272.5,46.5 C 280.404,46.1508 288.071,47.3174 295.5,50C 305.472,56.5727 307.639,65.0727 302,75.5C 296.554,80.6568 290.054,82.9901 282.5,82.5C 278.156,82.2136 273.823,81.8802 269.5,81.5C 269.5,70.1667 269.5,58.8333 269.5,47.5C 270.791,47.7373 271.791,47.404 272.5,46.5 Z"/></g>
<g><path style="opacity:0.86" fill="#000000" d="M 324.5,2.5 C 332.507,2.33362 340.507,2.50029 348.5,3C 365.12,23.0748 381.62,43.2415 398,63.5C 398.667,45.8333 398.667,28.1667 398,10.5C 397.5,8.66667 396.333,7.5 394.5,7C 392.19,6.50335 389.857,6.33669 387.5,6.5C 387.5,5.16667 387.5,3.83333 387.5,2.5C 397.5,2.5 407.5,2.5 417.5,2.5C 417.5,3.83333 417.5,5.16667 417.5,6.5C 412.258,5.27055 408.425,6.93722 406,11.5C 405.5,37.4979 405.333,63.4979 405.5,89.5C 402.386,88.9087 399.886,87.242 398,84.5C 381.333,63.8333 364.667,43.1667 348,22.5C 347.076,42.2046 347.41,61.8712 349,81.5C 351.984,84.1001 355.484,85.1001 359.5,84.5C 359.5,85.5 359.5,86.5 359.5,87.5C 349.5,87.5 339.5,87.5 329.5,87.5C 329.5,86.5 329.5,85.5 329.5,84.5C 335.192,85.7399 339.026,83.7399 341,78.5C 341.667,57.1667 341.667,35.8333 341,14.5C 336.968,8.7334 331.468,6.06674 324.5,6.5C 324.5,5.16667 324.5,3.83333 324.5,2.5 Z"/></g>
<g><path style="opacity:0.854" fill="#000000" d="M 589.5,2.5 C 604.833,2.5 620.167,2.5 635.5,2.5C 627.051,31.3491 617.884,60.0157 608,88.5C 605.205,89.7825 602.372,89.7825 599.5,88.5C 607.833,63.8333 616.167,39.1667 624.5,14.5C 614.144,13.1954 603.81,13.3621 593.5,15C 589.66,17.6744 586.327,20.8411 583.5,24.5C 582.5,24.1667 581.833,23.5 581.5,22.5C 584.182,15.8077 586.849,9.14103 589.5,2.5 Z"/></g>
<g><path style="opacity:0.859" fill="#000000" d="M 665.5,2.5 C 675.855,2.16805 686.188,2.50138 696.5,3.5C 694.833,6.83333 693.167,10.1667 691.5,13.5C 682.833,14.1667 674.167,14.8333 665.5,15.5C 664.167,18.1667 662.833,20.8333 661.5,23.5C 667.49,25.6843 673.49,28.1843 679.5,31C 695.815,42.9553 698.982,57.7887 689,75.5C 678.34,88.0543 665.173,91.8877 649.5,87C 646.571,84.0899 645.905,80.7566 647.5,77C 649.365,75.6986 651.365,75.3653 653.5,76C 658.246,78.7054 663.246,80.8721 668.5,82.5C 682.996,78.8403 688.163,69.8403 684,55.5C 676.612,42.0493 665.112,35.716 649.5,36.5C 654.284,24.9315 659.617,13.5982 665.5,2.5 Z"/></g>
<g><path style="opacity:0.859" fill="#000000" d="M 791.5,2.5 C 802.172,2.3335 812.839,2.50016 823.5,3C 821.933,6.52549 820.267,10.0255 818.5,13.5C 809.833,14.1667 801.167,14.8333 792.5,15.5C 791.167,18.1667 789.833,20.8333 788.5,23.5C 799.168,26.0896 808.335,31.4229 816,39.5C 825.242,55.9831 822.742,70.4831 808.5,83C 798.416,89.5548 787.749,90.8882 776.5,87C 773.651,84.4406 772.817,81.2739 774,77.5C 775.313,76.4272 776.813,75.7605 778.5,75.5C 783.961,78.2849 789.628,80.6183 795.5,82.5C 809.996,78.8403 815.163,69.8403 811,55.5C 807.37,47.2054 801.203,41.7054 792.5,39C 786.893,37.6765 781.226,36.6765 775.5,36C 781.51,25.1268 786.843,13.9601 791.5,2.5 Z"/></g>
<g><path style="opacity:0.855" fill="#000000" d="M 843.5,2.5 C 858.833,2.5 874.167,2.5 889.5,2.5C 880.846,30.9635 871.679,59.2968 862,87.5C 859.544,89.3213 856.711,89.988 853.5,89.5C 861.333,64.1679 869.666,39.0012 878.5,14C 868.127,13.1961 857.793,13.5295 847.5,15C 843.363,16.6367 840.363,19.47 838.5,23.5C 837.675,24.3857 836.675,24.719 835.5,24.5C 837.569,16.9613 840.235,9.628 843.5,2.5 Z"/></g>
<g><path style="opacity:0.829" fill="#000000" d="M 1030.5,53.5 C 1041.5,53.5 1052.5,53.5 1063.5,53.5C 1063.5,57.1667 1063.5,60.8333 1063.5,64.5C 1052.5,64.5 1041.5,64.5 1030.5,64.5C 1030.5,60.8333 1030.5,57.1667 1030.5,53.5 Z"/></g>
<g><path style="opacity:0.96" fill="#000000" d="M 85.5,156.5 C 89.5,156.5 93.5,156.5 97.5,156.5C 97.5,329.833 97.5,503.167 97.5,676.5C 93.5,676.5 89.5,676.5 85.5,676.5C 85.5,503.167 85.5,329.833 85.5,156.5 Z"/></g>
<g><path style="opacity:0.96" fill="#000000" d="M 108.5,156.5 C 112.5,156.5 116.5,156.5 120.5,156.5C 120.5,329.833 120.5,503.167 120.5,676.5C 116.5,676.5 112.5,676.5 108.5,676.5C 108.5,503.167 108.5,329.833 108.5,156.5 Z"/></g>
<g><path style="opacity:0.987" fill="#000000" d="M 131.5,156.5 C 144.167,156.5 156.833,156.5 169.5,156.5C 169.5,302.833 169.5,449.167 169.5,595.5C 156.833,595.5 144.167,595.5 131.5,595.5C 131.5,449.167 131.5,302.833 131.5,156.5 Z"/></g>
<g><path style="opacity:0.96" fill="#000000" d="M 177.5,156.5 C 185.5,156.5 193.5,156.5 201.5,156.5C 201.5,302.833 201.5,449.167 201.5,595.5C 193.5,595.5 185.5,595.5 177.5,595.5C 177.5,449.167 177.5,302.833 177.5,156.5 Z"/></g>
<g><path style="opacity:0.886" fill="#000000" d="M 234.5,156.5 C 238.833,156.5 243.167,156.5 247.5,156.5C 247.5,302.833 247.5,449.167 247.5,595.5C 243.167,595.5 238.833,595.5 234.5,595.5C 234.5,449.167 234.5,302.833 234.5,156.5 Z"/></g>
<g><path style="opacity:0.886" fill="#000000" d="M 269.5,156.5 C 273.833,156.5 278.167,156.5 282.5,156.5C 282.5,302.833 282.5,449.167 282.5,595.5C 278.167,595.5 273.833,595.5 269.5,595.5C 269.5,449.167 269.5,302.833 269.5,156.5 Z"/></g>
<g><path style="opacity:0.886" fill="#000000" d="M 315.5,156.5 C 319.833,156.5 324.167,156.5 328.5,156.5C 328.5,302.833 328.5,449.167 328.5,595.5C 324.167,595.5 319.833,595.5 315.5,595.5C 315.5,449.167 315.5,302.833 315.5,156.5 Z"/></g>
<g><path style="opacity:0.96" fill="#000000" d="M 350.5,156.5 C 354.5,156.5 358.5,156.5 362.5,156.5C 362.5,302.833 362.5,449.167 362.5,595.5C 358.5,595.5 354.5,595.5 350.5,595.5C 350.5,449.167 350.5,302.833 350.5,156.5 Z"/></g>
<g><path style="opacity:0.96" fill="#000000" d="M 384.5,156.5 C 392.5,156.5 400.5,156.5 408.5,156.5C 408.5,302.833 408.5,449.167 408.5,595.5C 400.5,595.5 392.5,595.5 384.5,595.5C 384.5,449.167 384.5,302.833 384.5,156.5 Z"/></g>
<g><path style="opacity:0.96" fill="#000000" d="M 431.5,156.5 C 435.5,156.5 439.5,156.5 443.5,156.5C 443.5,302.833 443.5,449.167 443.5,595.5C 439.5,595.5 435.5,595.5 431.5,595.5C 431.5,449.167 431.5,302.833 431.5,156.5 Z"/></g>
<g><path style="opacity:0.886" fill="#000000" d="M 465.5,156.5 C 469.833,156.5 474.167,156.5 478.5,156.5C 478.5,302.833 478.5,449.167 478.5,595.5C 474.167,595.5 469.833,595.5 465.5,595.5C 465.5,449.167 465.5,302.833 465.5,156.5 Z"/></g>
<g><path style="opacity:0.886" fill="#000000" d="M 511.5,156.5 C 515.833,156.5 520.167,156.5 524.5,156.5C 524.5,302.833 524.5,449.167 524.5,595.5C 520.167,595.5 515.833,595.5 511.5,595.5C 511.5,449.167 511.5,302.833 511.5,156.5 Z"/></g>
<g><path style="opacity:0.96" fill="#000000" d="M 534.5,156.5 C 542.5,156.5 550.5,156.5 558.5,156.5C 558.5,302.833 558.5,449.167 558.5,595.5C 550.5,595.5 542.5,595.5 534.5,595.5C 534.5,449.167 534.5,302.833 534.5,156.5 Z"/></g>
<g><path style="opacity:0.96" fill="#000000" d="M 592.5,156.5 C 596.5,156.5 600.5,156.5 604.5,156.5C 604.5,302.833 604.5,449.167 604.5,595.5C 600.5,595.5 596.5,595.5 592.5,595.5C 592.5,449.167 592.5,302.833 592.5,156.5 Z"/></g>
<g><path style="opacity:0.886" fill="#000000" d="M 615.5,156.5 C 619.833,156.5 624.167,156.5 628.5,156.5C 628.5,329.833 628.5,503.167 628.5,676.5C 624.167,676.5 619.833,676.5 615.5,676.5C 615.5,503.167 615.5,329.833 615.5,156.5 Z"/></g>
<g><path style="opacity:0.886" fill="#000000" d="M 638.5,156.5 C 642.833,156.5 647.167,156.5 651.5,156.5C 651.5,329.833 651.5,503.167 651.5,676.5C 647.167,676.5 642.833,676.5 638.5,676.5C 638.5,503.167 638.5,329.833 638.5,156.5 Z"/></g>
<g><path style="opacity:0.96" fill="#000000" d="M 661.5,156.5 C 669.5,156.5 677.5,156.5 685.5,156.5C 685.5,302.833 685.5,449.167 685.5,595.5C 677.5,595.5 669.5,595.5 661.5,595.5C 661.5,449.167 661.5,302.833 661.5,156.5 Z"/></g>
<g><path style="opacity:0.96" fill="#000000" d="M 696.5,156.5 C 704.5,156.5 712.5,156.5 720.5,156.5C 720.5,302.833 720.5,449.167 720.5,595.5C 712.5,595.5 704.5,595.5 696.5,595.5C 696.5,449.167 696.5,302.833 696.5,156.5 Z"/></g>
<g><path style="opacity:0.96" fill="#000000" d="M 742.5,156.5 C 746.5,156.5 750.5,156.5 754.5,156.5C 754.5,302.833 754.5,449.167 754.5,595.5C 750.5,595.5 746.5,595.5 742.5,595.5C 742.5,449.167 742.5,302.833 742.5,156.5 Z"/></g>
<g><path style="opacity:0.96" fill="#000000" d="M 776.5,156.5 C 788.5,156.5 800.5,156.5 812.5,156.5C 812.5,302.833 812.5,449.167 812.5,595.5C 800.5,595.5 788.5,595.5 776.5,595.5C 776.5,449.167 776.5,302.833 776.5,156.5 Z"/></g>
<g><path style="opacity:0.96" fill="#000000" d="M 823.5,156.5 C 827.5,156.5 831.5,156.5 835.5,156.5C 835.5,302.833 835.5,449.167 835.5,595.5C 831.5,595.5 827.5,595.5 823.5,595.5C 823.5,449.167 823.5,302.833 823.5,156.5 Z"/></g>
<g><path style="opacity:0.96" fill="#000000" d="M 869.5,156.5 C 873.5,156.5 877.5,156.5 881.5,156.5C 881.5,302.833 881.5,449.167 881.5,595.5C 877.5,595.5 873.5,595.5 869.5,595.5C 869.5,449.167 869.5,302.833 869.5,156.5 Z"/></g>
<g><path style="opacity:0.886" fill="#000000" d="M 903.5,156.5 C 907.833,156.5 912.167,156.5 916.5,156.5C 916.5,302.833 916.5,449.167 916.5,595.5C 912.167,595.5 907.833,595.5 903.5,595.5C 903.5,449.167 903.5,302.833 903.5,156.5 Z"/></g>
<g><path style="opacity:0.886" fill="#000000" d="M 926.5,156.5 C 930.833,156.5 935.167,156.5 939.5,156.5C 939.5,302.833 939.5,449.167 939.5,595.5C 935.167,595.5 930.833,595.5 926.5,595.5C 926.5,449.167 926.5,302.833 926.5,156.5 Z"/></g>
<g><path style="opacity:0.886" fill="#000000" d="M 984.5,156.5 C 988.833,156.5 993.167,156.5 997.5,156.5C 997.5,302.833 997.5,449.167 997.5,595.5C 993.167,595.5 988.833,595.5 984.5,595.5C 984.5,449.167 984.5,302.833 984.5,156.5 Z"/></g>
<g><path style="opacity:0.886" fill="#000000" d="M 1007.5,156.5 C 1011.83,156.5 1016.17,156.5 1020.5,156.5C 1020.5,302.833 1020.5,449.167 1020.5,595.5C 1016.17,595.5 1011.83,595.5 1007.5,595.5C 1007.5,449.167 1007.5,302.833 1007.5,156.5 Z"/></g>
<g><path style="opacity:0.96" fill="#000000" d="M 1065.5,156.5 C 1069.5,156.5 1073.5,156.5 1077.5,156.5C 1077.5,302.833 1077.5,449.167 1077.5,595.5C 1073.5,595.5 1069.5,595.5 1065.5,595.5C 1065.5,449.167 1065.5,302.833 1065.5,156.5 Z"/></g>
<g><path style="opacity:0.96" fill="#000000" d="M 1099.5,156.5 C 1111.5,156.5 1123.5,156.5 1135.5,156.5C 1135.5,302.833 1135.5,449.167 1135.5,595.5C 1123.5,595.5 1111.5,595.5 1099.5,595.5C 1099.5,449.167 1099.5,302.833 1099.5,156.5 Z"/></g>
<g><path style="opacity:0.886" fill="#000000" d="M 1145.5,156.5 C 1149.83,156.5 1154.17,156.5 1158.5,156.5C 1158.5,329.833 1158.5,503.167 1158.5,676.5C 1154.17,676.5 1149.83,676.5 1145.5,676.5C 1145.5,503.167 1145.5,329.833 1145.5,156.5 Z"/></g>
<g><path style="opacity:0.96" fill="#000000" d="M 1181.5,156.5 C 1181.5,329.833 1181.5,503.167 1181.5,676.5C 1177.5,676.5 1173.5,676.5 1169.5,676.5C 1169.5,503.167 1169.5,329.833 1169.5,156.5C 1173.5,156.5 1177.5,156.5 1181.5,156.5 Z"/></g>
<g><path style="opacity:0.891" fill="#000000" d="M 19.5,641.5 C 44.0859,639.023 55.2526,650.023 53,674.5C 46.4617,692.049 36.2951,707.216 22.5,720C 17.5,720.667 12.5,720.667 7.5,720C 16.4241,711.914 24.4241,703.081 31.5,693.5C 19.2047,693.604 9.70468,688.604 3,678.5C -2.32138,661.154 3.17862,648.821 19.5,641.5 Z M 22.5,651.5 C 37.4263,650.655 43.5929,657.655 41,672.5C 36.241,681.419 29.0744,683.919 19.5,680C 11.7494,673.164 10.5827,665.331 16,656.5C 17.9651,654.45 20.1318,652.783 22.5,651.5 Z"/></g>
<g><path style="opacity:0.892" fill="#000000" d="M 260.5,721.5 C 255.833,721.5 251.167,721.5 246.5,721.5C 232.124,717.779 225.957,708.445 228,693.5C 228.806,690.554 230.139,687.888 232,685.5C 235.5,682.667 239,679.833 242.5,677C 232.719,670.942 229.552,662.442 233,651.5C 238.14,644.431 245.14,641.098 254,641.5C 273.62,642.089 279.953,651.422 273,669.5C 270.463,672.372 267.63,674.872 264.5,677C 279.761,685.117 283.594,696.95 276,712.5C 271.726,717.215 266.559,720.215 260.5,721.5 Z M 251.5,650.5 C 255.346,650.545 259.013,651.378 262.5,653C 266.32,656.955 266.487,661.122 263,665.5C 253.518,673.708 246.684,671.708 242.5,659.5C 242.437,657.519 243.104,655.852 244.5,654.5C 246.765,652.873 249.099,651.539 251.5,650.5 Z M 251.5,683.5 C 260.379,685.437 266.046,690.77 268.5,699.5C 265.91,709.221 259.577,713.054 249.5,711C 240.064,707.958 237.231,701.792 241,692.5C 244.665,689.601 248.165,686.601 251.5,683.5 Z"/></g>
<g><path style="opacity:0.892" fill="#000000" d="M 332.5,721.5 C 327.833,721.5 323.167,721.5 318.5,721.5C 303.624,718.112 297.458,708.779 300,693.5C 302.689,686.143 307.522,680.643 314.5,677C 310.667,674.5 307.5,671.333 305,667.5C 301.136,650.344 308.136,641.678 326,641.5C 344.179,641.652 350.846,650.319 346,667.5C 343.5,671.333 340.333,674.5 336.5,677C 351.362,685.252 355.195,697.085 348,712.5C 343.726,717.215 338.559,720.215 332.5,721.5 Z M 323.5,650.5 C 328.18,650.375 332.346,651.709 336,654.5C 337.894,658.849 337.227,662.849 334,666.5C 331.414,668.545 328.58,670.211 325.5,671.5C 319.874,669.378 316.208,665.545 314.5,660C 314.542,658.033 315.042,656.199 316,654.5C 318.255,652.501 320.755,651.168 323.5,650.5 Z M 323.5,683.5 C 329.898,685.393 335.065,689.06 339,694.5C 340.56,707.51 334.727,713.01 321.5,711C 312.086,708 309.253,701.833 313,692.5C 316.665,689.601 320.165,686.601 323.5,683.5 Z"/></g>
<g><path style="opacity:0.902" fill="#000000" d="M 715.5,641.5 C 724.031,640.43 732.031,641.93 739.5,646C 747.346,654.633 748.513,664.133 743,674.5C 733.958,682.545 724.624,690.211 715,697.5C 712.192,701.355 710.692,705.688 710.5,710.5C 722.167,710.5 733.833,710.5 745.5,710.5C 745.5,713.833 745.5,717.167 745.5,720.5C 729.833,720.5 714.167,720.5 698.5,720.5C 695.65,705.369 700.316,693.202 712.5,684C 718.779,680.054 724.779,675.721 730.5,671C 736.916,662.48 735.25,656.147 725.5,652C 716.531,652.154 708.198,654.654 700.5,659.5C 699.34,655.541 699.173,651.541 700,647.5C 705.002,644.782 710.168,642.782 715.5,641.5 Z"/></g>
<g><path style="opacity:0.903" fill="#000000" d="M 155.5,642.5 C 172.5,642.5 189.5,642.5 206.5,642.5C 206.881,648.974 205.381,654.974 202,660.5C 193.776,669.282 186.776,678.949 181,689.5C 178.678,699.685 177.512,710.019 177.5,720.5C 173.833,720.5 170.167,720.5 166.5,720.5C 164.185,701.083 169.019,683.75 181,668.5C 185.546,663.623 189.713,658.456 193.5,653C 180.838,652.5 168.171,652.333 155.5,652.5C 155.5,649.167 155.5,645.833 155.5,642.5 Z"/></g>
<g><path style="opacity:0.914" fill="#000000" d="M 393.5,642.5 C 397.833,642.5 402.167,642.5 406.5,642.5C 406.5,668.5 406.5,694.5 406.5,720.5C 402.833,720.5 399.167,720.5 395.5,720.5C 395.667,698.831 395.5,677.164 395,655.5C 389,660.833 383,666.167 377,671.5C 376.333,666.833 376.333,662.167 377,657.5C 382.695,652.634 388.195,647.634 393.5,642.5 Z"/></g>
<g><path style="opacity:0.909" fill="#000000" d="M 443.5,642.5 C 460.5,642.5 477.5,642.5 494.5,642.5C 494.206,647.261 493.373,651.928 492,656.5C 486.382,664.453 480.382,672.12 474,679.5C 469.358,686.091 466.691,693.424 466,701.5C 465.5,707.825 465.334,714.158 465.5,720.5C 461.833,720.5 458.167,720.5 454.5,720.5C 452.224,703.465 455.724,687.799 465,673.5C 470.358,666.976 475.525,660.31 480.5,653.5C 468.185,652.501 455.851,652.168 443.5,652.5C 443.5,649.167 443.5,645.833 443.5,642.5 Z"/></g>
<g><path style="opacity:0.898" fill="#000000" d="M 521.5,721.5 C 520.5,721.5 519.5,721.5 518.5,721.5C 518.5,717.833 518.5,714.167 518.5,710.5C 528.012,711.027 537.012,709.194 545.5,705C 552.011,698.749 553.177,691.582 549,683.5C 544.569,679.221 539.236,677.221 533,677.5C 528.441,677.846 523.941,678.512 519.5,679.5C 520.557,667.194 521.224,654.861 521.5,642.5C 534.833,642.5 548.167,642.5 561.5,642.5C 561.5,645.833 561.5,649.167 561.5,652.5C 551.5,652.5 541.5,652.5 531.5,652.5C 531.5,657.5 531.5,662.5 531.5,667.5C 539.684,667.262 547.351,669.096 554.5,673C 566.924,687.246 566.257,700.913 552.5,714C 542.615,718.861 532.281,721.361 521.5,721.5 Z"/></g>
<g><path style="opacity:0.904" fill="#000000" d="M 774.5,721.5 C 773.5,721.5 772.5,721.5 771.5,721.5C 771.5,717.833 771.5,714.167 771.5,710.5C 780.199,710.939 788.532,709.439 796.5,706C 807.412,696.504 807.078,687.504 795.5,679C 787.786,677.004 780.12,677.171 772.5,679.5C 772.854,667.146 773.521,654.812 774.5,642.5C 787.5,642.5 800.5,642.5 813.5,642.5C 813.5,645.833 813.5,649.167 813.5,652.5C 803.833,652.5 794.167,652.5 784.5,652.5C 784.084,657.493 783.751,662.493 783.5,667.5C 791.172,667.39 798.506,668.89 805.5,672C 814.087,678.829 817.254,687.662 815,698.5C 811.981,710.183 804.481,717.016 792.5,719C 786.366,719.912 780.366,720.745 774.5,721.5 Z"/></g>
<g><path style="opacity:0.907" fill="#000000" d="M 839.5,642.5 C 856.5,642.5 873.5,642.5 890.5,642.5C 890.911,648.189 889.744,653.522 887,658.5C 881.667,665.167 876.333,671.833 871,678.5C 863.173,691.357 860.007,705.357 861.5,720.5C 857.833,720.5 854.167,720.5 850.5,720.5C 848.489,703.034 852.323,687.034 862,672.5C 867.287,666.091 872.454,659.591 877.5,653C 864.838,652.5 852.171,652.333 839.5,652.5C 839.5,649.167 839.5,645.833 839.5,642.5 Z"/></g>
<g><path style="opacity:0.893" fill="#000000" d="M 943.5,721.5 C 939.5,721.5 935.5,721.5 931.5,721.5C 914.871,715.22 908.704,703.22 913,685.5C 916.929,673.919 922.929,663.585 931,654.5C 934.869,650.966 938.369,647.133 941.5,643C 946.5,642.333 951.5,642.333 956.5,643C 948.273,651.39 940.607,660.223 933.5,669.5C 951.609,668.79 961.942,677.29 964.5,695C 963.519,708.795 956.519,717.628 943.5,721.5 Z M 935.5,680.5 C 951.153,682.467 955.987,690.801 950,705.5C 942,713.5 934,713.5 926,705.5C 920.335,693.532 923.501,685.199 935.5,680.5 Z"/></g>
<g><path style="opacity:0.894" fill="#000000" d="M 1015.5,721.5 C 1011.5,721.5 1007.5,721.5 1003.5,721.5C 986.28,715.061 980.113,702.728 985,684.5C 991.707,668.786 1001.21,654.952 1013.5,643C 1018.5,642.333 1023.5,642.333 1028.5,643C 1020.01,651.179 1012.34,660.013 1005.5,669.5C 1027.6,669.761 1037.44,680.761 1035,702.5C 1031.89,712.447 1025.39,718.781 1015.5,721.5 Z M 1007.5,680.5 C 1018.16,680.334 1023.83,685.5 1024.5,696C 1024.11,705.555 1019.11,710.721 1009.5,711.5C 996.351,708.233 992.184,700.233 997,687.5C 999.701,683.748 1003.2,681.415 1007.5,680.5 Z"/></g>
<g><path style="opacity:0.896" fill="#000000" d="M 1062.5,721.5 C 1061.17,721.5 1059.83,721.5 1058.5,721.5C 1058.5,717.833 1058.5,714.167 1058.5,710.5C 1068.01,711.027 1077.01,709.194 1085.5,705C 1092.01,698.749 1093.18,691.582 1089,683.5C 1084.73,679.244 1079.57,677.244 1073.5,677.5C 1068.77,677.781 1064.1,678.447 1059.5,679.5C 1060.64,667.202 1061.3,654.868 1061.5,642.5C 1074.83,642.5 1088.17,642.5 1101.5,642.5C 1101.5,645.833 1101.5,649.167 1101.5,652.5C 1091.5,652.5 1081.5,652.5 1071.5,652.5C 1071.5,657.5 1071.5,662.5 1071.5,667.5C 1099.33,668.192 1108.5,681.525 1099,707.5C 1094.23,713.473 1088.07,717.306 1080.5,719C 1074.37,719.912 1068.37,720.745 1062.5,721.5 Z"/></g>
</svg>
