<svg xmlns="http://www.w3.org/2000/svg" width="2500" height="2500" style="shape-rendering:geometricPrecision;text-rendering:geometricPrecision;image-rendering:optimizeQuality;fill-rule:evenodd;clip-rule:evenodd"><path style="opacity:.993" fill="#c1694f" d="M664.5 236.5a6218.18 6218.18 0 0 0 0 223v277a3258.57 3258.57 0 0 0-112 1c-.493-171.701.007-343.368 1.5-515 5.763-20.096 18.596-33.262 38.5-39.5 30.794-6.185 53.294 4.648 67.5 32.5a71.213 71.213 0 0 1 4.5 21z"/><path style="opacity:.991" fill="#c0684e" d="M1164.5 769.5c-2.92-17.755-13.25-28.588-31-32.5-27-.5-54-.667-81-.5v-500c2.91-34.248 21.58-52.914 56-56 29.22 2.346 47.39 17.679 54.5 46 1.49 180.978 1.99 361.978 1.5 543z"/><path style="opacity:.998" fill="#c0684e" d="M691.5 236.5h333v223h-27a392.598 392.598 0 0 0-56 0h-55a409.173 409.173 0 0 0-57 0h-54v277h-57v-277h-27v-223z"/><path style="opacity:1" fill="#a4523a" d="M664.5 236.5h27v223h-27a6218.18 6218.18 0 0 1 0-223zM1024.5 236.5h28v223h-28v-223z"/><path style="opacity:1" fill="#508093" d="M1947.5 483.5c-2.22-.703-4.05-2.036-5.5-4-.39-2.604-1.22-4.938-2.5-7-3.31-8.484-8.98-14.984-17-19.5-12.9-5.653-26.24-7.653-40-6 13.39.634 26.39 3.301 39 8 7.62 4.454 13.29 10.621 17 18.5.8.923.97 1.923.5 3-12.92-11.716-27.76-20.216-44.5-25.5-9.05-.807-18.05-.474-27 1-5.14 1.735-9.81 4.235-14 7.5 5.94-8.068 13.94-13.235 24-15.5 12.69-.691 25.36-.358 38 1 2.95.806 5.61 2.139 8 4 4.92 3.713 9.76 7.546 14.5 11.5 5.92 6.514 9.09 14.18 9.5 23z"/><path style="opacity:1" fill="#ebf0f3" d="M1939.5 472.5c0 .667-.33 1-1 1-3.71-7.879-9.38-14.046-17-18.5-12.61-4.699-25.61-7.366-39-8 13.76-1.653 27.1.347 40 6 8.02 4.516 13.69 11.016 17 19.5z"/><path style="opacity:.995" fill="#cfe3d6" d="M1938.5 473.5c.67 0 1-.333 1-1 1.28 2.062 2.11 4.396 2.5 7 1.45 1.964 3.28 3.297 5.5 4 1.5 2.336 3.5 4.169 6 5.5a61.469 61.469 0 0 0 15 4c7.87 4.558 12.7 11.392 14.5 20.5 1.56 4.973 1.89 9.973 1 15 3.24 3.371 7.07 5.871 11.5 7.5a251.575 251.575 0 0 0 32 9.5c.06.543.39.876 1 1a93.73 93.73 0 0 1 25-2c16.42 1.045 30.09 7.711 41 20 13.62 14.587 23.62 31.254 30 50a11.091 11.091 0 0 0-4.5 3 36.504 36.504 0 0 1-7.5 10 142.762 142.762 0 0 1-19 12.5 670.175 670.175 0 0 1-37 31.5 4.939 4.939 0 0 1-3-.5c-9.1-9.053-19.44-16.386-31-22a673.995 673.995 0 0 0-87-30c-26.13-9.302-46.3-25.802-60.5-49.5-9.71-11.353-22.04-17.353-37-18a296.45 296.45 0 0 0-31.5 4.5c-9.95 2.076-18.95.076-27-6a1615.286 1615.286 0 0 0-55-40c-16.7-9.575-34.7-14.409-54-14.5 3.72-1.497 7.72-2.163 12-2 2.92.024 5.75.357 8.5 1 10.36-7.266 21.53-13.099 33.5-17.5a417.473 417.473 0 0 1 35-6c15.33-6 30.67-12 46-18a64.305 64.305 0 0 1 20-1c3.73.844 7.06 2.344 10 4.5-.79.283-1.46.783-2 1.5 16.93 4.601 28.43 15.101 34.5 31.5 2.8 3.153 6.3 4.819 10.5 5a183.75 183.75 0 0 0-36 18.5c-6.84 4.845-9.34 11.345-7.5 19.5a11.477 11.477 0 0 0 3.5 4.5c10.3 1.126 20.63 2.126 31 3a13.512 13.512 0 0 0 6 2.5c5.3 4.47 10.14 9.47 14.5 15a868.53 868.53 0 0 0 16.5 22.5 64.783 64.783 0 0 0 11 8 37.132 37.132 0 0 0 12 1.5c9.55-2.274 18.21-6.44 26-12.5 2.59-2.086 4.59-4.586 6-7.5 4.22-4.1 7.72-8.767 10.5-14 .33-6 .67-12 1-18a121.65 121.65 0 0 1 8.5-10c-.5-1.021-1.17-1.188-2-.5a84.976 84.976 0 0 1-8 7.5c-1.44-5.008-3.44-9.675-6-14-1.82-6.306-5.15-11.64-10-16-1.79-3.62-4.45-6.453-8-8.5.91-1.625.25-2.459-2-2.5-4.96-3.841-10.63-6.341-17-7.5-9-.667-18-.667-27 0-3.17.322-5.83 1.489-8 3.5-4.84 2.623-9.84 3.957-15 4a19.182 19.182 0 0 1-6.5-3 68.926 68.926 0 0 1-7-14c-4.41-5.577-9.25-10.577-14.5-15l3-2c4.19-3.265 8.86-5.765 14-7.5a107.007 107.007 0 0 1 27-1c16.74 5.284 31.58 13.784 44.5 25.5.47-1.077.3-2.077-.5-3z"/><path style="opacity:1" fill="#38525c" d="M1873.5 452.5c20.47-1.554 38.47 4.279 54 17.5-5.15-2.92-10.49-5.92-16-9-12.93-4.693-26.26-6.36-40-5-3.97 2.768-8.3 4.102-13 4 4.65-3.372 9.65-5.872 15-7.5z"/><path style="opacity:1" fill="#a35239" d="M719.5 459.5h55v27h-55v-27z"/><path style="opacity:1" fill="#a4523a" d="M886.5 459.5v27h-57v-27a409.173 409.173 0 0 1 57 0zM997.5 459.5v27h-56v-27a392.598 392.598 0 0 1 56 0z"/><path style="opacity:1" fill="#38525c" d="M1835.5 456.5c5.37.68 10.37 2.347 15 5 5.25 4.423 10.09 9.423 14.5 15a68.926 68.926 0 0 0 7 14 19.182 19.182 0 0 0 6.5 3v1c-4.2-.181-7.7-1.847-10.5-5-6.07-16.399-17.57-26.899-34.5-31.5.54-.717 1.21-1.217 2-1.5z"/><path style="opacity:1" fill="#38525d" d="M1840.5 468.5c1.7-.16 3.37.006 5 .5-15.04 9.244-31.04 16.578-48 22a166.625 166.625 0 0 1-21 6 516.987 516.987 0 0 0 49-20c5.39-2.354 10.39-5.188 15-8.5z"/><path style="opacity:1" fill="#2f4a56" d="M1945.5 493.5c-16.45-6.776-33.28-7.776-50.5-3-.76-.07-1.26-.403-1.5-1 2.17-2.011 4.83-3.178 8-3.5 9-.667 18-.667 27 0 6.37 1.159 12.04 3.659 17 7.5z"/><path style="opacity:.974" fill="#c0684e" d="M829.5 486.5h57v250h-57v-250z"/><path style="opacity:.992" fill="#c0684e" d="M941.5 486.5h56v250h-56v-250z"/><path style="opacity:1" fill="#7ba999" d="M1945.5 493.5c2.25.041 2.91.875 2 2.5 3.55 2.047 6.21 4.88 8 8.5.09.996-.25 1.829-1 2.5a4521.351 4521.351 0 0 0-56.5 29.5c-1.81-1.812-3.64-3.645-5.5-5.5 17.8-11.701 35.8-21.868 54-30.5-20.3 6.399-38.8 16.066-55.5 29-12.1-13.147-26.6-16.98-43.5-11.5 6.22-1.267 12.55-1.6 19-1a48.634 48.634 0 0 1 17 9c8.57 7.9 16.4 16.4 23.5 25.5a461.669 461.669 0 0 0 20.5 35c-4.27 1.466-8.27.966-12-1.5l-7.5-7.5c-9.33-12-18.67-24-28-36-7.14-9.712-16.64-13.545-28.5-11.5-3.48 1.244-6.48 3.244-9 6 4.59-1.859 9.43-3.359 14.5-4.5 7.84.998 14.01 4.665 18.5 11a13.512 13.512 0 0 1-6-2.5c-10.37-.874-20.7-1.874-31-3a11.477 11.477 0 0 1-3.5-4.5c-1.84-8.155.66-14.655 7.5-19.5a183.75 183.75 0 0 1 36-18.5v-1c5.16-.043 10.16-1.377 15-4 .24.597.74.93 1.5 1 17.22-4.776 34.05-3.776 50.5 3z"/><path style="opacity:1" fill="#7dab9b" d="M1670.5 495.5c19.3.091 37.3 4.925 54 14.5a1615.286 1615.286 0 0 1 55 40c8.05 6.076 17.05 8.076 27 6a296.45 296.45 0 0 1 31.5-4.5c14.96.647 27.29 6.647 37 18 14.2 23.698 34.37 40.198 60.5 49.5a673.995 673.995 0 0 1 87 30c11.56 5.614 21.9 12.947 31 22 .95.483 1.95.649 3 .5-.11.617-.44 1.117-1 1.5 30.23 35.091 41.07 75.591 32.5 121.5a232.59 232.59 0 0 1-6.5 20 26.334 26.334 0 0 1-10 7c4.23-9.909 7.06-20.242 8.5-31 6.48-50.828-9.68-92.661-48.5-125.5-11.16-7.582-23.16-13.582-36-18a673.48 673.48 0 0 0-68-22c-26.14-8.82-46.31-24.987-60.5-48.5-9.51-12.337-22.01-18.671-37.5-19-10.84.334-21.5 1.834-32 4.5-9 1.667-17.33 0-25-5-14.67-11-29.33-22-44-33-22.22-16.685-47.22-24.185-75-22.5 5.32-2.774 10.99-4.774 17-6z"/><path style="opacity:1" fill="#314e58" d="M1929.5 495.5c3.64.156 3.97 1.322 1 3.5-5.18 3.763-10.84 6.096-17 7 5.57-3.275 10.9-6.775 16-10.5z"/><path style="opacity:1" fill="#f8fbf9" d="M1791.5 483.5c1.88-.107 2.21.393 1 1.5-16.66 9.495-34.33 16.495-53 21-3.38.824-6.72.657-10-.5 21.89-3.945 42.55-11.278 62-22z"/><path style="opacity:1" fill="#43778d" d="M1653.5 501.5c27.78-1.685 52.78 5.815 75 22.5 14.67 11 29.33 22 44 33 7.67 5 16 6.667 25 5a148.146 148.146 0 0 1 32-4.5c15.49.329 27.99 6.663 37.5 19 14.19 23.513 34.36 39.68 60.5 48.5a673.48 673.48 0 0 1 68 22c12.84 4.418 24.84 10.418 36 18 38.82 32.839 54.98 74.672 48.5 125.5-1.44 10.758-4.27 21.091-8.5 31h-1c-.99-4.805-1.32-9.805-1-15 .84-.342 1.17-1.008 1-2 1.16-9.157 1.32-18.491.5-28-.62-6.013-2.12-11.68-4.5-17-1.3-3.501-2.47-7.167-3.5-11-.46.594-.63 1.261-.5 2-1.04-1.43-1.7-3.097-2-5h1c.72.418 1.22 1.084 1.5 2-.9-15.799-6.73-29.465-17.5-41-11.15-20.312-27.48-34.812-49-43.5-7.88-2.601-15.88-3.101-24-1.5-3.91-.237-7.58.596-11 2.5a269.909 269.909 0 0 0-21 18 223.054 223.054 0 0 1-21 14 1832.584 1832.584 0 0 1-44.5 18.5c-.76-.07-1.26-.403-1.5-1 .67-.767 1.51-1.434 2.5-2 .66-10.739-.01-21.406-2-32-10.57-7.506-19.07-16.839-25.5-28a344.33 344.33 0 0 1-31 16.5c-18.28 6.119-36.95 7.786-56 5-8.5-2.252-16.17-6.085-23-11.5a11.992 11.992 0 0 1-6 1c.58-4.149-.09-7.816-2-11 2.08-2.705 2.41-5.705 1-9-1.7.674-3.36 1.341-5 2 0-.667-.33-1-1-1 1.5-.806 3.16-1.472 5-2a16.91 16.91 0 0 0 1-8c-3.32.992-6.66 1.992-10 3 0-.667-.33-1-1-1 3.35-1.758 7.02-2.758 11-3a36.9 36.9 0 0 0-1.5-12c-.38.556-.88.889-1.5 1-3.15-49.962-28.48-82.462-76-97.5-2.54-.796-4.87-.629-7 .5a76.566 76.566 0 0 0-21-3c-.21-2.951.45-5.618 2-8 8.32-5.324 17.32-9.324 27-12z"/><path style="opacity:1" fill="#314e58" d="M1907.5 508.5c2.34.275 2.34 1.108 0 2.5a123.748 123.748 0 0 0-18 11c-1.14.749-2.14.583-3-.5a14.831 14.831 0 0 1 3-3.5c5.9-3.451 11.9-6.617 18-9.5z"/><path style="opacity:.991" fill="#cee2d6" d="M1626.5 513.5c-1.55 2.382-2.21 5.049-2 8 7.17.03 14.17 1.03 21 3a139.92 139.92 0 0 1 22 7.5 94.036 94.036 0 0 0 16 9c14.48 11.805 25.98 25.972 34.5 42.5 3.17 12.346 6.33 24.68 9.5 37a4.942 4.942 0 0 1-1 2.5 339.82 339.82 0 0 0-70 34 2927.497 2927.497 0 0 0 37-19 369.86 369.86 0 0 1 34-13c.84-1.011 1.17-2.178 1-3.5.62-.111 1.12-.444 1.5-1a36.9 36.9 0 0 1 1.5 12c-3.98.242-7.65 1.242-11 3-24.25 7.684-46.91 18.518-68 32.5a21.58 21.58 0 0 0-5 6c1.41.315 2.74-.018 4-1l9-7a526.338 526.338 0 0 0 38-21 203.784 203.784 0 0 1 23-8.5c3.34-1.008 6.68-2.008 10-3a16.91 16.91 0 0 1-1 8c-1.84.528-3.5 1.194-5 2-30.72 11.854-58.05 29.021-82 51.5 2.29.418 4.29-.249 6-2a442.808 442.808 0 0 1 51-37c8.34-4.67 17-8.503 26-11.5 1.64-.659 3.3-1.326 5-2 1.41 3.295 1.08 6.295-1 9 1.91 3.184 2.58 6.851 2 11a95.632 95.632 0 0 0-20 10.5 1157.51 1157.51 0 0 1-42 39 1489.891 1489.891 0 0 1-80 79c-31.98 21.182-65.64 24.182-101 9-25.76-11.801-47.26-28.968-64.5-51.5a746.725 746.725 0 0 1-24-46c-8.42-25.773-5.42-50.106 9-73a81.273 81.273 0 0 0 11-19c1.17-1.167 2.33-2.333 3.5-3.5a378.592 378.592 0 0 0 20-9c4.67-3.333 9.33-6.667 14-10a366.33 366.33 0 0 0 32-17 37.948 37.948 0 0 1 11-1.5c7 .757 14 .923 21 .5 12.62-6.765 25.96-11.765 40-15 18.64-8.984 37.3-17.984 56-27 1-5.836 3.66-10.669 8-14.5z"/><path style="opacity:1" fill="#46798e" d="M2131.5 615.5c-7-17-15.83-33-26.5-48-9.36-12.697-21.53-21.53-36.5-26.5-10.89-2.425-21.56-1.758-32 2 3.3-.046 6.63-.212 10-.5 2.33.667 4.67 1.333 7 2a93.73 93.73 0 0 0-25 2c-.61-.124-.94-.457-1-1 4.66-7.842 10.33-15.009 17-21.5 32.13-15.39 57.63-8.223 76.5 21.5 11.97 20.827 16.63 43.16 14 67-.42 1.926-1.59 2.926-3.5 3z"/><path style="opacity:1" fill="#314e58" d="M1955.5 504.5c4.85 4.36 8.18 9.694 10 16 2.56 4.325 4.56 8.992 6 14a84.976 84.976 0 0 0 8-7.5c.83-.688 1.5-.521 2 .5a121.65 121.65 0 0 0-8.5 10c-.33 6-.67 12-1 18a56.072 56.072 0 0 1-10.5 14 413.986 413.986 0 0 1-19 13.5c-4.66 1.706-8.99 3.873-13 6.5-4.08.156-8.08-.344-12-1.5a64.783 64.783 0 0 1-11-8 868.53 868.53 0 0 1-16.5-22.5c-4.36-5.53-9.2-10.53-14.5-15-4.49-6.335-10.66-10.002-18.5-11-5.07 1.141-9.91 2.641-14.5 4.5 2.52-2.756 5.52-4.756 9-6 11.86-2.045 21.36 1.788 28.5 11.5 9.33 12 18.67 24 28 36l7.5 7.5c3.73 2.466 7.73 2.966 12 1.5a461.669 461.669 0 0 1-20.5-35c-7.1-9.1-14.93-17.6-23.5-25.5a48.634 48.634 0 0 0-17-9c-6.45-.6-12.78-.267-19 1 16.9-5.48 31.4-1.647 43.5 11.5 16.7-12.934 35.2-22.601 55.5-29-18.2 8.632-36.2 18.799-54 30.5 1.86 1.855 3.69 3.688 5.5 5.5 18.77-9.968 37.6-19.802 56.5-29.5.75-.671 1.09-1.504 1-2.5z"/><path style="opacity:1" fill="#7aa898" d="M1965.5 520.5c.7 3.073 1.7 6.073 3 9-4.63 4.643-9.63 8.81-15 12.5 5.76-1.219 10.76-4.053 15-8.5 1.47 2.521 1.97 5.188 1.5 8a291.846 291.846 0 0 1-12.5 10.5 575.304 575.304 0 0 1-34.5 21.5 47.34 47.34 0 0 1-4.5-8 266.207 266.207 0 0 1 32-20.5c-12.13 4.153-23.29 10.32-33.5 18.5-1.17-2.333-2.33-4.667-3.5-7a259.826 259.826 0 0 0 47.5-33c.67-.667.67-1.333 0-2a287.919 287.919 0 0 1-48 32 17.689 17.689 0 0 1-5.5-4.5 187.88 187.88 0 0 1 22-14c-8.62 1.748-16.28 5.581-23 11.5a45.66 45.66 0 0 0-5.5-6c-.67-.667-.67-1.333 0-2a4366.18 4366.18 0 0 1 55.5-31 21.588 21.588 0 0 1 4 5 563.015 563.015 0 0 1-26 18.5c4.14-1.086 8.14-2.753 12-5a122.403 122.403 0 0 1 15.5-10.5c1.19 1.733 2.36 3.4 3.5 5z"/><path style="opacity:1" fill="#2b4957" d="M2053.5 528.5c22.61-.637 41.77 7.03 57.5 23 6.2 7.73 10.2 16.397 12 26-8.52-25.432-25.85-40.099-52-44-11.65-3.2-22.82-1.866-33.5 4-1.21-.774-1.21-1.607 0-2.5a169.065 169.065 0 0 1 16-6.5z"/><path style="opacity:1" fill="#7baa99" d="M1969.5 543.5c2.02 6.535.85 12.535-3.5 18-10.46 10.564-22.46 18.897-36 25-2-3.66-3.67-7.327-5-11l34.5-22.5a45.19 45.19 0 0 0 10-9.5z"/><path style="opacity:1" fill="#314e5a" d="M1645.5 524.5c2.13-1.129 4.46-1.296 7-.5 47.52 15.038 72.85 47.538 76 97.5.17 1.322-.16 2.489-1 3.5a369.86 369.86 0 0 0-34 13 2927.497 2927.497 0 0 1-37 19 339.82 339.82 0 0 1 70-34c.56-.725.89-1.558 1-2.5-3.17-12.32-6.33-24.654-9.5-37-8.52-16.528-20.02-30.695-34.5-42.5a94.036 94.036 0 0 1-16-9 139.92 139.92 0 0 0-22-7.5z"/><path style="opacity:1" fill="#39525d" d="M1973.5 543.5c10.37 8.35 22.03 14.35 35 18a84.976 84.976 0 0 0 8-7.5c1.14-.749 2.14-.583 3 .5-19.82 19.247-41.82 35.58-66 49-1.2-.346-1.2-.846 0-1.5a364.885 364.885 0 0 0 52-38c-11.2-3.6-21.2-9.266-30-17-1.32-.816-1.99-1.983-2-3.5z"/><path style="opacity:1" fill="#7cab9a" d="M1825.5 564.5c25.28-1.224 39.45 10.776 42.5 36 3.12 11.593 1.79 22.593-4 33-10.78 8.86-22.61 10.36-35.5 4.5-23.66-10.623-32.5-28.457-26.5-53.5 4.99-10.17 12.83-16.837 23.5-20z"/><path style="opacity:1" fill="#5e777c" d="M1537.5 574.5a280.13 280.13 0 0 1-13-3.5c4.86-.536 9.19.63 13 3.5z"/><path style="opacity:1" fill="#354f5a" d="M2046.5 542.5c18.24-.703 33.91 5.13 47 17.5 5.83 6.5 11.67 13 17.5 19.5 4.94 8.874 9.6 17.874 14 27 .8 2.867.63 5.534-.5 8-6.38-18.746-16.38-35.413-30-50-10.91-12.289-24.58-18.955-41-20-2.33-.667-4.67-1.333-7-2z"/><path style="opacity:1" fill="#314e58" d="M1814.5 578.5c10.8-1.017 19.3 2.983 25.5 12 7.79 12.296 10.46 25.629 8 40-6.06 6.202-13.23 7.702-21.5 4.5l15-1a17.853 17.853 0 0 0 5.5-4.5c.7-8.85-.3-17.517-3-26-3.35-10.557-10.18-17.724-20.5-21.5-3.79-.837-7.46-.504-11 1-3.21 2.932-5.55 6.432-7 10.5-1.22-2.398-1.06-4.731.5-7a32.219 32.219 0 0 1 8.5-8z"/><path style="opacity:1" fill="#7da99a" d="M1961.5 569.5c-1.41 2.914-3.41 5.414-6 7.5-7.79 6.06-16.45 10.226-26 12.5 4.01-2.627 8.34-4.794 13-6.5a413.986 413.986 0 0 0 19-13.5z"/><path style="opacity:1" fill="#38525c" d="M1537.5 574.5c23.3 9.898 43.8 23.898 61.5 42a260.957 260.957 0 0 1 13 24c.67 1.667.67 3.333 0 5-7-15.821-16.83-29.654-29.5-41.5a525.445 525.445 0 0 1-25-18 309.36 309.36 0 0 0-20-11.5z"/><path style="opacity:1" fill="#39535d" d="M1470.5 595.5c53.32 2.146 91.82 27.146 115.5 75 11.48 33.049 15.48 67.049 12 102a514.376 514.376 0 0 0-5-72c-10.65-47.978-38.99-80.312-85-97-.41.457-.91.791-1.5 1a139.426 139.426 0 0 0-40-7.5c1.56-.21 2.89-.71 4-1.5z"/><path style="opacity:1" fill="#f9fbf9" d="M2002.5 582.5c2.34.275 2.34 1.108 0 2.5a418.639 418.639 0 0 1-53 31c-1.33.667-2.67.667-4 0a621.902 621.902 0 0 0 57-33.5z"/><path style="opacity:.988" fill="#cfe3d6" d="M2131.5 615.5a353.679 353.679 0 0 0 11.5 20c5.34 12.499 8.5 25.499 9.5 39-1.25 12.825-5.08 24.825-11.5 36 .35 7.646.85 15.313 1.5 23-.09 7.093-.93 14.093-2.5 21a131.041 131.041 0 0 0-13 18 2772.461 2772.461 0 0 0-45.5 42 232.59 232.59 0 0 0 6.5-20c8.57-45.909-2.27-86.409-32.5-121.5.56-.383.89-.883 1-1.5a3726.194 3726.194 0 0 1 57-41.5c2.8-3.141 5.64-6.308 8.5-9.5 1.56-1.717 2.39-3.717 2.5-6 1.13-2.466 1.3-5.133.5-8a517.982 517.982 0 0 0-14-27c-5.83-6.5-11.67-13-17.5-19.5-13.09-12.37-28.76-18.203-47-17.5-3.37.288-6.7.454-10 .5 10.44-3.758 21.11-4.425 32-2 14.97 4.97 27.14 13.803 36.5 26.5 10.67 15 19.5 31 26.5 48z"/><path style="opacity:1" fill="#7dab9b" d="M1498.5 621.5c10.68 4.67 20.68 10.336 30 17 3.93 5.469 8.77 10.803 14.5 16a157.947 157.947 0 0 0 14.5 19c9.87 16.868 16.7 34.868 20.5 54 .91 8.801.41 17.468-1.5 26-24.2 1.099-45.87-5.734-65-20.5-29.19-22.54-47.03-52.04-53.5-88.5-.78-8.715-.61-17.381.5-26 13.31-2.018 26.31-.685 39 4 .61-.124.94-.457 1-1z"/><path style="opacity:1" fill="#43778d" d="M1458.5 618.5a119.528 119.528 0 0 0-.5 26c6.47 36.46 24.31 65.96 53.5 88.5 19.13 14.766 40.8 21.599 65 20.5-.34 1.983.32 3.317 2 4 .24 1.291-.1 2.291-1 3 .11-1.879-.39-2.212-1.5-1a35.637 35.637 0 0 0-3 9c-.7 2.084-1.86 3.751-3.5 5a121.622 121.622 0 0 1-16 14c-3.95 2.37-7.62 4.037-11 5-9.48 2.477-19.15 2.644-29 .5-9.79-2.977-19.12-6.811-28-11.5-22.33-13.166-39.83-31.166-52.5-54a226.657 226.657 0 0 1-10-22 13.007 13.007 0 0 0-.5 5 221.885 221.885 0 0 0-5-24c.62-.111 1.12-.444 1.5-1-.99-18.718 3.35-36.051 13-52 1.7-1.873 3.54-3.54 5.5-5-11.12 27.217-10.62 54.217 1.5 81-1.96-7.903-3.96-15.903-6-24-3.25-20.725-.42-40.559 8.5-59.5-.23-.399-.56-.565-1-.5 5.62-3.1 11.62-5.433 18-7z"/><path style="opacity:1" fill="#38515c" d="M2124.5 614.5c-.11 2.283-.94 4.283-2.5 6-2.86 3.192-5.7 6.359-8.5 9.5a3726.194 3726.194 0 0 0-57 41.5 670.175 670.175 0 0 0 37-31.5c6.68-3.67 13.01-7.836 19-12.5a36.504 36.504 0 0 0 7.5-10 11.091 11.091 0 0 1 4.5-3z"/><path style="opacity:1" fill="#324f5b" d="M1498.5 621.5c-.06.543-.39.876-1 1-12.69-4.685-25.69-6.018-39-4-6.38 1.567-12.38 3.9-18 7a6.575 6.575 0 0 0-3 3 38.416 38.416 0 0 0-5.5 5c-9.65 15.949-13.99 33.282-13 52-.38.556-.88.889-1.5 1-4.54-25.22 2.8-46.387 22-63.5 19.38-9.435 39.05-9.935 59-1.5z"/><path style="opacity:1" fill="#eaf2ef" d="M1478.5 642.5c1.78 3.886 2.61 8.22 2.5 13 1.72 6.27 3.72 12.27 6 18-6.97-9.246-9.8-19.58-8.5-31z"/><path style="opacity:1" fill="#36505b" d="M1720.5 635.5c.67 0 1 .333 1 1a203.784 203.784 0 0 0-23 8.5 526.338 526.338 0 0 1-38 21l-9 7c-1.26.982-2.59 1.315-4 1a21.58 21.58 0 0 1 5-6c21.09-13.982 43.75-24.816 68-32.5z"/><path style="opacity:1" fill="#eaeff2" d="M1440.5 625.5c.44-.065.77.101 1 .5-8.92 18.941-11.75 38.775-8.5 59.5 2.04 8.097 4.04 16.097 6 24-12.12-26.783-12.62-53.783-1.5-81a6.575 6.575 0 0 1 3-3z"/><path style="opacity:1" fill="#f0f5f3" d="M1470.5 623.5c-2.61 31.997 7.22 59.664 29.5 83 .67.667.67 1.333 0 2-24.7-23.285-34.54-51.619-29.5-85z"/><path style="opacity:.993" fill="#cfe3d6" d="M1972.5 661.5c-.11.617-.44 1.117-1 1.5 23.29.538 42.79 9.372 58.5 26.5 13.57 16.8 23.73 35.466 30.5 56 .3 1.903.96 3.57 2 5 2.65 12.6 4.98 25.267 7 38-28.37 13.697-53.04 32.363-74 56 .17.333.33.667.5 1 17.24-18.187 36.74-33.354 58.5-45.5 4.92-2.707 9.75-5.541 14.5-8.5.5 2.982.66 5.982.5 9-14.5 5.173-27.16 13.173-38 24 .86 1.083 1.86 1.249 3 .5 10.46-9.067 21.8-16.9 34-23.5.95 1.545 1.29 3.212 1 5-.32 5.195.01 10.195 1 15-2.55 1.345-5.38 2.011-8.5 2-4.49-.833-8.99-1-13.5-.5a276.377 276.377 0 0 0-43.5 35.5 249.88 249.88 0 0 1-29 36 645.735 645.735 0 0 0-18 29c-2.23 2.864-5.06 4.864-8.5 6-3.58 11.396-9.08 21.729-16.5 31-3.33 4.667-6.67 9.333-10 14-8.16 8.953-18.33 14.12-30.5 15.5-6 .667-12 .667-18 0a1718.59 1718.59 0 0 1-43-9 527.12 527.12 0 0 1-40-17c-7.5-6.167-14.33-13-20.5-20.5a441.069 441.069 0 0 1-34-60 122.556 122.556 0 0 1-5.5-28 265.106 265.106 0 0 0 3.5-42c1.89-5.445 4.55-10.445 8-15 15.99-19.994 34.49-37.161 55.5-51.5a246.806 246.806 0 0 0 19-9 181.342 181.342 0 0 1 24-2c9.82-8.74 20.49-16.24 32-22.5.24.597.74.93 1.5 1a1832.584 1832.584 0 0 0 44.5-18.5 223.054 223.054 0 0 0 21-14 269.909 269.909 0 0 1 21-18c3.42-1.904 7.09-2.737 11-2.5z"/><path style="opacity:1" fill="#39525d" d="M1730.5 651.5a307.644 307.644 0 0 0-22 9.5 351.454 351.454 0 0 1-34 20.5c-.33-.333-.67-.667-1-1 16.94-13.635 35.94-23.301 57-29z"/><path style="opacity:1" fill="#36505b" d="M1725.5 643.5c.67 0 1 .333 1 1-9 2.997-17.66 6.83-26 11.5a442.808 442.808 0 0 0-51 37c-1.71 1.751-3.71 2.418-6 2 23.95-22.479 51.28-39.646 82-51.5z"/><path style="opacity:1" fill="#334e5a" d="M2045.5 706.5c7.67 12.005 13 25.005 16 39h-1c-6.77-20.534-16.93-39.2-30.5-56-15.71-17.128-35.21-25.962-58.5-26.5.56-.383.89-.883 1-1.5 8.12-1.601 16.12-1.101 24 1.5 21.52 8.688 37.85 23.188 49 43.5z"/><path style="opacity:1" fill="#344f5a" d="M1528.5 638.5c13.09 8.928 23.59 20.261 31.5 34 14.54 22.914 21.54 47.914 21 75a32.154 32.154 0 0 1-2.5 10c-1.68-.683-2.34-2.017-2-4 1.91-8.532 2.41-17.199 1.5-26-3.8-19.132-10.63-37.132-20.5-54a157.947 157.947 0 0 1-14.5-19c-5.73-5.197-10.57-10.531-14.5-16z"/><path style="opacity:1" fill="#314c59" d="M1485.5 781.5c-30.53-15.201-51.53-38.868-63-71-.16-1.699.01-3.366.5-5a226.657 226.657 0 0 0 10 22c12.67 22.834 30.17 40.834 52.5 54z"/><path style="opacity:1" fill="#bcd3ca" d="M2045.5 706.5c10.77 11.535 16.6 25.201 17.5 41-.28-.916-.78-1.582-1.5-2-3-13.995-8.33-26.995-16-39z"/><path style="opacity:1" fill="#37515c" d="M2136.5 713.5c3.41-.375 3.91.625 1.5 3-12.2 12.667-26.37 22.167-42.5 28.5a183.447 183.447 0 0 0 41-31.5z"/><path style="opacity:.997" fill="#d89d81" d="M664.5 736.5h388c27-.167 54 0 81 .5 17.75 3.912 28.08 14.745 31 32.5v35c-1.46 10.741-6.46 19.574-15 26.5a2764.155 2764.155 0 0 0-81 60.5c-.44.065-.77-.101-1-.5 17.95-20.947 17.28-41.28-2-61-6.93-5.085-14.6-8.419-23-10-215.333-.667-430.667-.667-646 0l-9 1.5a19141.39 19141.39 0 0 1 165-84 3258.57 3258.57 0 0 1 112-1z"/><path style="opacity:1" fill="#39535d" d="M1797.5 755.5c28.69-.83 54.69 7.003 78 23.5 21.71 20.288 38.88 43.788 51.5 70.5 13.93 33.226 13.93 66.56 0 100a354.733 354.733 0 0 0 8-36c2.59-21.181-.41-41.515-9-61-2.67-5.333-5.33-10.667-8-16a267.752 267.752 0 0 1-17-26c-11.02-15.915-24.85-28.749-41.5-38.5-17.86-8.04-36.86-12.707-57-14-2.24-.05-3.91-.883-5-2.5z"/><path style="opacity:1" fill="#adc4bd" d="M1569.5 773.5c-3.26 6.973-8.59 11.64-16 14a121.622 121.622 0 0 0 16-14z"/><path style="opacity:1" fill="#9fbcba" d="M2066.5 759.5c2.38 5.32 3.88 10.987 4.5 17 .82 9.509.66 18.843-.5 28a234.893 234.893 0 0 0-4-45z"/><path style="opacity:1" fill="#7dab9b" d="M1812.5 786.5c1.29.237 2.29-.096 3-1a100.578 100.578 0 0 0 18 8 3.595 3.595 0 0 0 1.5-1c2.17.988 4 2.321 5.5 4a489.643 489.643 0 0 1 23 17c17.04 16.368 29.87 35.702 38.5 58 .49-1.293.66-2.627.5-4a150.751 150.751 0 0 1 5 23c-.62.111-1.12.444-1.5 1-.33 6.667-.67 13.333-1 20-.42 4.029-1.58 7.696-3.5 11-22.74.254-43.07-6.579-61-20.5-29.34-22.035-47.18-51.202-53.5-87.5a143.12 143.12 0 0 1 .5-28 86.542 86.542 0 0 1 25 0z"/><path style="opacity:1" fill="#39535e" d="M1577.5 760.5c-3.03 13.519-10.69 23.352-23 29.5a47.199 47.199 0 0 1-12 2.5c3.38-.963 7.05-2.63 11-5 7.41-2.36 12.74-7.027 16-14 1.64-1.249 2.8-2.916 3.5-5 .6-3.137 1.6-6.137 3-9 1.11-1.212 1.61-.879 1.5 1z"/><path style="opacity:1" fill="#43778d" d="M1787.5 786.5a143.12 143.12 0 0 0-.5 28c6.32 36.298 24.16 65.465 53.5 87.5 17.93 13.921 38.26 20.754 61 20.5-5.29 25.274-20.96 37.607-47 37a68.647 68.647 0 0 1-25-4c-.92.043-1.58.376-2 1-10.99-4.005-20.99-9.672-30-17-16.05-15.886-29.22-33.886-39.5-54a386.937 386.937 0 0 1-11-36c-.83-9.618-.33-19.118 1.5-28.5-.79-1.313-.45-2.48 1-3.5 2.72-5.748 6.22-11.081 10.5-16 .4.228.57.562.5 1-4.83 19.28-4.99 38.613-.5 58a102.707 102.707 0 0 0 8 21c-9.8-27.563-10.97-55.563-3.5-84 6.44-6.05 14.1-9.716 23-11z"/><path style="opacity:1" fill="#bad2c9" d="M1812.5 786.5a86.542 86.542 0 0 0-25 0c-8.9 1.284-16.56 4.95-23 11-2.03 1.091-3.37 2.757-4 5 .07-.438-.1-.772-.5-1-4.28 4.919-7.78 10.252-10.5 16 5.35-20.506 18.68-31.34 40-32.5 6-.667 12-.667 18 0 1.88.198 3.55.698 5 1.5z"/><path style="opacity:1" fill="#e5efeb" d="M1808.5 790.5c1-.03 1.66.47 2 1.5a84.262 84.262 0 0 0-1 12c.31 8.942 1.14 17.776 2.5 26.5-5.63-13.018-6.8-26.351-3.5-40z"/><path style="opacity:1" fill="#3a535e" d="M2066.5 759.5a234.893 234.893 0 0 1 4 45c.17.992-.16 1.658-1 2 .29-1.788-.05-3.455-1-5a189.192 189.192 0 0 0-34 23.5c-1.14.749-2.14.583-3-.5 10.84-10.827 23.5-18.827 38-24 .16-3.018 0-6.018-.5-9a310.456 310.456 0 0 1-14.5 8.5c-21.76 12.146-41.26 27.313-58.5 45.5-.17-.333-.33-.667-.5-1 20.96-23.637 45.63-42.303 74-56a773.291 773.291 0 0 0-7-38c-.13-.739.04-1.406.5-2 1.03 3.833 2.2 7.499 3.5 11z"/><path style="opacity:.985" fill="#a4523a" d="M1164.5 804.5v77a45.524 45.524 0 0 1-7 3 1312.176 1312.176 0 0 1-87 27c-5.74-1.728-11.74-2.395-18-2v-8c5.6-2.938 10.93-6.271 16-10a2764.155 2764.155 0 0 1 81-60.5c8.54-6.926 13.54-15.759 15-26.5z"/><path style="opacity:1" fill="#e1e9ed" d="M1764.5 797.5c-7.47 28.437-6.3 56.437 3.5 84a102.707 102.707 0 0 1-8-21c-4.49-19.387-4.33-38.72.5-58 .63-2.243 1.97-3.909 4-5z"/><path style="opacity:.998" fill="#c1694f" d="M1068.5 891.5a124.872 124.872 0 0 1-16 10 111.46 111.46 0 0 1-27 2h-612c-24.961 3.767-42.795-5.566-53.5-28-5.948-25.771 3.218-43.771 27.5-54l9-1.5c215.333-.667 430.667-.667 646 0 8.4 1.581 16.07 4.915 23 10 19.28 19.72 19.95 40.053 2 61 .23.399.56.565 1 .5z"/><path style="opacity:.995" fill="#ec0e8d" d="M1366.5 867.5c6.42 31.718 1.26 61.718-15.5 90-13.54 21.218-29.7 40.385-48.5 57.5a678.965 678.965 0 0 1-43 33.5h-7a291.11 291.11 0 0 1 11.5-34 25.52 25.52 0 0 1 6.5-5.5c26.8-13.131 45.63-33.631 56.5-61.5a127.219 127.219 0 0 0 8-24c1.73-10.681-.6-20.348-7-29-24.93-24.857-54.1-31.69-87.5-20.5-15.96 7.314-23.79 19.814-23.5 37.5-4.28 31.733 2.05 61.066 19 88 1.35 3.21 2.18 6.54 2.5 10-.97 9.84-1.97 19.67-3 29.5-.05 2.3-.71 4.13-2 5.5-2.05.1-3.72-.57-5-2-9.52-18.3-17.69-37.64-24.5-58-16.34-50.212-15.18-99.545 3.5-148 19.72-11.459 41.05-15.959 64-13.5 30.16 1.936 57.16 11.936 81 30 4.87 4.702 9.54 9.535 14 14.5z"/><path style="opacity:1" fill="#344f5a" d="M1840.5 796.5c30.18 15.195 50.85 38.862 62 71a8.394 8.394 0 0 1-.5 4c-8.63-22.298-21.46-41.632-38.5-58a489.643 489.643 0 0 0-23-17z"/><path style="opacity:.063" fill="#f3f0c8" d="M1207.5 829.5c1.33.667 1.33.667 0 0zM1209.5 830.5c1.33.667 1.33.667 0 0z"/><path style="opacity:1" fill="#f4ecc8" d="M1207.5 836.5c-18.68 48.455-19.84 97.788-3.5 148 6.81 20.36 14.98 39.7 24.5 58-6.56-1.95-12.56-4.95-18-9-24.68-48.908-33.85-100.575-27.5-155 1.6-9.489 3.76-18.822 6.5-28a61.532 61.532 0 0 1 18-14z"/><path style="opacity:1" fill="#37515b" d="M2049.5 792.5c1.88-.107 2.21.393 1 1.5a215.05 215.05 0 0 0-40 27 1031.612 1031.612 0 0 0-45 48.5c-.33-.333-.67-.667-1-1 4.6-6.777 9.43-13.444 14.5-20a815.165 815.165 0 0 1 32.5-31.5 383.165 383.165 0 0 1 38-24.5z"/><path style="opacity:1" fill="#eff4f2" d="M1798.5 804.5c1.93 13.006 5.76 25.673 11.5 38 8.82 17.826 20.66 33.326 35.5 46.5-5.91-2.871-11.07-7.037-15.5-12.5-16.42-19.178-27.26-41.178-32.5-66 .34-2.012.67-4.012 1-6z"/><path style="opacity:.999" fill="#eb148e" d="M1189.5 850.5a233.467 233.467 0 0 0-6.5 28c-6.35 54.425 2.82 106.092 27.5 155-19.87-15.7-32.7-36.031-38.5-61-7.57-29.911-10.07-60.244-7.5-91v-1c6.83-11.168 15.16-21.168 25-30z"/><path style="opacity:1" fill="#324e5a" d="M1815.5 785.5c-.71.904-1.71 1.237-3 1-1.45-.802-3.12-1.302-5-1.5-6-.667-12-.667-18 0-21.32 1.16-34.65 11.994-40 32.5-1.45 1.02-1.79 2.187-1 3.5-1.83 9.382-2.33 18.882-1.5 28.5a386.937 386.937 0 0 0 11 36c10.28 20.114 23.45 38.114 39.5 54-14.42-9.923-25.92-22.59-34.5-38-12.58-21.672-18.92-45.005-19-70 5.17-37.453 26.67-53.286 64.5-47.5 2.37.44 4.7.94 7 1.5z"/><path style="opacity:1" fill="#6f195b" d="M1252.5 1048.5c-6.65-.38-12.99-1.71-19-4 1.29-1.37 1.95-3.2 2-5.5 1.03-9.83 2.03-19.66 3-29.5-.32-3.46-1.15-6.79-2.5-10-16.95-26.934-23.28-56.267-19-88-.29-17.686 7.54-30.186 23.5-37.5 33.4-11.19 62.57-4.357 87.5 20.5 6.4 8.652 8.73 18.319 7 29a127.219 127.219 0 0 1-8 24c-10.87 27.869-29.7 48.369-56.5 61.5a25.52 25.52 0 0 0-6.5 5.5 291.11 291.11 0 0 0-11.5 34z"/><path style="opacity:1" fill="#f4ecc8" d="M1366.5 867.5a124.294 124.294 0 0 1 15 22c.01 29.808-8.16 57.141-24.5 82-19.99 28.82-44.15 53.49-72.5 74-8.21 1.78-16.55 2.78-25 3a678.965 678.965 0 0 0 43-33.5c18.8-17.115 34.96-36.282 48.5-57.5 16.76-28.282 21.92-58.282 15.5-90z"/><path style="opacity:1" fill="#5daee4" d="M1157.5 884.5c-1.37 30.745 1.47 61.078 8.5 91 6.34 24.64 18.84 45.48 37.5 62.5 8.67 6.85 18.34 11.68 29 14.5-35.15 171.92-69.98 343.92-104.5 516-.24 1.62-1.07 2.62-2.5 3-39.59-6.38-78.92-14.05-118-23 0-.67-.33-1-1-1-3.29-4.98-4.95-10.48-5-16.5 1.06-12.4 4.22-24.23 9.5-35.5a389.996 389.996 0 0 1 17.5-33c.67 0 1-.33 1-1 19.08-9.57 34.58-23.24 46.5-41 6.72-14.5 5.72-28.5-3-42a94.647 94.647 0 0 0-11.5-15c-3.64-4.65-7.31-9.31-11-14 7.43-8.93 15.43-17.43 24-25.5a374.765 374.765 0 0 0-23.5-22.5c-3.37 3.54-6.87 6.87-10.5 10-4.52-19.05-11.68-37.05-21.5-54a360.672 360.672 0 0 0-49.5-65c0-.67.333-1 1-1 10.868-9.37 19.701-20.37 26.5-33 20.77-41.88 36.77-85.55 48-131a1238.709 1238.709 0 0 0 25.5-116 1312.176 1312.176 0 0 0 87-27z"/><path style="opacity:.999" fill="#eb128e" d="M1381.5 889.5c7.87 13.749 13.53 28.416 17 44-17.62 42.463-45.95 75.96-85 100.5-9.25 4.96-18.92 8.79-29 11.5 28.35-20.51 52.51-45.18 72.5-74 16.34-24.859 24.51-52.192 24.5-82z"/><path style="opacity:1" fill="#a4523a" d="M413.5 903.5h112v28h-112v-28z"/><path style="opacity:.99" fill="#a35239" d="M552.5 903.5h112c.167 57.334 0 114.67-.5 172-5.444 31.28-23.944 47.95-55.5 50-30.244-1.74-48.744-17.41-55.5-47-.5-58.33-.667-116.666-.5-175z"/><path style="opacity:1" fill="#a4523a" d="M913.5 903.5h112v14a580.08 580.08 0 0 0-29 14h-83v-28z"/><path style="opacity:.999" fill="#f8db19" d="M1052.5 909.5c6.26-.395 12.26.272 18 2a1238.709 1238.709 0 0 1-25.5 116c-11.23 45.45-27.23 89.12-48 131-6.799 12.63-15.632 23.63-26.5 33l-2-3c-2.142-21.23-8.308-41.23-18.5-60-7.647-11.55-18.147-15.38-31.5-11.5a17.785 17.785 0 0 0-5.5 4.5c-.611 4.18.056 8.18 2 12a413.986 413.986 0 0 0 13.5 19c-15.539-10.1-32.539-16.27-51-18.5-11.761-1.32-23.094.35-34 5-1.333 1-1.333 2 0 3 9.205-2.73 18.705-4.23 28.5-4.5 22.84 1.72 43.34 9.56 61.5 23.5a249.323 249.323 0 0 1 33 32c1.077.47 2.077.3 3-.5a360.672 360.672 0 0 1 49.5 65c9.82 16.95 16.98 34.95 21.5 54 2.68 10.16 3.51 20.49 2.5 31-10.68-12.56-24.18-17.39-40.5-14.5-21.884 5.94-40.217 17.44-55 34.5-.667 0-1 .33-1 1-103.899-38.51-149.732-113.18-137.5-224a309.907 309.907 0 0 1 16.5-65 5013.664 5013.664 0 0 1 88-80 755.634 755.634 0 0 1 83-63 580.08 580.08 0 0 1 29-14 105.057 105.057 0 0 1 27-8z"/><path style="opacity:.973" fill="#ed0d8d" d="M1655.5 956.5c-34.61-3.891-67.28 2.276-98 18.5a91.29 91.29 0 0 0-15 10.5c-1.69-9.557-.85-18.89 2.5-28 12.89-12.196 28.05-20.363 45.5-24.5 15.27-4.164 30.6-4.498 46-1 10.62 4.795 16.96 12.962 19 24.5z"/><path style="opacity:.99" fill="#c0694e" d="M413.5 931.5h112c.483 68.7-.017 137.37-1.5 206-7.863 27.36-26.03 42.02-54.5 44-28.058-1.9-46.225-16.23-54.5-43a7286.57 7286.57 0 0 1-1.5-207z"/><path style="opacity:.994" fill="#c1694e" d="M913.5 931.5h83a755.634 755.634 0 0 0-83 63v-63z"/><path style="opacity:.999" fill="#5daee4" d="M1402.5 937.5a430.78 430.78 0 0 0 71 44c-21.24 61.98-34.74 125.64-40.5 191-.5 14.33-.67 28.66-.5 43-.1 8.08.57 16.08 2 24-1.31 12.32-.47 24.65 2.5 37 4.84 19.37 11.34 38.04 19.5 56-2.22 54.8-6.22 109.47-12 164-17.07 59.22-56.4 91.72-118 97.5-8.66.5-17.33.67-26 .5-56.85-4.36-113.19-11.69-169-22 35.05-172.6 69.72-345.26 104-518 35.22 6.36 67.22-1.14 96-22.5 32.65-24.81 56.32-56.309 71-94.5z"/><path style="opacity:1" fill="#355563" d="M1907.5 890.5c1.49 11.6.99 23.266-1.5 35-9.51 27.153-28.68 39.32-57.5 36.5a132.398 132.398 0 0 1-21-5.5c.42-.624 1.08-.957 2-1a68.647 68.647 0 0 0 25 4c26.04.607 41.71-11.726 47-37 1.92-3.304 3.08-6.971 3.5-11 .33-6.667.67-13.333 1-20 .38-.556.88-.889 1.5-1z"/><path style="opacity:1" fill="#f4ecc8" d="M1655.5 956.5a72.292 72.292 0 0 1 4 16c-13.8-.063-27.8.103-42 .5-27.61 2.687-51.61 13.187-72 31.5a112.661 112.661 0 0 1-3-19 91.29 91.29 0 0 1 15-10.5c30.72-16.224 63.39-22.391 98-18.5z"/><path style="opacity:.992" fill="#ed128c" d="M1659.5 972.5c3.28 10.304 5.28 20.97 6 32-21.35-2.78-42.68-2.62-64 .5-19.28 3.64-35.61 12.47-49 26.5-2.8-8.87-5.13-17.87-7-27 20.39-18.313 44.39-28.813 72-31.5 14.2-.397 28.2-.563 42-.5z"/><path style="opacity:1" fill="#f8db19" d="M1473.5 981.5a65.039 65.039 0 0 1 16 5.5c12.13 8.459 22.63 18.63 31.5 30.5a465.716 465.716 0 0 1 23 34 262.45 262.45 0 0 0 8.5-20c13.39-14.03 29.72-22.86 49-26.5 21.32-3.12 42.65-3.28 64-.5 26.77 47.23 45.44 97.57 56 151-11.46 35.2-25.96 69.2-43.5 102-11.78 21.13-26.62 39.96-44.5 56.5-25.92 22.04-53.92 25.21-84 9.5-8.68-13.19-14.35-27.69-17-43.5a416.06 416.06 0 0 1-5.5-95.5c2.99-43.56 9.49-86.56 19.5-129-1.52-2.56-3.02-2.56-4.5 0-16.09 65.41-22.09 131.75-18 199 2.38 22.18 7.88 43.51 16.5 64-1.79 1.12-3.79 1.29-6 .5-33.44-9.46-59.27-28.96-77.5-58.5-8.19-15.06-16.36-30.06-24.5-45-.17-14.34 0-28.67.5-43 5.76-65.36 19.26-129.02 40.5-191z"/><path style="opacity:1" fill="#4263b7" d="M1164.5 881.5c-2.57 30.756-.07 61.089 7.5 91 5.8 24.969 18.63 45.3 38.5 61 5.44 4.05 11.44 7.05 18 9 1.28 1.43 2.95 2.1 5 2 6.01 2.29 12.35 3.62 19 4h7c8.45-.22 16.79-1.22 25-3 10.08-2.71 19.75-6.54 29-11.5 39.05-24.54 67.38-58.037 85-100.5 1.67 1 3 2.333 4 4-14.68 38.191-38.35 69.69-71 94.5-28.78 21.36-60.78 28.86-96 22.5-34.28 172.74-68.95 345.4-104 518-2.24.29-4.24-.04-6-1 1.43-.38 2.26-1.38 2.5-3 34.52-172.08 69.35-344.08 104.5-516-10.66-2.82-20.33-7.65-29-14.5-18.66-17.02-31.16-37.86-37.5-62.5-7.03-29.922-9.87-60.255-8.5-91a45.524 45.524 0 0 0 7-3z"/><path style="opacity:1" fill="#b54723" d="M1549.5 1323.5c8.11 14.6 20.11 24.77 36 30.5-.57 1.21-1.24 2.37-2 3.5-19.15-7.82-33.48-20.82-43-39-8.62-20.49-14.12-41.82-16.5-64-4.09-67.25 1.91-133.59 18-199 1.48-2.56 2.98-2.56 4.5 0a799.492 799.492 0 0 0-19.5 129c-1.84 32.07 0 63.91 5.5 95.5 2.65 15.81 8.32 30.31 17 43.5z"/><path style="opacity:.99" fill="#d18223" d="M825.5 1074.5a309.907 309.907 0 0 0-16.5 65c-12.232 110.82 33.601 185.49 137.5 224-8.438 8.53-14.604 18.53-18.5 30-.638 9.26 2.196 17.26 8.5 24-18.462-1.7-36.129-6.37-53-14a179.428 179.428 0 0 1-40-25.5c-48.22-41.25-80.053-92.75-95.5-154.5-4.714-27.38-.047-53.05 14-77 17.742-26.92 38.909-50.92 63.5-72z"/><path style="opacity:1" fill="#f6da21" d="M1263.5 1089.5c-9.82 5.89-19.15 5.23-28-2 3.32-11.8 10.65-15.3 22-10.5 4.56 2.96 6.56 7.13 6 12.5z"/><path style="opacity:1" fill="#f26465" d="M1235.5 1087.5c8.85 7.23 18.18 7.89 28 2-2.44 12.99-9.78 16.82-22 11.5-4.22-3.5-6.22-8-6-13.5z"/><path style="opacity:1" fill="#d18222" d="M968.5 1188.5c-11.816-13.82-25.149-25.82-40-36a413.986 413.986 0 0 1-13.5-19c-1.944-3.82-2.611-7.82-2-12a17.785 17.785 0 0 1 5.5-4.5c13.353-3.88 23.853-.05 31.5 11.5 10.192 18.77 16.358 38.77 18.5 60z"/><path style="opacity:1" fill="#fabf7f" d="M2112.5 1183.5h-34c-1.21-6.43-3.55-12.43-7-18a87.71 87.71 0 0 0-19.5-13c-39.06.27-78.56.27-118.5 0-2.86 2.23-5.7 1.89-8.5-1-4.62.72-9.29 1.39-14 2-6.69.34-13.19.01-19.5-1-3.09.25-6.09.92-9 2-9.99-1.84-19.99-2.5-30-2-6.4 1.85-12.74 4.02-19 6.5-6.95 7.08-11.95 15.25-15 24.5h-37c-.17-3.35 0-6.68.5-10 2.27-7.62 4.94-15.29 8-23 1-.33 2-.67 3-1 11.35-17.53 27.18-28.53 47.5-33 18.11-1.14 36.61-1.14 55.5 0 .75-.63 1.58-1.13 2.5-1.5 3.83-.17 7.67-.33 11.5-.5 34.83.57 69.33.57 103.5 0 12.95.82 25.95 1.32 39 1.5 31.47 5.46 51.63 23.63 60.5 54.5.35 4.28.18 8.62-.5 13z"/><path style="opacity:1" fill="#b54723" d="M928.5 1152.5c14.851 10.18 28.184 22.18 40 36l2 3c-.667 0-1 .33-1 1-.923.8-1.923.97-3 .5a249.323 249.323 0 0 0-33-32c-18.16-13.94-38.66-21.78-61.5-23.5-9.795.27-19.295 1.77-28.5 4.5-1.333-1-1.333-2 0-3 10.906-4.65 22.239-6.32 34-5 18.461 2.23 35.461 8.4 51 18.5z"/><path style="opacity:1" fill="#d18223" d="M1721.5 1155.5c3.48 17.83 5.48 35.83 6 54v25c.06 14.15-1.28 28.15-4 42-7.37 45.26-27.71 83.42-61 114.5a159.186 159.186 0 0 1-22 14.5c-19.29 11.29-39.63 13.62-61 7-20.49-7.98-38.83-19.48-55-34.5-25.45-23.61-48.12-49.44-68-77.5-11.65-18.61-18.99-38.94-22-61-1.43-7.92-2.1-15.92-2-24 8.14 14.94 16.31 29.94 24.5 45 18.23 29.54 44.06 49.04 77.5 58.5 2.21.79 4.21.62 6-.5 9.52 18.18 23.85 31.18 43 39 .76-1.13 1.43-2.29 2-3.5-15.89-5.73-27.89-15.9-36-30.5 30.08 15.71 58.08 12.54 84-9.5 17.88-16.54 32.72-35.37 44.5-56.5 17.54-32.8 32.04-66.8 43.5-102z"/><path style="opacity:.988" fill="#925733" d="M1781.5 1183.5h37c-.96 8.93-.62 17.93 1 27-12.68-.01-25.34-.35-38-1-.42-8.62-.42-17.29 0-26z"/><path style="opacity:.983" fill="#925733" d="M2078.5 1183.5h34c3.97 8.48 4.63 17.15 2 26-12.05.29-24.05-.04-36-1a81.86 81.86 0 0 0 0-25z"/><path style="opacity:1" fill="#f7d91e" d="M1242.5 1197.5c.21 1.64-.12 3.14-1 4.5-9.87 5.44-18.87 4.27-27-3.5 4.18-11.42 11.85-14.59 23-9.5 2.59 2.36 4.26 5.19 5 8.5z"/><path style="opacity:1" fill="#f06567" d="M1242.5 1197.5c.62 12.86-5.71 18.36-19 16.5-6.23-3.3-9.23-8.47-9-15.5 8.13 7.77 17.13 8.94 27 3.5.88-1.36 1.21-2.86 1-4.5z"/><path style="opacity:1" fill="#cc7b4a" d="M2078.5 1208.5c11.95.96 23.95 1.29 36 1 7.3-2.16 14.63-2.33 22-.5 24.33.33 48.67.67 73 1 24.52 4.19 39.69 18.35 45.5 42.5 1.44 30.3 1.94 60.64 1.5 91-.79 35.26-.79 70.6 0 106 .43 17.38-.07 34.71-1.5 52-3.06 9.22-8.56 16.55-16.5 22-5.85 3.59-12.19 6.09-19 7.5-11.26 1.74-22.6 2.74-34 3-62.34-.29-124.67-.13-187 .5.37-8.4-.13-16.74-1.5-25-2.44-3.95-5.94-5.95-10.5-6 .17-5.34 0-10.68-.5-16l-1.5-1.5c-24-.67-48-.67-72 0l-1.5 1.5c-.5 4.99-.67 9.99-.5 15-5.37.94-9.2 3.94-11.5 9 0 7.58-.17 15.08-.5 22.5-55.01.03-110.01-.14-165-.5-15.85.21-31.69.88-47.5 2-10.35 1.59-19.51-.74-27.5-7-2.23-2.39-4.9-4.22-8-5.5-4.52-6.57-8.02-14.07-10.5-22.5.01-25.27.18-50.6.5-76v-19c7.72-4.22 15.06-9.05 22-14.5 33.29-31.08 53.63-69.24 61-114.5 7.02-.97 14.02-.97 21 0 1.45-.78 2.95-1.45 4.5-2 2.33.67 4.67 1.33 7 2 1.71.06 3.04-.61 4-2 1.12 1.62 2.62 2.62 4.5 3a92.01 92.01 0 0 1 7.5-2c1.37.34 2.53 1.01 3.5 2 .67-1 1.33-2 2-3 1.72 1.22 3.55 2.22 5.5 3 5.96-.56 11.79-1.72 17.5-3.5 6.19-.68 12.35-.51 18.5.5 8.79-2.39 17.62-2.56 26.5-.5 27.51.71 55.01.55 82.5-.5 12.75.67 25.41 1.34 38 2 6.42-1.41 12.92-2.24 19.5-2.5 2.25-.62 3.92-1.96 5-4 2-.33 4-.67 6-1 17.48-7.36 19.48-17.7 6-31-1.33-.67-2.67-1.33-4-2-41.84-.01-83.67.16-125.5.5-2.79-.3-5.29-1.3-7.5-3-5.78 2.02-11.78 2.52-18 1.5 1.21-1.02.87-1.52-1-1.5-.94.11-1.78.44-2.5 1-.31-.81-.81-1.47-1.5-2a17.386 17.386 0 0 1-7 3.5c-26.17 1.05-52.34 2.21-78.5 3.5-9.83-1.61-19.66-2.94-29.5-4v-25c18.02-.5 36.02-.5 54 0 12.66.65 25.32.99 38 1 9.03-.28 18.03.05 27 1 69.65-1.08 139.31-1.91 209-2.5 3.85-.35 7.69-.85 11.5-1.5 3.79.81 7.63 1.14 11.5 1z"/><path style="opacity:1" fill="#fcc180" d="M1723.5 1276.5c2.72-13.85 4.06-27.85 4-42 9.84 1.06 19.67 2.39 29.5 4 26.16-1.29 52.33-2.45 78.5-3.5 2.61-.64 4.95-1.81 7-3.5.69.53 1.19 1.19 1.5 2 .72-.56 1.56-.89 2.5-1 1.87-.02 2.21.48 1 1.5 6.22 1.02 12.22.52 18-1.5 2.21 1.7 4.71 2.7 7.5 3 41.83-.34 83.66-.51 125.5-.5 1.33.67 2.67 1.33 4 2 13.48 13.3 11.48 23.64-6 31-2 .33-4 .67-6 1-1.08 2.04-2.75 3.38-5 4-6.58.26-13.08 1.09-19.5 2.5-12.59-.66-25.25-1.33-38-2-27.49 1.05-54.99 1.21-82.5.5-8.88-2.06-17.71-1.89-26.5.5a67.853 67.853 0 0 0-18.5-.5 85.485 85.485 0 0 1-17.5 3.5c-1.95-.78-3.78-1.78-5.5-3-.67 1-1.33 2-2 3a7.244 7.244 0 0 0-3.5-2 92.01 92.01 0 0 0-7.5 2c-1.88-.38-3.38-1.38-4.5-3-.96 1.39-2.29 2.06-4 2-2.33-.67-4.67-1.33-7-2-1.55.55-3.05 1.22-4.5 2-6.98-.97-13.98-.97-21 0z"/><path style="opacity:1" fill="#456aba" d="M1434.5 1239.5c3.01 22.06 10.35 42.39 22 61v32c-8.16-17.96-14.66-36.63-19.5-56-2.97-12.35-3.81-24.68-2.5-37z"/><path style="opacity:1" fill="#f6da22" d="M1222.5 1312.5c-8.24 4.96-16.57 5.12-25 .5-1.64-1.13-2.64-2.63-3-4.5 2.42-8.55 8.08-12.05 17-10.5 6.92 2.34 10.59 7.17 11 14.5z"/><path style="opacity:1" fill="#ec118d" d="M1050.5 1349.5c-36.03-1.16-65.697 12.18-89 40-.958-.45-1.792-1.12-2.5-2a210.933 210.933 0 0 1-11.5-25c14.783-17.06 33.116-28.56 55-34.5 16.32-2.89 29.82 1.94 40.5 14.5 1.01-10.51.18-20.84-2.5-31 3.63-3.13 7.13-6.46 10.5-10 8.14 7.14 15.97 14.64 23.5 22.5a288.204 288.204 0 0 0-24 25.5z"/><path style="opacity:1" fill="#ef6667" d="M1194.5 1308.5c.36 1.87 1.36 3.37 3 4.5 8.43 4.62 16.76 4.46 25-.5-2.45 10.96-9.12 15.12-20 12.5-4.55-1.59-7.39-4.75-8.5-9.5-.8-2.54-.63-4.87.5-7z"/><path style="opacity:.989" fill="#925733" d="M2256.5 1343.5c20.14 26.24 37.31 54.57 51.5 85 2.83 8.24 5.5 16.24 8 24l1-1c27.66 74.6 23.66 147.94-12 220-21.88 45.24-54.05 81.4-96.5 108.5a248.692 248.692 0 0 1-38 18c-11.02 7.12-23.02 12.12-36 15-8.52.1-16.85 1.77-25 5-10.19.97-20.52 2.3-31 4-16.33.67-32.67.67-49 0a216.92 216.92 0 0 0-34-3.5 71.653 71.653 0 0 0 4.5-17 678.54 678.54 0 0 1 4-41c1.05-5.29.55-10.29-1.5-15 22.58 2.92 45.25 4.09 68 3.5 89.19-5.82 151.35-49.65 186.5-131.5 18.28-43.92 21.61-88.92 10-135a384.404 384.404 0 0 0-10.5-33c-.79-35.4-.79-70.74 0-106z"/><path style="opacity:1" fill="#f3edc8" d="M1050.5 1349.5c3.69 4.69 7.36 9.35 11 14-26.78-.73-51.11 6.44-73 21.5-6.954 6.11-12.954 12.95-18 20.5-3.751-4.49-6.751-9.49-9-15v-1c23.303-27.82 52.97-41.16 89-40z"/><path style="opacity:1" fill="#eb0e8d" d="M1321.5 1353.5c1-.09 1.83.25 2.5 1l81 126c.75 1.14.58 2.14-.5 3a453.05 453.05 0 0 1-30 20c-25.83-43.67-51.67-87.33-77.5-131-.68-1.28-.52-2.45.5-3.5 8.23-4.94 16.23-10.11 24-15.5z"/><path style="opacity:.994" fill="#a1d898" d="M653.5 1403.5a121.517 121.517 0 0 0-33 14.5 895.833 895.833 0 0 0-33 23c-25.855 26.36-46.855 56.2-63 89.5a206.734 206.734 0 0 0-32-22 4.939 4.939 0 0 0-.5-3c-23.23-21.57-50.063-36.73-80.5-45.5a348.405 348.405 0 0 0-43-8 74.349 74.349 0 0 0-21 1c-1.194 2.66-.194 3.82 3 3.5 25.356 8.18 48.69 20.35 70 36.5 24.647 19.55 45.98 42.05 64 67.5 3.934 23.4 9.601 46.4 17 69a1249.316 1249.316 0 0 0-152 62c-17.182-50.08-26.849-101.58-29-154.5-2.878-60.6 21.455-106.26 73-137a376.737 376.737 0 0 1 79-34c47.328-9.63 92.995-4.63 137 15a455.269 455.269 0 0 1 44 22.5z"/><path style="opacity:1" fill="#eb0f8d" d="M1061.5 1363.5c4.3 4.57 8.13 9.57 11.5 15 8.72 13.5 9.72 27.5 3 42-11.92 17.76-27.42 31.43-46.5 41-6.82.08-12.49-2.26-17-7 24.38-3.55 42.21-16.22 53.5-38 5.66-18.31-1.17-27.65-20.5-28-17.55 2.86-32.38 10.86-44.5 24-5.098 6.2-8.598 13.2-10.5 21-.996.09-1.829-.25-2.5-1a182.498 182.498 0 0 1-17.5-26v-1c5.046-7.55 11.046-14.39 18-20.5 21.89-15.06 46.22-22.23 73-21.5z"/><path style="opacity:1" fill="#d41074" d="M947.5 1362.5a210.933 210.933 0 0 0 11.5 25c.708.88 1.542 1.55 2.5 2v1a59.673 59.673 0 0 0-5.5 7c-5.046 9.08-9.213 18.41-12.5 28-2.362-2.69-4.696-5.36-7-8-6.304-6.74-9.138-14.74-8.5-24 3.896-11.47 10.062-21.47 18.5-30 0-.67.333-1 1-1z"/><path style="opacity:1" fill="#6f195b" d="M1012.5 1454.5c-15.228 1.1-22.561-5.9-22-21 1.902-7.8 5.402-14.8 10.5-21 12.12-13.14 26.95-21.14 44.5-24 19.33.35 26.16 9.69 20.5 28-11.29 21.78-29.12 34.45-53.5 38z"/><path style="opacity:.999" fill="#c983ab" d="M961.5 1390.5c2.249 5.51 5.249 10.51 9 15v1c-6.559 10.34-10.559 21.67-12 34a160.155 160.155 0 0 1-15-15c3.287-9.59 7.454-18.92 12.5-28a59.673 59.673 0 0 1 5.5-7z"/><path style="opacity:.999" fill="#4167b9" d="M883.5 1403.5c16.871 7.63 34.538 12.3 53 14 2.304 2.64 4.638 5.31 7 8a160.155 160.155 0 0 0 15 15 764.811 764.811 0 0 0 23 23.5c8.242 5.24 17.242 6.91 27 5a99.912 99.912 0 0 0 20-6.5 389.996 389.996 0 0 0-17.5 33c-5.28 11.27-8.44 23.1-9.5 35.5.05 6.02 1.71 11.52 5 16.5a1328.983 1328.983 0 0 1-125-34c-12.2-6.38-19.7-16.38-22.5-30-.5-7.33-.666-14.66-.5-22 3.119-12.35 7.452-24.35 13-36a175.32 175.32 0 0 1 12-22z"/><path style="opacity:.99" fill="#915632" d="M1640.5 1405.5v19c-33.11 42.87-64.28 87.2-93.5 133-10.26 14.86-16.93 31.19-20 49-1.09 12.07 2.25 22.74 10 32 9.07 10.08 19.57 18.24 31.5 24.5a229.2 229.2 0 0 0 32 14.5c-8.09 7.18-12.76 16.18-14 27-27.04.32-54.04-.02-81-1-45.53-40.82-56.03-89.48-31.5-146a269.215 269.215 0 0 1 19-33c18-24.67 36-49.33 54-74a575.74 575.74 0 0 0 32.5-38c21.37 6.62 41.71 4.29 61-7z"/><path style="opacity:1" fill="#d30d75" d="M970.5 1406.5a182.498 182.498 0 0 0 17.5 26c.671.75 1.504 1.09 2.5 1-.561 15.1 6.772 22.1 22 21 4.51 4.74 10.18 7.08 17 7 0 .67-.33 1-1 1a99.912 99.912 0 0 1-20 6.5c-9.758 1.91-18.758.24-27-5a764.811 764.811 0 0 1-23-23.5c1.441-12.33 5.441-23.66 12-34z"/><path style="opacity:1" fill="#f7da1e" d="M1201.5 1423.5c-8.18 5.1-16.51 5.26-25 .5-1.56-.76-2.56-1.93-3-3.5.91-4.76 3.58-8.26 8-10.5 11.43-2.39 18.1 2.11 20 13.5z"/><path style="opacity:1" fill="#f2f5e6" d="M574.5 1409.5c1.478-.26 2.811.07 4 1-8.877 5.42-18.21 9.59-28 12.5a432.044 432.044 0 0 1 24-13.5z"/><path style="opacity:1" fill="#fdf8f1" d="M858.5 1461.5c-.166 7.34 0 14.67.5 22 2.8 13.62 10.3 23.62 22.5 30a43.313 43.313 0 0 0-3 10c-1.908 4.4-3.241 9.07-4 14-2.091 4.69-3.424 9.69-4 15a188.414 188.414 0 0 0-3 13c-2.721 9.03-3.555 18.36-2.5 28 .583 1.5 1.416 2.83 2.5 4a252.233 252.233 0 0 0 36 11.5 1811.778 1811.778 0 0 0 71 16.5c-10.86 93.03-61.86 150.53-153 172.5-55.386 11.33-106.72 1.67-154-29-42.914-27.57-75.081-64.41-96.5-110.5-16.329-40.52-17.662-81.52-4-123 6.723-16.46 15.723-31.46 27-45 14.315-16.99 30.482-31.82 48.5-44.5 11.733-4.85 23.4-9.85 35-15 40.177-11.79 80.177-11.12 120 2a317.855 317.855 0 0 1 61 28.5z"/><path style="opacity:1" fill="#f06766" d="M1173.5 1420.5c.44 1.57 1.44 2.74 3 3.5 8.49 4.76 16.82 4.6 25-.5-1.7 10.86-8.04 15.36-19 13.5-7.16-3.49-10.16-8.99-9-16.5z"/><path style="opacity:1" fill="#f4f5e8" d="M589.5 1418.5c2.442-.15 3.109.69 2 2.5-20.303 7.57-38.136 19.07-53.5 34.5-.667-.67-.667-1.33 0-2 14.489-15.81 31.656-27.48 51.5-35z"/><path style="opacity:1" fill="#3e5e54" d="M809.5 1447.5c1.603-.19 2.937.31 4 1.5a61.759 61.759 0 0 0-3.5 13.5c-1.527 1.72-2.527 3.72-3 6-2.538 1.43-4.372.76-5.5-2 3.818-5.77 6.485-12.11 8-19z"/><path style="opacity:.995" fill="#385b4f" d="M492.5 1508.5c-1.55 1.22-3.216 1.22-5 0a38.416 38.416 0 0 0-5-5.5 274.023 274.023 0 0 1-23-16 214.143 214.143 0 0 0-24-14 489.512 489.512 0 0 0-46-14 222.275 222.275 0 0 0-39-2.5c-3.194.32-4.194-.84-3-3.5a74.349 74.349 0 0 1 21-1 348.405 348.405 0 0 1 43 8c30.437 8.77 57.27 23.93 80.5 45.5.483.95.649 1.95.5 3z"/><path style="opacity:1" fill="#3f5f55" d="M668.5 1453.5c4.28 2.12 7.446 5.45 9.5 10a94.33 94.33 0 0 1 21.5 22.5 3.947 3.947 0 0 1-1 2c-2.288.42-4.288-.25-6-2-6.384-9.39-13.884-17.89-22.5-25.5-1.829-2.23-2.329-4.57-1.5-7z"/><path style="opacity:.997" fill="#7cab9a" d="M350.5 1456.5c13.074-.31 26.074.52 39 2.5a489.512 489.512 0 0 1 46 14 214.143 214.143 0 0 1 24 14 274.023 274.023 0 0 0 23 16c1.873 1.7 3.54 3.54 5 5.5-2.325 1.15-3.492 3.15-3.5 6a130.41 130.41 0 0 0-1.5 16l2 30c-18.02-25.45-39.353-47.95-64-67.5-21.31-16.15-44.644-28.32-70-36.5z"/><path style="opacity:.987" fill="#3a5d51" d="M653.5 1403.5h1v3c-2.427.02-4.76.52-7 1.5-42.183 18.01-74.849 46.85-98 86.5a219.382 219.382 0 0 0-21 39h-3a5.72 5.72 0 0 1-1-3c16.145-33.3 37.145-63.14 63-89.5a895.833 895.833 0 0 1 33-23 121.517 121.517 0 0 1 33-14.5z"/><path style="opacity:1" fill="#f3f5e7" d="M387.5 1483.5c3.398-.32 6.732.01 10 1-23.164 3.5-42.997 13.5-59.5 30 4.025-6.69 9.525-12.19 16.5-16.5 10.376-6.53 21.376-11.36 33-14.5z"/><path style="opacity:1" fill="#fbc07f" d="M1986.5 1503.5c-.8 20.64-1.3 41.3-1.5 62-9.42.99-18.92 1.32-28.5 1 .17-5.68 0-11.34-.5-17-4.71-6.07-9.71-6.4-15-1 .06 6.14-.1 12.14-.5 18-9.58.32-19.08-.01-28.5-1-.17-21.17-.67-42.17-1.5-63-.17-5.01 0-10.01.5-15l1.5-1.5c24-.67 48-.67 72 0l1.5 1.5c.5 5.32.67 10.66.5 16z"/><path style="opacity:1" fill="#c0e9e0" d="M776.5 1590.5a18.207 18.207 0 0 0-8-.5 64.879 64.879 0 0 1-7 6.5 1156.057 1156.057 0 0 1-59.5-95 114.369 114.369 0 0 1-3.5-9.5l1-1.5a163.76 163.76 0 0 1 20.5 22 2107.937 2107.937 0 0 1 56.5 78z"/><path style="opacity:1" fill="#eff3e3" d="M397.5 1488.5c3.222-.39 6.222.11 9 1.5-10.601.47-19.601 4.47-27 12-1.225.56-2.225.23-3-1 6.181-5.75 13.181-9.92 21-12.5z"/><path style="opacity:.999" fill="#7dac9b" d="M549.5 1494.5c-16.786 44.39-23.953 90.39-21.5 138 3.994 61.85 31.161 110.35 81.5 145.5 63.725 41.77 133.725 62.1 210 61a302.279 302.279 0 0 0 78-17 963.628 963.628 0 0 0 37-17c-45.012 30.34-94.679 48.01-149 53-11.328.5-22.662.67-34 .5a207.457 207.457 0 0 1-53-7.5c-39.01-12.67-74.677-31.33-107-56a707.14 707.14 0 0 1-23-21.5c0-.67-.333-1-1-1-4.697-5.69-9.363-11.36-14-17-31.382-36.5-46.382-78.5-45-126 0-.67-.333-1-1-1 .511-32.74 6.511-64.4 18-95h3a219.382 219.382 0 0 1 21-39z"/><path style="opacity:.999" fill="#935733" d="M1910.5 1502.5c.83 20.83 1.33 41.83 1.5 63 9.42.99 18.92 1.32 28.5 1 .4-5.86.56-11.86.5-18 5.29-5.4 10.29-5.07 15 1 .5 5.66.67 11.32.5 17 9.58.32 19.08-.01 28.5-1 .2-20.7.7-41.36 1.5-62 4.56.05 8.06 2.05 10.5 6 1.37 8.26 1.87 16.6 1.5 25 62.33-.63 124.66-.79 187-.5 11.4-.26 22.74-1.26 34-3 6.81-1.41 13.15-3.91 19-7.5v32h-240c1.24 18.76-7.43 26.76-26 24h-17c.27 4.1-.23 8.1-1.5 12-10.91 3.26-15.41-.74-13.5-12-9.93.29-19.93-.04-30-1-5.41-1.7-9.07-5.2-11-10.5.33-1 .67-2 1-3-1.73-2.89-2.39-6.05-2-9.5h-240c-1.25-8.95-1.25-17.95 0-27 7.99 6.26 17.15 8.59 27.5 7 15.81-1.12 31.65-1.79 47.5-2 54.99.36 109.99.53 165 .5.33-7.42.5-14.92.5-22.5 2.3-5.06 6.13-8.06 11.5-9z"/><path style="opacity:1" fill="#4369bb" d="M1444.5 1496.5c-2.87 28.15-10.7 54.82-23.5 80-5.76 10.63-14.26 18.13-25.5 22.5a33.62 33.62 0 0 1-11 1.5c-28.06-1.02-56.06-3.02-84-6 8.67.17 17.34 0 26-.5 61.6-5.78 100.93-38.28 118-97.5z"/><path style="opacity:1" fill="#955a35" d="M1946.5 1507.5c5.87 1.04 9.2 4.54 10 10.5-2.58 4.89-6.58 6.55-12 5a27.394 27.394 0 0 1-4-9c2.14-1.97 4.14-4.14 6-6.5z"/><path style="opacity:1" fill="#d31075" d="M881.5 1513.5a1328.983 1328.983 0 0 0 125 34c.67 0 1 .33 1 1-2.26 4.18-4.26 8.52-6 13a1488.907 1488.907 0 0 1-121-35.5c-1.256-.42-1.923-1.25-2-2.5.601-3.47 1.601-6.8 3-10z"/><path style="opacity:1" fill="#f7da1f" d="M1180.5 1535.5c-9.8 5.87-19.13 5.21-28-2 .73-8.23 5.23-12.56 13.5-13 9.05.88 13.88 5.88 14.5 15z"/><path style="opacity:1" fill="#ca83ab" d="M878.5 1523.5c.077 1.25.744 2.08 2 2.5a1488.907 1488.907 0 0 0 121 35.5c.67 0 1 .33 1 1-.88-.13-1.54.2-2 1a92.828 92.828 0 0 0-4 10 1425.095 1425.095 0 0 1-122-36c.759-4.93 2.092-9.6 4-14z"/><path style="opacity:1" fill="#3f5f55" d="M576.5 1531.5a566.715 566.715 0 0 1 25 7.5c.906 1.7 1.239 3.53 1 5.5-1.699.16-3.366-.01-5-.5a129.388 129.388 0 0 0-20.5-8.5 8.43 8.43 0 0 1-.5-4z"/><path style="opacity:1" fill="#f16266" d="M1152.5 1533.5c8.87 7.21 18.2 7.87 28 2-1.91 10.63-8.24 14.8-19 12.5-6.42-2.68-9.42-7.51-9-14.5z"/><path style="opacity:1" fill="#d41075" d="M874.5 1537.5a1425.095 1425.095 0 0 0 122 36 95.343 95.343 0 0 0-6 18 1261.332 1261.332 0 0 1-120-39c.576-5.31 1.909-10.31 4-15z"/><path style="opacity:.996" fill="#ec118d" d="M1007.5 1548.5c39.08 8.95 78.41 16.62 118 23 1.76.96 3.76 1.29 6 1 55.81 10.31 112.15 17.64 169 22 27.94 2.98 55.94 4.98 84 6 .31 3.87-.02 7.54-1 11a1131.53 1131.53 0 0 1-173-9c-.15 4.02-.48 8.02-1 12 57.42 7.39 115.09 10.39 173 9-.08 7.1-.74 14.1-2 21h-31c-47.02-.76-93.85-4.09-140.5-10-1.66.18-2.99.84-4 2a31.465 31.465 0 0 0-1.5 10c58.1 7.1 116.44 10.77 175 11-2.57 18.73-13.4 27.4-32.5 26-79.47-5.2-158.31-15.37-236.5-30.5-31.37-6.06-62.71-12.23-94-18.5-8.65-1.99-17.312-3.99-26-6-2.928-8.14-3.595-16.47-2-25 25.41 7.1 51.08 13.1 77 18 .28-3.41.95-6.74 2-10-24.9-6.48-49.9-12.81-75-19 0-.67-.333-1-1-1a95.343 95.343 0 0 1 6-18c24.54 6.3 49.2 11.97 74 17 .54-4.02 1.2-8.02 2-12-23.48-4.7-46.81-10.04-70-16 0-.67-.33-1-1-1 1.74-4.48 3.74-8.82 6-13z"/><path style="opacity:1" fill="#cb83ab" d="M870.5 1552.5a1261.332 1261.332 0 0 0 120 39c.667 0 1 .33 1 1-1.086.12-1.753.79-2 2a87.513 87.513 0 0 0-2 9 1140.677 1140.677 0 0 1-120-38c.873-4.48 1.873-8.82 3-13z"/><path style="opacity:1" fill="#cc7b4a" d="M1658.5 1555.5h240c-.39 3.45.27 6.61 2 9.5-.33 1-.67 2-1 3 1.93 5.3 5.59 8.8 11 10.5-.17 9.67 0 19.34.5 29 .94 3.32 1.78 6.66 2.5 10-45.77.08-91.61.41-137.5 1-26.18.09-52.35-.41-78.5-1.5-22.03-5.36-35.2-19.2-39.5-41.5-.66-6.69-.5-13.36.5-20zM2238.5 1555.5c3.51 19.81-1.82 36.65-16 50.5-5.44 4.05-11.44 7.05-18 9-16.11 1.5-32.27 2.33-48.5 2.5-41.34-.82-82.67-1.15-124-1-16.61.11-33.11 1.11-49.5 3 1.67-4.52 2.84-9.19 3.5-14 .5-8.66.67-17.33.5-26h-14c18.57 2.76 27.24-5.24 26-24h240z"/><path style="opacity:1" fill="#f4edc8" d="M1002.5 1562.5c23.19 5.96 46.52 11.3 70 16-.8 3.98-1.46 7.98-2 12-24.8-5.03-49.46-10.7-74-17a92.828 92.828 0 0 1 4-10c.46-.8 1.12-1.13 2-1z"/><path style="opacity:1" fill="#d41376" d="M867.5 1565.5a1140.677 1140.677 0 0 0 120 38c-1.595 8.53-.928 16.86 2 25a136.782 136.782 0 0 1-15-3 1811.778 1811.778 0 0 1-71-16.5 252.233 252.233 0 0 1-36-11.5 12.479 12.479 0 0 1-2.5-4c-1.055-9.64-.221-18.97 2.5-28z"/><path style="opacity:1" fill="#fcc180" d="M1910.5 1578.5c10.07.96 20.07 1.29 30 1-1.91 11.26 2.59 15.26 13.5 12 1.27-3.9 1.77-7.9 1.5-12h31c.17 8.67 0 17.34-.5 26-.66 4.81-1.83 9.48-3.5 14-9.63 18.97-24.96 25.8-46 20.5-11.48-3.65-19.15-11.15-23-22.5-.72-3.34-1.56-6.68-2.5-10-.5-9.66-.67-19.33-.5-29z"/><path style="opacity:1" fill="#f9d81d" d="M1164.5 1596.5c.26 1.48-.07 2.81-1 4-8.12 5.48-16.12 5.32-24-.5-1.54-1.11-2.2-2.61-2-4.5 1.86-6.44 6.19-9.78 13-10 7.65-.01 12.32 3.66 14 11z"/><path style="opacity:1" fill="#a2d998" d="M776.5 1590.5c10.985 3.31 16.652 10.64 17 22l-3 6c-8.207 4.2-16.207 3.87-24-1-4.833-5.01-6.833-11.01-6-18a5.72 5.72 0 0 1 1-3 64.879 64.879 0 0 0 7-6.5c2.692-.43 5.359-.26 8 .5z"/><path style="opacity:1" fill="#f4edc8" d="M991.5 1592.5c25.1 6.19 50.1 12.52 75 19a44.339 44.339 0 0 0-2 10c-25.92-4.9-51.59-10.9-77-18a87.513 87.513 0 0 1 2-9c.247-1.21.914-1.88 2-2z"/><path style="opacity:1" fill="#f36065" d="M1137.5 1595.5c-.2 1.89.46 3.39 2 4.5 7.88 5.82 15.88 5.98 24 .5.93-1.19 1.26-2.52 1-4 1.46 10.06-3.04 15.73-13.5 17-11.1-1.24-15.6-7.24-13.5-18z"/><path style="opacity:1" fill="#f4edc8" d="M1383.5 1611.5c.32 4.2-.02 8.2-1 12-57.91 1.39-115.58-1.61-173-9 .52-3.98.85-7.98 1-12a1131.53 1131.53 0 0 0 173 9z"/><path style="opacity:1" fill="#c0e9e0" d="M760.5 1599.5c-.833 6.99 1.167 12.99 6 18a1876.014 1876.014 0 0 1-73 26.5c-1.759.8-3.426.63-5-.5 6.667-6.82 14.334-12.32 23-16.5a1495.478 1495.478 0 0 1 47-22 61.16 61.16 0 0 1 2-5.5z"/><path style="opacity:1" fill="#80ad9d" d="M793.5 1612.5a745.374 745.374 0 0 1 79 58.5 191.182 191.182 0 0 1 16 17c-2.775-.37-5.442-1.37-8-3a981.06 981.06 0 0 1-90-66.5l3-6z"/><path style="opacity:1" fill="#f8d91b" d="M1156.5 1631.5c.24 1.97-.09 3.8-1 5.5-8.21 4.9-16.21 4.57-24-1-1.32-.82-1.99-1.98-2-3.5 3.48-10.35 10.48-13.51 21-9.5 3.02 2.18 5.02 5.01 6 8.5z"/><path style="opacity:.995" fill="#bee8df" d="M507.5 1628.5c.667 0 1 .33 1 1-.997-.03-1.664.47-2 1.5a47.404 47.404 0 0 0-2 15 296.792 296.792 0 0 0 6 39 3298.342 3298.342 0 0 0-138 67c-.752.67-1.086 1.5-1 2.5-5.067 1.63-9.734.8-14-2.5-12.461-13.38-18.627-29.22-18.5-47.5a20.504 20.504 0 0 1 3-8 94.127 94.127 0 0 1 7.5-5 1249.316 1249.316 0 0 1 152-62c1.935-.65 3.935-.98 6-1z"/><path style="opacity:1" fill="#395c51" d="M508.5 1629.5c-1.382 47.5 13.618 89.5 45 126-32.833 17.76-65.833 35.59-99 53.5a816.144 816.144 0 0 1-33 20c-4.333 2.67-9 4.5-14 5.5-.667 0-1-.33-1-1-.086-1 .248-1.83 1-2.5a2573.763 2573.763 0 0 0 73-42 3046.422 3046.422 0 0 1 65-35 122.14 122.14 0 0 1-14.5-18.5c-4.895-9.79-9.728-19.46-14.5-29-1.038-5.79-3.038-11.12-6-16a343.675 343.675 0 0 1-22 11.5 1458.005 1458.005 0 0 0-103 49 51.808 51.808 0 0 1-13 4.5c-.667 0-1-.33-1-1-.086-1 .248-1.83 1-2.5a3298.342 3298.342 0 0 1 138-67 296.792 296.792 0 0 1-6-39 47.404 47.404 0 0 1 2-15c.336-1.03 1.003-1.53 2-1.5z"/><path style="opacity:1" fill="#f4ecc8" d="M1349.5 1644.5c9.82.99 19.82 1.33 30 1v5c.2 2.45-.13 4.78-1 7-58.56-.23-116.9-3.9-175-11-.04-3.41.46-6.74 1.5-10 1.01-1.16 2.34-1.82 4-2 46.65 5.91 93.48 9.24 140.5 10z"/><path style="opacity:1" fill="#f36065" d="M1156.5 1631.5c1.99 10.37-2.34 16.37-13 18-10.74-1.05-15.41-6.72-14-17 .01 1.52.68 2.68 2 3.5 7.79 5.57 15.79 5.9 24 1 .91-1.7 1.24-3.53 1-5.5z"/><path style="opacity:1" fill="#f2b3b8" d="M1349.5 1644.5h31c.29 2.24-.04 4.24-1 6v-5c-10.18.33-20.18-.01-30-1z"/><path style="opacity:.994" fill="#010101" d="M1641.5 1691.5c2.9 8.7 8.57 11.37 17 8 3.83-.25 7.16.92 10 3.5 8.37 6.7 15.71 14.37 22 23 4.33-.82 8.66-1.99 13-3.5 9.34 5.86 15.68 14.02 19 24.5-.09 1.11-.42 2.11-1 3-2.67.33-5.33.67-8 1-1.46.42-1.96 1.26-1.5 2.5 9.58 12.82 18.91 25.82 28 39 5.26 2.77 10.09 6.1 14.5 10 3.44 5.23 6.11 10.89 8 17-.11.94-.44 1.78-1 2.5 5.84 8 11.84 15.83 18 23.5 3.17-1.7 6.5-2.2 10-1.5 7.89 5.29 13.23 12.46 16 21.5-1.78 2.6-4.11 4.77-7 6.5a386.646 386.646 0 0 0 30 36c3.33 0 6.5-.83 9.5-2.5 7.96 3.31 13.96 8.64 18 16 .67 1.33.67 2.67 0 4-1.49.66-2.65 1.66-3.5 3 7.75 6.29 15.91 11.96 24.5 17l4-4c7 2.42 13.84 5.25 20.5 8.5l3.5 3.5c.17 2.97.34 5.8.5 8.5a516.19 516.19 0 0 0 32.5 15.5c-.57-3.59-1.07-7.26-1.5-11 9.74.52 18.74 3.36 27 8.5.63.75 1.13 1.58 1.5 2.5.5 3.65.67 7.32.5 11 13.19 4.73 26.52 9.06 40 13v-5c13.22-1.56 22.88 3.44 29 15 13.81 4.62 27.81 8.62 42 12 .93-1.19 1.26-2.52 1-4 10.26-.45 19.93 1.72 29 6.5 1.24 1.15 2.24 2.49 3 4 14.91 3.25 29.74 6.75 44.5 10.5 31.76-3.88 63.59-4.71 95.5-2.5 19.55.69 35.05 8.86 46.5 24.5 2.72-2.82 5.05-2.49 7 1 5 7.67 10 15.33 15 23 8.78 24.32 12.44 49.32 11 75-.44 2.88-1.44 5.54-3 8-8.52 6.85-18.02 12.01-28.5 15.5-107.56 34.85-217.9 53.18-331 55-58.66 1.1-117.33 1.76-176 2-103.32 3.32-206.65 6.15-310 8.5-31.77-.09-63.44-1.92-95-5.5-17.19-1.45-32.86-6.95-47-16.5-.33-.83-.67-1.67-1-2.5-.67-32.24.83-64.4 4.5-96.5 3.15-1.86 6.65-2.53 10.5-2a593.678 593.678 0 0 1-.5-82 2545.38 2545.38 0 0 0 23-116c12.79-77.78 16.96-155.95 12.5-234.5.53-.69 1.19-1.19 2-1.5 38.46 5.52 77.12 8.86 116 10 26.96.98 53.96 1.32 81 1 1.24-10.82 5.91-19.82 14-27 5.56-7.62 12.9-10.46 22-8.5 2.12 1.12 3.96 2.62 5.5 4.5 3.95 6.44 8.45 12.44 13.5 18z"/><path style="opacity:1" fill="#fcc180" d="M2002.5 1745.5c2.05 4.71 2.55 9.71 1.5 15a678.54 678.54 0 0 0-4 41 71.653 71.653 0 0 1-4.5 17c-9.28 13.37-21.78 17.7-37.5 13-.89.58-1.89.91-3 1a2077.517 2077.517 0 0 0-166-26c-6.34.88-12.51.05-18.5-2.5-5.31-.83-10.64-1.33-16-1.5-4.41-3.9-9.24-7.23-14.5-10-9.09-13.18-18.42-26.18-28-39-.46-1.24.04-2.08 1.5-2.5 2.67-.33 5.33-.67 8-1 .58-.89.91-1.89 1-3-3.32-10.48-9.66-18.64-19-24.5-4.34 1.51-8.67 2.68-13 3.5-6.29-8.63-13.63-16.3-22-23-2.84-2.58-6.17-3.75-10-3.5-.74.13-1.41-.04-2-.5a18.25 18.25 0 0 0 2-3.5c5.03-4.61 11.03-7.45 18-8.5 5.03-.27 10.03-.77 15-1.5a4361.56 4361.56 0 0 1 187 27.5c22.55 3.32 45.21 5.65 68 7 2.23 2.21 4.23 2.37 6 .5 13.58 1.99 26.91 5.15 40 9.5 4.81 4.29 8.14 9.46 10 15.5z"/><path style="opacity:.996" fill="#a1d897" d="M516.5 1706.5c-46.713 20.86-92.38 43.52-137 68a324.992 324.992 0 0 1-7-19 51.808 51.808 0 0 0 13-4.5 1458.005 1458.005 0 0 1 103-49 343.675 343.675 0 0 0 22-11.5c2.962 4.88 4.962 10.21 6 16z"/><path style="opacity:.939" fill="#905633" d="M1641.5 1691.5c5.71 1.18 11.37 2.51 17 4a18.25 18.25 0 0 1-2 3.5c.59.46 1.26.63 2 .5-8.43 3.37-14.1.7-17-8z"/><path style="opacity:.996" fill="#bee8df" d="M516.5 1706.5c4.772 9.54 9.605 19.21 14.5 29a122.14 122.14 0 0 0 14.5 18.5 3046.422 3046.422 0 0 0-65 35 2573.763 2573.763 0 0 1-73 42c-.752.67-1.086 1.5-1 2.5-4.044.54-7.711-.29-11-2.5-14.301-14.4-20.801-31.57-19.5-51.5.697-2.08 1.864-3.75 3.5-5 44.62-24.48 90.287-47.14 137-68z"/><path style="opacity:1" fill="#f1f1f1" d="M1602.5 1706.5c1.89-.2 3.39.46 4.5 2 3.67 6.33 7.33 12.67 11 19 18.39 37.16 36.39 74.49 54 112a380.275 380.275 0 0 0 54 76c23.26 25.6 48.1 49.43 74.5 71.5 38.02 28.5 80.35 48.17 127 59a3061.094 3061.094 0 0 0 258 42c3.59-.29 5.09 1.21 4.5 4.5-1.13 1.44-2.63 2.11-4.5 2a3419.116 3419.116 0 0 1-258-42.5c-63.65-14.65-118.65-44.65-165-90-25.39-24.04-48.56-49.88-69.5-77.5-23.96-36.58-44.29-75.25-61-116a776.045 776.045 0 0 0-30-57c-.64-1.77-.47-3.43.5-5z"/><path style="opacity:1" fill="#fafafa" d="M1701.5 1726.5c4.14 1.62 7.64 4.29 10.5 8a198.6 198.6 0 0 1 6.5 11.5c-9.96 2.48-19.63 5.81-29 10-5.58 1.65-11.24 2.32-17 2a81.45 81.45 0 0 1-4-7.5c8.27-11.96 19.27-19.96 33-24z"/><path style="opacity:1" fill="#f4f4f4" d="M1662.5 1736.5c3.91.01 7.57.85 11 2.5a30.134 30.134 0 0 0-6 7c-7.03 1.68-8.86 5.85-5.5 12.5 2.45 3.14 5.61 5.14 9.5 6 5.67-2.39 11.5-4.06 17.5-5 .22 4.73-1.61 8.56-5.5 11.5-15.44 4.7-26.28-.47-32.5-15.5-2.1-10.05 1.74-16.38 11.5-19z"/><path style="opacity:.994" fill="#a1d898" d="M553.5 1755.5c4.637 5.64 9.303 11.31 14 17 .667 0 1 .33 1 1a884.728 884.728 0 0 0 46.5 76c44.309 64.66 92.809 126.16 145.5 184.5 4.717 4.03 10.051 7.03 16 9 3.827.58 7.494.08 11-1.5-13.506 34.49-34.506 63.66-63 87.5-18.923 12.36-39.256 21.53-61 27.5-20.168-11.32-38.834-24.82-56-40.5-39.234-38.08-74.068-79.58-104.5-124.5a1472.66 1472.66 0 0 1-69-106 924.719 924.719 0 0 1-26.5-51c5-1 9.667-2.83 14-5.5a816.144 816.144 0 0 0 33-20c33.167-17.91 66.167-35.74 99-53.5z"/><path style="opacity:1" fill="#fafafa" d="M1738.5 1798.5c2.03-.16 4.03 0 6 .5 6.19 5.34 10.53 11.84 13 19.5-3.34.39-6.67.89-10 1.5a120.427 120.427 0 0 1-32 8.5c-1.6-.05-3.1-.38-4.5-1a8.95 8.95 0 0 0-3-4c-.67-1.67-.67-3.33 0-5 4.2-4.53 8.7-8.7 13.5-12.5 5.73-2.62 11.39-5.12 17-7.5z"/><path style="opacity:.995" fill="#a2d898" d="M871.5 1425.5c-5.548 11.65-9.881 23.65-13 36a317.855 317.855 0 0 0-61-28.5c-39.823-13.12-79.823-13.79-120-2-11.6 5.15-23.267 10.15-35 15-18.018 12.68-34.185 27.51-48.5 44.5-11.277 13.54-20.277 28.54-27 45-13.662 41.48-12.329 82.48 4 123 21.419 46.09 53.586 82.93 96.5 110.5 47.28 30.67 98.614 40.33 154 29 91.14-21.97 142.14-79.47 153-172.5 4.945 1.28 9.945 2.28 15 3 8.688 2.01 17.35 4.01 26 6 2.1 42.03-7.07 81.36-27.5 118-7.721 12.56-17.221 23.73-28.5 33.5a8559.35 8559.35 0 0 0-23 18.5c5.724 13.34 10.557 27 14.5 41a1019.598 1019.598 0 0 1 25 106c7.375 40.5 5.375 80.5-6 120-9.082 29.34-25.916 53.17-50.5 71.5-59.084 40.38-123.751 53.55-194 39.5 20.626-7.24 39.126-18.24 55.5-33 24.973-30.59 38.306-65.59 40-105 3.203-37.5.203-74.5-9-111-.522-2.78-1.689-5.11-3.5-7 12.042 48.85 14.209 98.18 6.5 148-6.072 24.91-16.739 47.58-32 68a188.596 188.596 0 0 1-36.5 28.5 185.364 185.364 0 0 0-23 11.5 277.495 277.495 0 0 1-55-22c36.348-9.01 66.014-28.35 89-58 13.599-19.15 25.432-39.48 35.5-61 .64-1.77.473-3.43-.5-5 4.024-10.49 5.691-21.49 5-33-.858-29.1-6.025-57.44-15.5-85a607.555 607.555 0 0 0-20.5-58.5c-3.525-.18-6.859-.68-10-1.5 11.338.17 22.672 0 34-.5 54.321-4.99 103.988-22.66 149-53a963.628 963.628 0 0 1-37 17 302.279 302.279 0 0 1-78 17c-76.275 1.1-146.275-19.23-210-61-50.339-35.15-77.506-83.65-81.5-145.5-2.453-47.61 4.714-93.61 21.5-138 23.151-39.65 55.817-68.49 98-86.5 2.24-.98 4.573-1.48 7-1.5v-3c65.199-19.61 129.199-16.11 192 10.5 8.355 3.85 16.688 7.68 25 11.5z"/><path style="opacity:1" fill="#3f5f55" d="M716.5 1748.5c2.181-.22 3.847.62 5 2.5-6.498 7.16-11.331 15.33-14.5 24.5-1.88 1.43-3.38 1.1-4.5-1 3.363-9.47 8.03-18.14 14-26z"/><path style="opacity:1" fill="#3d5d54" d="M861.5 1737.5c7.8 9.57 14.633 19.91 20.5 31 1.254 3.61.088 5.11-3.5 4.5a299.62 299.62 0 0 0-18.5-31.5c-.484-1.69.016-3.03 1.5-4z"/><path style="opacity:1" fill="#3e5e54" d="M631.5 1663.5c4.658.15 5.658 1.99 3 5.5a163.971 163.971 0 0 0-34 17.5c-2.096-1.12-2.43-2.62-1-4.5a786.177 786.177 0 0 1 32-18.5z"/><path style="opacity:1" fill="#436258" d="M939.5 1654.5c6.373 2.31 13.04 3.81 20 4.5 1.563 2.48.896 3.98-2 4.5a67.462 67.462 0 0 1-17-4 9.11 9.11 0 0 1-1-5z"/><path style="opacity:1" fill="#f2f5e6" d="M734.5 1402.5c11.347.58 22.681 1.42 34 2.5 3.202.2 6.202 1.03 9 2.5-1.167.33-2.333.67-3.5 1-26.161-3.91-52.328-3.91-78.5 0-1-.17-2-.33-3-.5 13.97-3.2 27.97-5.03 42-5.5z"/><path style="opacity:1" fill="#fdfdfd" d="M1531.5 1807.5c36.29 4.31 61.29 23.31 75 57 3.65 14.4 4.98 29.07 4 44-5.89 32.73-24.22 55.56-55 68.5a104.22 104.22 0 0 1-24 5.5c-9.02.05-18.02-.28-27-1-38.37-7.54-62.87-30.2-73.5-68-6.56-42.55 8.61-74.55 45.5-96 8.4-3.52 17.06-6.35 26-8.5a171.39 171.39 0 0 1 29-1.5z"/><path style="opacity:1" fill="#f6f6f6" d="M1700.5 1807.5c3.89-.39 7.56.28 11 2-3.38 4.21-7.21 7.88-11.5 11-1.26 8.24 2.24 12.9 10.5 14 5.67-2.47 11.67-3.8 18-4-.19 6.69-3.52 10.85-10 12.5-16.62 2.04-26.28-5.13-29-21.5.69-7.02 4.35-11.69 11-14z"/><path style="opacity:1" fill="#c3c3c3" d="M1531.5 1807.5c-9.72-.32-19.38.18-29 1.5-8.94 2.15-17.6 4.98-26 8.5 17.16-10.03 35.49-13.37 55-10z"/><path style="opacity:1" fill="#f2f5e7" d="M446.5 1826.5c2.473.1 3.139 1.1 2 3-4.868 3.34-10.201 4.84-16 4.5 3.885-1.85 7.885-3.52 12-5 .881-.71 1.547-1.54 2-2.5z"/><path style="opacity:1" fill="#f2f5e6" d="M454.5 1833.5c3.326.47 3.659 1.63 1 3.5-3.827 1.96-7.827 2.96-12 3 4.046-1.72 7.713-3.88 11-6.5z"/><path style="opacity:1" fill="#f2f4e6" d="M927.5 1825.5a8.394 8.394 0 0 1 4 .5c-13.456 11.73-28.789 19.73-46 24 15.508-5.91 29.508-14.08 42-24.5z"/><path style="opacity:1" fill="#f5f5e9" d="M934.5 1829.5c2.442-.15 3.109.69 2 2.5-6.667 4.33-13.333 8.67-20 13-1.902 1.3-3.902 1.97-6 2a450.96 450.96 0 0 0 24-17.5z"/><path style="opacity:1" fill="#fbf8ef" d="M507.5 1838.5c4.673.77 9.339 1.94 14 3.5 7.214 4.96 9.714 11.8 7.5 20.5-8.867 11.23-18.534 11.9-29 2-4.492-10.69-1.992-19.36 7.5-26z"/><path style="opacity:1" fill="#f9f9f9" d="M1783.5 1847.5c1.7-.16 3.37.01 5 .5 4.58 3.91 8.42 8.41 11.5 13.5.67 1.33.67 2.67 0 4a951.062 951.062 0 0 0-43.5 26c-1.77-2.8-2.6-5.8-2.5-9 5.83-7.66 11.16-15.66 16-24 3.84-4.69 8.34-8.36 13.5-11z"/><path style="opacity:1" fill="#f3f3f3" d="M1744.5 1871.5c3.64.61 7.3.95 11 1-.9 5.73-4.23 8.9-10 9.5-5 7.25-3.33 12.58 5 16 3.74.93 7.24.43 10.5-1.5.33-1.33.67-2.67 1-4 2.67-2 5.33-4 8-6 4.51 12.61.01 19.95-13.5 22-15.96-2.12-23.79-11.12-23.5-27 2.19-5.33 6.03-8.66 11.5-10z"/><path style="opacity:1" fill="#ddedd2" d="M793.5 1887.5a211.221 211.221 0 0 1-11.5-25 106.131 106.131 0 0 1 11.5 25z"/><path style="opacity:1" fill="#e1efd6" d="M793.5 1887.5c6.759 12.27 11.759 25.27 15 39a1829.928 1829.928 0 0 0-15-39z"/><path style="opacity:1" fill="#c8c8c8" d="M1606.5 1864.5c6.17 14.26 7.5 28.93 4 44 .98-14.93-.35-29.6-4-44z"/><path style="opacity:1" fill="#fcf8f0" d="M557.5 1908.5c7.253.21 13.086 3.21 17.5 9 3.373 11.29-.793 16.79-12.5 16.5-8.117-7.29-9.784-15.79-5-25.5z"/><path style="opacity:1" fill="#fafafa" d="M1834.5 1910.5c6.95.89 12.45 4.23 16.5 10 .67 1 .67 2 0 3-9.37 9.37-19.87 17.21-31.5 23.5-2.59 1.31-5.26 1.98-8 2-4.99-6.4-5.15-12.9-.5-19.5 3.13-4.13 6.63-7.97 10.5-11.5 4.4-2.53 8.73-5.03 13-7.5z"/><path style="opacity:1" fill="#f5f5f5" d="M1799.5 1928.5c2.69-.16 5.35 0 8 .5-2.31 5.45-4.98 10.62-8 15.5.37 4.25 2.37 7.42 6 9.5 5.73 3.73 10.4 2.73 14-3l9-4.5c1.15 15.01-5.85 21.18-21 18.5-11.7-4.59-17.53-13.09-17.5-25.5 1.6-5.09 4.77-8.76 9.5-11z"/><path style="opacity:1" fill="#f9f9f9" d="M1881.5 1946.5c5 1.72 10 3.56 15 5.5 2.35 1.01 4.01 2.68 5 5-2.03 14.34-9.19 25.17-21.5 32.5-3.94-.69-6.44-2.86-7.5-6.5 3.37-12.08 6.37-24.24 9-36.5z"/><path style="opacity:1" fill="#f6f6f6" d="M1866.5 1969.5c2.1-.3 4.1.03 6 1-.61 4.37-2.45 8.04-5.5 11-2 3-2 6 0 9 4.35 6.17 9.85 7.5 16.5 4 2.44-3.94 5.44-7.44 9-10.5.95-.62 1.78-.45 2.5.5 1.76 15.9-5.4 22.73-21.5 20.5-12.68-3.88-18.52-12.38-17.5-25.5 2.35-4.58 5.85-7.92 10.5-10z"/><path style="opacity:1" fill="#f9f9f9" d="M1941.5 1971.5c7.12.65 13.62 2.99 19.5 7 .62 13.04-1.21 25.71-5.5 38-4.03-.3-7.86-1.3-11.5-3 1.37-14.14.54-28.14-2.5-42z"/><path style="opacity:1" fill="#fbf8ef" d="M611.5 1976.5c7.852-.9 15.185.6 22 4.5 8.5 7.33 7.834 13.66-2 19-17.522 1-24.189-6.84-20-23.5z"/><path style="opacity:1" fill="#a9a9a9" d="M1504.5 1981.5c8.98.72 17.98 1.05 27 1-3.48.67-7.15 1-11 1-5.59.18-10.92-.48-16-2z"/><path style="opacity:1" fill="#f7f7f7" d="M2009.5 2000.5c17.37 1.22 24.53 10.56 21.5 28-2.72 9.32-7.56 10.49-14.5 3.5-3.37-10.3-5.7-20.8-7-31.5z"/><path style="opacity:1" fill="#f4f4f4" d="M1937.5 2002.5h3c-.34 4.21-1.01 8.38-2 12.5 1.34 5.69 5.01 8.52 11 8.5 2.42-.09 4.76-.59 7-1.5 2.06-4.73 3.89-9.56 5.5-14.5 7.77 6.47 8.27 13.3 1.5 20.5-9.67 3.84-19.01 3.18-28-2-9.99-9.1-9.32-16.94 2-23.5zM2008.5 2022.5c1-.03 1.66.47 2 1.5.59 2.2 1.26 4.36 2 6.5-2.32 5.52-.66 9.35 5 11.5 4.13.85 8.13.52 12-1 2.02-4.4 3.86-8.9 5.5-13.5 5.59 4.62 6.92 10.29 4 17-6.9 6.03-14.74 7.53-23.5 4.5-9.83-3.47-14.33-10.3-13.5-20.5a54.37 54.37 0 0 1 6.5-6z"/><path style="opacity:1" fill="#f8f8f8" d="M2082.5 2023.5c8.21.2 15.71 2.53 22.5 7 2.55 7 1.72 13.5-2.5 19.5-3.26 1.73-6.59 1.89-10 .5a164.06 164.06 0 0 0-10-27z"/><path style="opacity:1" fill="#f4f5e8" d="M962.5 2029.5c1.218 5.21 1.051 10.55-.5 16-.799 4.25-2.633 7.91-5.5 11l-1-1.5c4.083-7.97 6.417-16.47 7-25.5z"/><path style="opacity:1" fill="#fbf8ef" d="M673.5 2033.5c12.82-1.35 18.32 4.32 16.5 17-2.633 5.23-6.799 7.06-12.5 5.5-7.964-2.28-11.464-7.44-10.5-15.5 1.694-2.86 3.861-5.19 6.5-7z"/><path style="opacity:1" fill="#f4f5e9" d="M954.5 2037.5c.647.77.98 1.77 1 3a86.298 86.298 0 0 1-3.5 12c-.71 1.47-1.876 2.14-3.5 2a189.569 189.569 0 0 0 6-17z"/><path style="opacity:1" fill="#f3f3f3" d="M2083.5 2041.5h3c.9 4.31 1.07 8.65.5 13 5.27 4.57 11.11 5.23 17.5 2a72.93 72.93 0 0 1 5.5-13c7.61 4.85 8.45 10.68 2.5 17.5-12.36 6.78-23.86 5.61-34.5-3.5-3.28-7.21-1.45-12.54 5.5-16z"/><path style="opacity:1" fill="#fdfdfd" d="M2191.5 2043.5c18-.17 36 0 54 .5 18.22-.06 32.88 6.94 44 21-28.31 11.21-57.48 19.71-87.5 25.5-2.82-.49-5.32-1.66-7.5-3.5a319.78 319.78 0 0 1-38.5-34.5c-1.56-1.72-2.39-3.72-2.5-6 12.81-1 25.48-2 38-3z"/><path style="opacity:.994" fill="#385b4f" d="M792.5 2036.5c.973 1.57 1.14 3.23.5 5-10.068 21.52-21.901 41.85-35.5 61-22.986 29.65-52.652 48.99-89 58h-5v-4c21.744-5.97 42.077-15.14 61-27.5 28.494-23.84 49.494-53.01 63-87.5 1.382-2.05 3.048-3.72 5-5z"/><path style="opacity:1" fill="#fdfdfd" d="M2296.5 2068.5c5.63 6.15 10.8 12.82 15.5 20 9.1 24.29 12.44 49.29 10 75-5.53 5.52-12.03 9.69-19.5 12.5a1080.844 1080.844 0 0 1-166 42 467.456 467.456 0 0 1-57 7.5c-.96-13.77-2.79-27.44-5.5-41-4.62-21.73-9.45-43.4-14.5-65 67.98-7.16 134.98-19.66 201-37.5 12.44-3.64 24.44-8.14 36-13.5z"/><path style="opacity:1" fill="#f4f5e8" d="M808.5 1926.5c1.811 1.89 2.978 4.22 3.5 7 9.203 36.5 12.203 73.5 9 111-1.694 39.41-15.027 74.41-40 105-16.374 14.76-34.874 25.76-55.5 33h-2a185.364 185.364 0 0 1 23-11.5c13.337-8 25.503-17.5 36.5-28.5 15.261-20.42 25.928-43.09 32-68 7.709-49.82 5.542-99.15-6.5-148z"/><path style="opacity:1" fill="#f6f6f6" d="M1775.5 2078.5c14.48-2.78 23.14 2.88 26 17-2.99 15.14-11.99 20.64-27 16.5-10.18-6.61-12.68-15.44-7.5-26.5 2.63-2.71 5.46-5.04 8.5-7z"/><path style="opacity:1" fill="#f7f7f7" d="M1678.5 2079.5c16.19-1.31 24.02 6.03 23.5 22-4.5 11.13-12.67 15.3-24.5 12.5-10.49-4.42-14.32-12.25-11.5-23.5 3.15-4.99 7.31-8.66 12.5-11z"/><path style="opacity:1" fill="#fcf8f0" d="M714.5 2083.5c8.374.1 15.541 3.1 21.5 9 6.603 10.07 4.103 16.57-7.5 19.5-9.385 1.22-15.885-2.61-19.5-11.5a25.238 25.238 0 0 1 0-10c1.842-2.36 3.675-4.7 5.5-7z"/><path style="opacity:1" fill="#060606" d="M1778.5 2087.5c11.62-.9 15.29 3.93 11 14.5-10.32 4.77-15.48 1.6-15.5-9.5 1.02-2.19 2.52-3.85 4.5-5z"/><path style="opacity:1" fill="#080808" d="M1679.5 2088.5c10.07-1.23 14.23 3.1 12.5 13-5.06 4.88-10.39 5.22-16 1-2.74-5.73-1.57-10.4 3.5-14z"/><path style="opacity:1" fill="#fdfdfd" d="M2048.5 2120.5c1.95-.27 3.45.39 4.5 2 5.26 20.12 9.42 40.46 12.5 61a2528.934 2528.934 0 0 1-224 14.5c-147.66 2.9-295.33 4.9-443 6a192.852 192.852 0 0 1-33-6.5v-52c-6-.67-12-1.33-18-2-.28-2.95.06-5.78 1-8.5 4.5-.17 9-.33 13.5-.5 132.78 5.27 265.62 7.44 398.5 6.5 68.47-1.15 136.8-4.82 205-11 27.89-2.57 55.56-5.74 83-9.5z"/><path style="opacity:1" fill="#fcfcfc" d="M1359.5 2167.5c-.67 21.33-1.33 42.67-2 64-4.84-1.67-9.34-4-13.5-7-.66-25.39.18-50.72 2.5-76 4.29.92 8.62 1.59 13 2v17z"/><path style="opacity:1" fill="#f6f6ea" d="M784.5 2170.5c4 1.23 4 2.73 0 4.5-4.711 1.84-9.377 1.84-14 0a74.846 74.846 0 0 0 12-2c.881-.71 1.547-1.54 2-2.5z"/><path style="opacity:1" fill="#f3f5e8" d="M788.5 2177.5h3c-.299 3.14-1.966 5.31-5 6.5-10.693 2.67-21.026 1.67-31-3 3.816-.4 7.483.27 11 2 7.439 1.38 14.439.38 21-3 .752-.67 1.086-1.5 1-2.5z"/><path style="opacity:1" fill="#fcfcfc" d="M2061.5 2192.5h7c2.08 11.58 3.42 23.25 4 35-42.6 3.31-85.27 5.48-128 6.5-59.67.58-119.33 1.24-179 2-92.97 3.45-185.97 5.95-279 7.5-27.37.2-54.7-.64-82-2.5a276.274 276.274 0 0 1-40-6.5c-.33-9.02 0-18.02 1-27 22.09 5.9 44.59 8.24 67.5 7 136.5-2.4 273-4.56 409.5-6.5 73.47-1 146.47-6.17 219-15.5z"/><path style="opacity:1" fill="#828282" d="M1359.5 2167.5c.33 21.68 0 43.34-1 65-.61-.12-.94-.46-1-1 .67-21.33 1.33-42.67 2-64z"/></svg>