<svg width="1499" height="1109" xmlns="http://www.w3.org/2000/svg" xmlns:xlink="http://www.w3.org/1999/xlink" xml:space="preserve" overflow="hidden"><defs><clipPath id="clip0"><rect x="3322" y="362" width="1499" height="1109"/></clipPath><clipPath id="clip1"><rect x="3327" y="366" width="1490" height="1100"/></clipPath><clipPath id="clip2"><rect x="3437" y="559" width="1333" height="649"/></clipPath><clipPath id="clip3"><rect x="3437" y="559" width="1333" height="649"/></clipPath><clipPath id="clip4"><rect x="3327" y="366" width="1490" height="1100"/></clipPath><clipPath id="clip5"><rect x="3327" y="366" width="1490" height="1100"/></clipPath><clipPath id="clip6"><rect x="3327" y="366" width="1490" height="1100"/></clipPath><clipPath id="clip7"><rect x="3327" y="366" width="1490" height="1100"/></clipPath><clipPath id="clip8"><rect x="3327" y="366" width="1490" height="1100"/></clipPath><clipPath id="clip9"><rect x="3327" y="366" width="1490" height="1100"/></clipPath><clipPath id="clip10"><rect x="3327" y="366" width="1490" height="1100"/></clipPath><clipPath id="clip11"><rect x="3327" y="366" width="1490" height="1100"/></clipPath><clipPath id="clip12"><rect x="3327" y="366" width="1490" height="1100"/></clipPath><clipPath id="clip13"><rect x="3327" y="366" width="1490" height="1100"/></clipPath><clipPath id="clip14"><rect x="3327" y="366" width="1490" height="1100"/></clipPath><clipPath id="clip15"><rect x="3327" y="366" width="1490" height="1100"/></clipPath><clipPath id="clip16"><rect x="3327" y="366" width="1490" height="1100"/></clipPath><clipPath id="clip17"><rect x="3327" y="366" width="1490" height="1100"/></clipPath></defs><g clip-path="url(#clip0)" transform="translate(-3322 -362)"><rect x="3328" y="367" width="1489" height="1100" fill="#FFFFFF" fill-opacity="1"/><g clip-path="url(#clip1)"><path d="M3437.5 1097.54 4766.5 1097.54M3437.5 989.533 4766.5 989.533M3437.5 882.529 4766.5 882.529M3437.5 774.526 4766.5 774.526M3437.5 666.522 4766.5 666.522M3437.5 559.5 4766.5 559.5" stroke="#D9D9D9" stroke-width="3.4375" stroke-linecap="butt" stroke-linejoin="round" stroke-miterlimit="10" stroke-opacity="1" fill="none" fill-rule="nonzero"/></g><g clip-path="url(#clip2)"><path d="M3480.11 1191.04 3585.12 1191.04 3585.12 1205 3480.11 1205ZM3670.12 1157.04 3775.12 1157.04 3775.12 1205 3670.12 1205ZM3860.13 1123.04 3965.13 1123.04 3965.13 1205 3860.13 1205ZM4049.13 1108.04 4155.14 1108.04 4155.14 1205 4049.13 1205ZM4239.14 1059.03 4345.14 1059.03 4345.14 1205 4239.14 1205Z" fill="#4472C4" fill-rule="nonzero" fill-opacity="1"/></g><g clip-path="url(#clip3)"><path d="M4429.15 904.03 4535.15 904.03 4535.15 1205 4429.15 1205ZM4619.15 665.022 4724.15 665.022 4724.15 1205 4619.15 1205Z" fill="#ED7D31" fill-rule="nonzero" fill-opacity="1"/></g><g clip-path="url(#clip4)"><path d="M3437.5 1205.5 4766.5 1205.5" stroke="#D9D9D9" stroke-width="3.4375" stroke-linecap="butt" stroke-linejoin="round" stroke-miterlimit="10" stroke-opacity="1" fill="none" fill-rule="evenodd"/></g><g clip-path="url(#clip5)"><text fill="#595959" fill-opacity="1" font-family="Calibri,Calibri_MSFontService,sans-serif" font-style="normal" font-variant="normal" font-weight="400" font-stretch="normal" font-size="55" text-anchor="start" direction="ltr" writing-mode="lr-tb" unicode-bidi="normal" text-decoration="none" transform="matrix(1 0 0 1 3477.11 1292)">2015</text></g><g clip-path="url(#clip6)"><text fill="#595959" fill-opacity="1" font-family="Calibri,Calibri_MSFontService,sans-serif" font-style="normal" font-variant="normal" font-weight="400" font-stretch="normal" font-size="55" text-anchor="start" direction="ltr" writing-mode="lr-tb" unicode-bidi="normal" text-decoration="none" transform="matrix(1 0 0 1 3666.93 1292)">2016</text></g><g clip-path="url(#clip7)"><text fill="#595959" fill-opacity="1" font-family="Calibri,Calibri_MSFontService,sans-serif" font-style="normal" font-variant="normal" font-weight="400" font-stretch="normal" font-size="55" text-anchor="start" direction="ltr" writing-mode="lr-tb" unicode-bidi="normal" text-decoration="none" transform="matrix(1 0 0 1 3856.75 1292)">2017</text></g><g clip-path="url(#clip8)"><text fill="#595959" fill-opacity="1" font-family="Calibri,Calibri_MSFontService,sans-serif" font-style="normal" font-variant="normal" font-weight="400" font-stretch="normal" font-size="55" text-anchor="start" direction="ltr" writing-mode="lr-tb" unicode-bidi="normal" text-decoration="none" transform="matrix(1 0 0 1 4046.57 1292)">2018</text></g><g clip-path="url(#clip9)"><text fill="#595959" fill-opacity="1" font-family="Calibri,Calibri_MSFontService,sans-serif" font-style="normal" font-variant="normal" font-weight="400" font-stretch="normal" font-size="55" text-anchor="start" direction="ltr" writing-mode="lr-tb" unicode-bidi="normal" text-decoration="none" transform="matrix(1 0 0 1 4236.39 1292)">2019</text></g><g clip-path="url(#clip10)"><text fill="#595959" fill-opacity="1" font-family="Calibri,Calibri_MSFontService,sans-serif" font-style="normal" font-variant="normal" font-weight="400" font-stretch="normal" font-size="55" text-anchor="start" direction="ltr" writing-mode="lr-tb" unicode-bidi="normal" text-decoration="none" transform="matrix(1 0 0 1 4426.21 1292)">2020</text></g><g clip-path="url(#clip11)"><text fill="#595959" fill-opacity="1" font-family="Calibri,Calibri_MSFontService,sans-serif" font-style="normal" font-variant="normal" font-weight="400" font-stretch="normal" font-size="55" text-anchor="start" direction="ltr" writing-mode="lr-tb" unicode-bidi="normal" text-decoration="none" transform="matrix(1 0 0 1 4616.02 1292)">2021</text></g><g clip-path="url(#clip12)"><text fill="#595959" fill-opacity="1" font-family="Calibri,Calibri_MSFontService,sans-serif" font-style="normal" font-variant="normal" font-weight="400" font-stretch="normal" font-size="55" text-anchor="start" direction="ltr" writing-mode="lr-tb" unicode-bidi="normal" text-decoration="none" transform="matrix(1 0 0 1 3396.32 900)">€</text></g><g clip-path="url(#clip13)"><text fill="#595959" fill-opacity="1" font-family="Calibri,Calibri_MSFontService,sans-serif" font-style="normal" font-variant="normal" font-weight="400" font-stretch="normal" font-size="73" text-anchor="start" direction="ltr" writing-mode="lr-tb" unicode-bidi="normal" text-decoration="none" transform="matrix(1 0 0 1 3996.88 471)">Sales </text></g><g clip-path="url(#clip14)"><rect x="3709" y="1377" width="30" height="29.9999" fill="#4472C4" fill-opacity="1"/></g><g clip-path="url(#clip15)"><text fill="#595959" fill-opacity="1" font-family="Calibri,Calibri_MSFontService,sans-serif" font-style="normal" font-variant="normal" font-weight="400" font-stretch="normal" font-size="55" text-anchor="start" direction="ltr" writing-mode="lr-tb" unicode-bidi="normal" text-decoration="none" transform="matrix(1 0 0 1 3752.42 1407)">Old platform</text></g><g clip-path="url(#clip16)"><rect x="4103" y="1377" width="30" height="29.9999" fill="#ED7D31" fill-opacity="1"/></g><g clip-path="url(#clip17)"><text fill="#595959" fill-opacity="1" font-family="Calibri,Calibri_MSFontService,sans-serif" font-style="normal" font-variant="normal" font-weight="400" font-stretch="normal" font-size="55" text-anchor="start" direction="ltr" writing-mode="lr-tb" unicode-bidi="normal" text-decoration="none" transform="matrix(1 0 0 1 4146.19 1407)">New platform</text></g><rect x="3328.5" y="367.5" width="1489" height="1100" stroke="#D9D9D9" stroke-width="3.4375" stroke-linecap="butt" stroke-linejoin="round" stroke-miterlimit="10" stroke-opacity="1" fill="none"/></g></svg>